<?xml version="1.0" encoding="utf-8"?>
<!-- Generator: Adobe Illustrator 21.1.0, SVG Export Plug-In . SVG Version: 6.00 Build 0)  -->
<svg version="1.1" id="Layer_1" xmlns="http://www.w3.org/2000/svg" xmlns:xlink="http://www.w3.org/1999/xlink" x="0px" y="0px"
	 viewBox="0 0 150 150" style="enable-background:new 0 0 150 150;" xml:space="preserve">
<style type="text/css">
	.st0{fill:#FFFFFF;}
</style>
<g>
	<path class="st0" d="M92.9,148c-12.7,0.6-25.2,0.6-37.7,0.6c-1.1-1.4-2.2-2.7-3.2-4.1c-4.7-6.2-8.6-12.9-11.2-20.2
		c-0.9-2.5-1.6-5-2.4-7.6c-0.1-0.4-0.2-0.9-0.2-1.4c-0.4-4.6-0.7-9.2-0.2-13.9c0.4-3.3,0.7-6.6,1.2-9.8c0.9-6.2,3.6-11.5,7.8-16.1
		c2.5-2.8,5.2-5.4,8-8.3c13.9-0.4,27.9-1.1,41.9-0.9c1.7,2,3.4,4.1,4.8,6.3c2.8,4.6,5,9.5,7,14.5c1,2.6,1.3,5.3,1.6,8
		c0.6,5.7,0.5,11.3,0,17c-0.6,7.4-2.4,14.5-6.4,21c-2.6,4.3-5.3,8.5-8.6,12.3C94.5,146.3,93.7,147.1,92.9,148z M95.6,83.4
		c0-1.2-0.1-2.1-0.1-3c0.1-3.7,0.2-7.4,0.3-11c0-0.2-0.1-0.3-0.2-0.5c-0.8-0.3-1.6-0.4-2.4,0.3c-0.1,2.3-0.1,4.7-0.2,7
		c-0.1,2.4,0.1,4.9-0.3,7.2c-3.6,0.5-11.3,0.7-14.1,0.3c-0.1-0.7-0.2-1.4-0.2-2.1c-0.1-4.5-0.3-9.1-0.4-13.6c0-0.3-0.2-0.5-0.3-0.8
		c-0.7,0.2-1.5,0.4-2.3,0.6c0,0.9-0.1,1.8-0.1,2.6c0,3.9,0.1,7.7,0.1,11.6c0,0.6-0.1,1.3-0.2,2c-1.7,0.1-3.2,0.1-4.7,0.2
		c-1.6,0-3.1,0.7-4.9,0c-0.2-2.1-0.1-4.3-0.1-6.4c-0.1-2.2,0.2-4.5-0.5-6.8c-0.6,0.1-1,0.1-1.5,0.2c-0.1,0-0.1,0.1-0.3,0.5
		c0,0.5,0,1.3,0,2c0,3,0,6,0,9.1c0,0.6-0.1,1.3-0.2,2c-2.2,0.2-4.3,0.5-6.3,0.4c-2.1-0.1-4.2,1-6.3,0.2c-0.6-1.5,0.2-3.1-0.7-4.4
		c-0.8-0.2-1.5-0.4-2.2,0.3c0,0.7,0,1.5,0,2.2c0,0.7-0.1,1.4-0.1,2.1c-1.7,0.8-3.4-0.1-4.9,1.1c0.1,2.1-0.1,4.4,0.5,6.5
		c1.7,0.2,3.3-0.2,5,0.3c0.2,3.2,0.4,6.3,0.6,9.4c0.2,3.1,0.4,6.2,0.5,9.3c0.1,3.1,0.5,6.2,0.4,9.2c-1.5,0.7-3-0.1-4.3,0.7
		c-0.1,1.2-0.2,2.5-0.2,3.7c-0.1,1.2-0.3,2.4-0.1,3.6c1.6,0.6,3.4-0.1,4.9,0.8c0.1,0.5,0.1,1.1,0.2,1.7c0.1,2,0.2,4,0.3,5.9
		c0,0.3,0.2,0.5,0.4,0.8c0.8-0.1,1.7,0.2,2.5-0.5c0.2-2.6-0.3-5.3,0-8c2,0,3.7,0,5.5,0c1.8,0,3.5-0.2,5.5,0.2
		c0.1,1.4,0.1,2.6,0.2,3.8c0.1,4,0.1,7.9,0.1,11.9c0,0.3,0.2,0.7,0.3,1c1,0.1,1.8,0.2,2.7-0.6c-0.1-3.6-0.2-7.4-0.3-11.2
		c0-0.8-0.1-1.7-0.1-2.5c0-0.8-0.3-1.7,0.4-2.5c1.4,0,2.8,0,4.2,0c1.5,0.1,3-0.2,4.6,0.2c0.6,5.8,0.3,11.5,0.7,17.2
		c1,0.2,1.8,0.4,2.7-0.2c0-1,0.1-2,0.1-3.1c0-4.1,0-8.1,0-12.2c0-0.5,0.1-1.1,0.2-1.7c1.9-0.2,3.7-0.1,5.5,0
		c1.8,0.1,3.7-0.4,5.7,0.4c-0.1,1.8-0.1,3.6-0.2,5.4c-0.2,3-0.4,6-0.6,9c0,0.6,0.2,1.2,0.3,2c0.9-0.1,1.6-0.1,2.3-0.2
		c0.7-5.5,0.3-10.9,1.2-16.3c0.7,0,1.2-0.1,1.8-0.1c2.2,0,4.3,0.1,6.5,0.1c0.5,0,1.1-0.1,1.8-0.2c0-1.4,0-2.6,0-3.8
		c0-1.2,0.2-2.4-0.2-3.7c-3.2-0.5-6.3,0-9.5-0.4c-0.2-2.8,0-5.4,0.1-8c0.1-2.6,0.3-5.3,0.4-7.9c0.1-2.7,0.1-5.5,0.2-8.2
		c0.1-2.6-0.1-5.2,0.4-7.8c1.7-0.2,3.3-0.4,4.9-0.6c1.6-0.2,3.2,0.3,4.7-0.5c-0.1-2,0.3-4-0.3-5.9C101.8,83.4,98.9,83.4,95.6,83.4z"
		/>
	<path class="st0" d="M91.3,122.4c-3.8,0.1-7.6,0.1-11.6-0.3c-0.7-10.4-0.6-20.5-1.1-30.6c0.3-0.2,0.5-0.4,0.6-0.4
		c0.3-0.1,0.5-0.2,0.8-0.2c3.9-0.2,7.7-0.4,11.6-0.6c0.3,0,0.5,0.1,1,0.2c0.1,0.4,0.2,0.9,0.2,1.3c-0.3,9.2-0.6,18.5-1,27.7
		C91.7,120.5,91.8,121.4,91.3,122.4z"/>
	<path class="st0" d="M50.5,93c2-0.4,10.5-0.9,12.5-0.8c0.6,1.1,0.4,2.3,0.4,3.5c0.1,4.2,0.2,8.5,0.2,12.7c0.1,3.9,0.1,7.7,0.2,11.6
		c0,0.5-0.1,0.9-0.1,1.5c-1.9,0.6-3.8-0.1-5.7,0c-1.9,0.1-3.7,0-5.7-0.1c-0.8-4.8-0.7-9.5-1-14.2C51.1,102.5,50.8,97.8,50.5,93z"/>
	<path class="st0" d="M66,92c3.2-0.5,6.2-0.7,9.3-0.5c0.1,0.5,0.3,0.9,0.3,1.3c0.2,8.9,0.4,17.9,0.6,26.8c0,0.7,0,1.3,0,2
		c-1.6,0.7-3.2,0.2-4.8,0.3c-1.5,0.1-3,0-4.6-0.2c-0.6-2.6-0.2-5.2-0.4-7.7c-0.2-2.4-0.3-4.9-0.3-7.3c-0.1-2.5-0.1-5.1-0.1-7.6
		C65.9,96.7,65.6,94.3,66,92z"/>
	<path d="M58.7,57.5c0-1.6,0-3.2,0-4.8c0-1,0.3-1.6,1.4-1.6c0.6,0,1.1-0.1,1.7-0.3c0.1,0,0.2-0.5,0.1-0.6c-0.5-0.4-1.1-0.8-1.6-1.2
		c-8.3-5.8-9.9-17.6-2.6-25.6c0.5-0.6,1.1-1.1,1.6-1.6c0.4-0.5,0.1-0.7-0.3-0.7c-1.7,0-3.4,0-5.1,0.1c-0.5,0-0.9,0.2-1.4,0.1
		c-0.4,0-0.8-0.3-1.2-0.4c0.1-0.3,0.2-0.7,0.4-1c0.6-0.6,1.2-1.2,1.8-1.8c5.1-4.7,10.3-9.4,15.4-14.2c1.5-1.4,1.8-1.1,3.1-0.3
		c3.5,2.3,7.1,4.4,10.5,6.7c4,2.7,7.9,5.6,11.8,8.4c0.3,0.2,0.5,0.8,0.4,0.9c-0.2,0.3-0.7,0.5-1.1,0.7c-0.9,0.3-2-0.4-2.9,0.4
		c0.7,0.6,1.3,1.3,2,1.9c3.8,3.5,5.5,7.8,4.8,13c-0.4,3.2-2,5.9-3.7,8.5c-1.7,2.6-4.2,4.3-6.8,5.9c-0.7,0.5-0.8,0.7,0.1,1
		c1,0.3,1.1,1,1.1,2c0,1.7,0.1,3.4,0.1,5.1c0,0.2,0.2,0.4,0.3,0.7c0.2-0.2,0.4-0.3,0.6-0.5c1.7-3.2,3.4-6.3,5.1-9.5
		c1.3-2.3,2.6-4.6,4.5-6.5c0.5-0.5,1.1-1.1,1.7-1.5c1.2-0.8,2-0.8,2.9-0.2c0.9,0.6,1.1,1.6,0.8,2.5c-0.5,1.6-1.2,3.2-1.7,4.8
		c-0.1,0.2-0.1,0.5-0.2,0.8c0.3-0.1,0.6-0.1,0.9-0.3c1.7-0.9,3.4-2,5.2-2.8c0.8-0.4,1.8-0.5,2.7-0.5c1.5,0,2.3,1.1,1.7,2.5
		c-0.5,1.2-1.3,2.4-2.2,3.3c-1.3,1.3-2.9,2.3-4.4,3.5c-0.3,0.2-0.5,0.5-0.7,0.8c0.3,0.1,0.5,0.1,0.8,0.2c0.3,0,0.6,0,0.8,0
		c0.9,0.1,1.8,0.5,1.9,1.4c0.1,0.6-0.6,1.4-1.1,1.8c-1.4,1.2-3.2,1.5-5,1.8c-4.2,0.6-8.4,1.4-12.4,2.7c-0.4,0.2-0.9,0.2-1.4,0.3
		c-1.5,0.2-1.9,0-1.9-1.6c-0.1-2.6-0.1-5.3-0.2-7.9c0-1.7-0.2-1.9-1.7-1.9c-2.2-0.1-4.3-0.1-6.5-0.1c-0.1,0-0.4,0.1-0.4,0.2
		c-0.1,0.1,0,0.4,0.1,0.5c0.5,0.5,1.2,1,1.6,1.6c0.8,1,1.7,2,2.3,3.2c1.1,2.2,0.4,4.9-1.5,6.4c-1.1,0.9-3.6,0.6-4.6-0.8
		c-0.8-1.1-1.4-2.5-2-3.7c-0.1-0.2-0.3-0.5-0.4-0.7c-0.1,0.3-0.3,0.5-0.4,0.8c-0.5,1.1-0.9,2.3-1.5,3.4c-1,1.8-4.4,2.4-5.9,1
		c-1.3-1.2-1.7-2.9-1-4.6c1.1-2.4,3-4.1,5-5.7c0.5-0.4,0.9-0.9,1.3-1.3c-0.6-0.1-1.2-0.3-1.8-0.3c-2.2,0-4.3,0.1-6.5,0.1
		c-0.6,0-1.1,0.1-1.7,0.2c-1.6,0.3-1.7,0.4-1.7,2c0,2,0.1,4,0.1,6c0,0.8,0.1,1.5,0,2.3c-0.1,0.6-0.3,1.2-0.5,1.8
		c-1-0.3-0.6-1.2-0.6-1.9c-0.1-1.5,0-3,0-4.5C58.8,57.5,58.7,57.5,58.7,57.5z M75.9,22.7c1.1-0.9,1.1-0.9,1.4,0.2
		c0.1,0.3,0,0.6,0.1,0.8c0.3,0.7,1,0.9,1.6,0.4c0.3-0.3,0.6-0.8,0.8-1.1c0.2-0.4,0.5-1,1-0.5c0.2,0.2,0,0.9-0.1,1.3
		c-0.1,0.3-0.4,0.6-0.7,0.9c-0.4,0.4-0.9,0.8-1.4,1.3c0.6,0.3,1.2,0.6,1.7,1c1.2,0.8,2.2,1.8,2.8,3.1c0.4,0.8,0.8,0.7,1.2,0.1
		c1.7-2.4,4.3-3.3,7-3.9c0.8-0.2,1.6-0.3,2.4-0.4c0.1-1.2-0.9-1.8-1.7-2.4c-1.1-0.9-2.2-1.7-3.4-2.4c-0.6-0.4-1.4-0.5-2.1-0.5
		c-7.7,0.2-15.3,0.4-23,0.6c-1,0-1.9,0.2-2.6,0.9c-0.9,0.9-1.8,1.7-2.6,2.6c-0.7,0.8-0.6,1,0.4,1.3c2.6,0.7,4.1,2.5,5.3,4.8
		c0.1,0.3,0.3,0.5,0.4,0.7c0.5,0.9,0.8,1,1.3,0c2-4.1,5.3-6.1,9.8-5.9c0.7,0,1.1,0,0.8-0.9C76,24,76,23.3,75.9,22.7L75.9,22.7z
		 M72.9,19.9c0,0,0-0.1,0-0.1c4.4-0.2,8.8-0.3,13.3-0.5c1.8-0.1,3.6-0.1,5.4-0.2c0.3,0,0.5-0.1,0.8-0.2c-0.2-0.3-0.3-0.7-0.5-0.8
		c-6.2-5.1-13.2-9-20-13.3c-1-0.6-1.7-0.6-2.4,0.2c-0.3,0.3-0.7,0.6-1,0.9c-4.8,4.3-9.5,8.6-14.2,12.9c-0.2,0.2-0.3,0.4-0.5,0.7
		c0.3,0.1,0.6,0.4,0.9,0.4C60.6,19.9,66.7,19.9,72.9,19.9z M73.9,50.6C73.9,50.6,74,50.6,73.9,50.6c2,0,4-0.2,5.9,0
		c2.2,0.2,4.1-0.5,6-1.4c1.2-0.6,2.2-1.4,3.3-2.2c0.7-0.5,1.6-0.8,1.5-1.8c0-0.2-1.2-0.2-1.8-0.3c-0.5-0.1-0.9-0.3-1.3-0.5
		c-1.7-0.8-3.2-1.9-4.2-3.7c-0.6-1-0.7-1-1.6-0.1c-1.1,1.2-2.4,2-3.9,2c-4.3,0.1-8.8,0.5-12-3.4c-0.4-0.4-0.6-0.2-0.8,0.2
		c-0.8,1.5-1.7,3-3.2,3.9c-1.1,0.6-2.3,0.8-3.4,1.3c-0.2,0.1-0.4,0.7-0.3,0.8c2.5,2.9,5.4,5.1,9.3,5.2
		C69.6,50.7,71.8,50.6,73.9,50.6z M75.2,41.5c0.5,0.1,0.9,0.1,1.4,0.2c3.1,0.1,4.9-1.2,5.7-4.3c0.3-1,0.4-2,0.4-3.1
		c0.3-3.8-2-6.8-5.7-7.6c-4.8-1.1-9.1,1.4-10.8,6.3c-1.1,3.1,0,5.8,2.9,7.4C71,41.3,73.1,41.6,75.2,41.5z M89.5,62
		c0.9-0.2,1.6-0.2,2.2-0.4c4.1-1.1,8.2-2.2,12.4-2.6c1.3-0.1,2.5-0.7,3.5-1.7c0.5-0.5,0.5-1.1-0.3-1.2c-0.8-0.1-1.7-0.2-2.5-0.1
		c-1.4,0.3-2.7,0.8-4.1,1.2c-0.2,0.1-0.5-0.1-0.8-0.2c0.1-0.2,0.2-0.5,0.5-0.7c2.4-1.5,4.9-2.8,7.2-4.5c1.5-1.2,2.7-2.8,4-4.3
		c0.3-0.3,0.2-1.1,0-1.5c-0.1-0.2-0.8-0.3-1.2-0.2c-2.6,0.4-4.8,1.5-6.9,3.1c-2.5,1.9-4.7,4.1-6.5,6.6c-0.3,0.4-0.6,0.7-0.9,1.1
		c-0.1,0.1-0.4,0-0.5-0.1c-0.1-0.1-0.3-0.4-0.2-0.5c0.5-0.7,0.9-1.4,1.4-2.1c2.2-3,4.6-6,5.8-9.6c0.3-0.8,0.4-1.6,0.4-2.5
		c0-0.7-0.7-1.2-1.4-0.9c-0.7,0.3-1.3,0.7-1.8,1.3c-1,1-1.9,2.1-2.6,3.3c-2.1,3.6-4.2,7.1-6.2,10.8c-0.8,1.5-1.4,3.1-2,4.7
		C89,61.3,89.4,61.7,89.5,62z M96.3,33.4c0-0.8,0.1-1.5,0-2.3c-0.5-3.9-1.3-4.5-5.1-3.9c-4.4,0.7-6.9,3.2-7.4,7.6
		c-0.1,0.7-0.1,1.3-0.1,2c-0.3,3.7,3.9,7.5,7.6,7c0.6-0.1,1.4-0.4,1.7-0.8C94.8,40.1,96.6,37.1,96.3,33.4z M54.3,33.8
		c-0.1,2.5,0.9,6.9,1.6,8.4c0.4,0.8,0.9,1.1,1.8,1.1c2.2-0.1,4-0.9,5.4-2.6c3.3-4,1-11.8-4-13.5c-0.4-0.1-0.7-0.2-1.1-0.3
		c-0.9-0.3-1.5,0.1-1.9,0.8C55,29.9,54.3,32.1,54.3,33.8z M69,63c1.7,0,2-0.1,2.6-1.6c0.7-1.8,1.1-3.8,1.6-5.7
		c0.2-1,0.8-2.1,0.2-3.2c-1,0.5-2.1,0.9-2.9,1.7c-1.5,1.4-3.1,2.8-4.2,4.6C64.9,60.9,66.3,63,69,63z M75.1,55.4
		c0.1,0.7,0,1.8,0.3,2.9c0.3,1.2,0.8,2.5,1.6,3.5c1.3,1.7,3.7,1.2,4.5-0.8c0.5-1.2,0.4-2.4-0.2-3.5c-0.8-1.7-2.1-3.1-3.7-4.2
		c-0.6-0.4-1.3-0.6-1.9-1c-0.2,0.7-0.3,1.3-0.5,2C75.1,54.6,75.2,54.8,75.1,55.4z"/>
	<path d="M50.9,47.7c-3.2-0.6-7.1-0.8-10.6-2.3c-1.4-0.6-2.6-1.5-3.4-2.9c-1-2,0.2-3.9,2.5-3.7c1.3,0.1,2.5,0.6,3.8,0.9
		c0.2,0.1,0.5-0.1,0.8-0.2c-0.1-0.2-0.1-0.4-0.2-0.5C43.5,38,43,37,42.8,36c-0.1-0.6-0.1-1.3,0.1-1.9c0.4-1.2,1.5-1.6,2.5-0.8
		c1.1,0.9,2.2,1.9,2.9,3c1.7,2.7,3.2,5.6,4.7,8.4c0,0.1,0.1,0.2,0.1,0.3C53.8,46.9,53.3,47.7,50.9,47.7z M39.7,39.5
		c0,0.1-0.1,0.2-0.1,0.3c-0.2,0-0.4,0-0.6,0c-1.2,0.1-1.7,0.8-1.2,1.9c0.6,1.4,1.8,2.1,3.1,2.7c3.3,1.4,6.7,1.8,10.2,2.2
		c0.8,0.1,1.1-0.3,0.8-1c-1.6-3.5-3.3-7-5.8-10c-0.3-0.4-0.6-0.7-1-1c-0.4-0.2-0.8-0.2-1.3-0.3c-0.1,0.4-0.3,1-0.2,1.3
		c0.7,1.6,1.6,3.2,2.4,4.8c0.3,0.5,0.7,0.9,1,1.4c0.1,0.1,0.1,0.5,0,0.5c-0.2,0.1-0.6,0.3-0.7,0.2c-0.7-0.3-1.3-0.8-2-1.1
		C42.9,40.7,41.3,40.1,39.7,39.5z"/>
	<path d="M56,61.8c-3.5-0.4-7.4-0.8-10.9-2.7c-1.8-1-2.9-2.4-3.7-4.1c-0.8-1.6-0.1-4.6,1.2-5.8c1.4-1.3,3.3-1.3,4.9,0
		c1.1,1,2.1,2.1,3.1,3.3c1.5,1.8,2.8,3.7,4.3,5.6c0.8,1,1.6,1.8,2.4,2.7c0.1,0.2,0.2,0.5,0.2,0.7c0,0.1-0.3,0.2-0.4,0.2
		C56.9,61.9,56.6,61.8,56,61.8z M53.1,60.3c0.3,0,0.5,0.1,0.6,0.1c0.3,0,0.7-0.1,1-0.2c-0.1-0.3-0.2-0.7-0.4-1
		c-1.9-2.5-3.9-5.1-5.9-7.6c-0.6-0.7-1.3-1.4-2.1-1.8c-1.1-0.7-2.7-0.4-3.3,0.5c-0.8,1.2-1.2,2.6-0.6,4c0.6,1.5,1.5,2.8,3,3.6
		C47.8,59.1,50.3,60.3,53.1,60.3z"/>
	<path d="M72,44.5c0.1,0.1,0.3,0.3,0.3,0.4c0.1,0.7,0,1.5,0.1,2.2c0.3,1.2,1.5,1.6,2.3,0.6c0.6-0.8,1-1.8,1.5-2.6
		c0.1-0.2,0.4-0.3,0.6-0.4c0.1,0.3,0.4,0.7,0.3,0.9c-0.4,0.9-0.8,1.9-1.4,2.7c-1.1,1.3-2.6,1.5-3.7,0.5c-1.1-0.9-1.3-2.7-0.5-4.1
		C71.6,44.6,71.8,44.6,72,44.5z"/>
	<path d="M75.9,22.7c-0.6,0.9-1.2,1.9-2.5,2.2c-1.6,0.4-2.8-0.6-2.5-2.3c0-0.2,0.3-0.4,0.5-0.6c0.2,0.1,0.4,0.3,0.5,0.5
		c0.1,0.2,0.1,0.6,0.3,0.8c0.5,0.8,1.2,1,1.8,0.3c0.4-0.4,0.6-1,0.9-1.4c0.1-0.2,0.5-0.2,0.7-0.3C75.7,22.1,75.8,22.4,75.9,22.7
		L75.9,22.7z"/>
</g>
</svg>
