<?xml version="1.0" encoding="utf-8"?>
<!-- Generator: Adobe Illustrator 19.1.0, SVG Export Plug-In . SVG Version: 6.00 Build 0)  -->
<svg version="1.1" id="Layer_1" xmlns="http://www.w3.org/2000/svg" xmlns:xlink="http://www.w3.org/1999/xlink" x="0px" y="0px"
	 viewBox="48 -48 160 160" style="enable-background:new 48 -48 160 160;" xml:space="preserve">
<metadata><?xpacket begin="﻿" id="W5M0MpCehiHzreSzNTczkc9d"?>
<x:xmpmeta xmlns:x="adobe:ns:meta/" x:xmptk="Adobe XMP Core 5.6-c067 79.157747, 2015/03/30-23:40:42        ">
   <rdf:RDF xmlns:rdf="http://www.w3.org/1999/02/22-rdf-syntax-ns#">
      <rdf:Description rdf:about=""/>
   </rdf:RDF>
</x:xmpmeta>
                                                                                                    
                                                                                                    
                                                                                                    
                                                                                                    
                                                                                                    
                                                                                                    
                                                                                                    
                                                                                                    
                                                                                                    
                                                                                                    
                                                                                                    
                                                                                                    
                                                                                                    
                                                                                                    
                                                                                                    
                                                                                                    
                                                                                                    
                                                                                                    
                                                                                                    
                                                                                                    
                           
<?xpacket end="w"?></metadata>
<style type="text/css">
	.st0{fill:#FFFFFF;}
	.st1{fill:#EC1B2E;}
</style>
<g id="Brewery_1_">
	<g>
		<g>
			<path class="st0" d="M205.8,89h-2.9V77.7c0-3.6-2.3-6.6-5.5-7.7v-81c0-6-4.9-10.9-10.9-10.9S175.6-17,175.6-11V8.6h-2.9
				c-4.5,0-8.1,3.7-8.1,8.1v27.7c0,1.6-1.3,2.9-2.9,2.9h-2.9V-11c0-6-4.9-10.9-10.9-10.9S137-17,137-11V8.6h-2.9
				c-4.5,0-8.1,3.7-8.1,8.1v27.7c0,1.6-1.3,2.9-2.9,2.9h-2.9V-11c0-5.1-3.5-9.4-8.3-10.6V-22c0-4.5-3.7-8.1-8.1-8.1H75.5
				c-4.5,0-8.1,3.7-8.1,8.1v33.4h-0.2c-3,0-5.4,2.4-5.4,5.4v6c-4.7,1.2-8.3,5.5-8.3,10.6V89h-2.9c-1.4,0-2.6,1.2-2.6,2.6
				c0,1.4,1.2,2.6,2.6,2.6h155.2c1.4,0,2.6-1.2,2.6-2.6C208.4,90.1,207.2,89,205.8,89L205.8,89z M197.6,89H189v-6.2
				c3.7-0.9,6.6-3.6,7.8-7.2c0.6,0.5,0.9,1.3,0.9,2.1L197.6,89L197.6,89z M176,75.6c1.2,3.5,4.1,6.3,7.8,7.2V89h-8.7V77.7
				C175.1,76.9,175.5,76.1,176,75.6L176,75.6z M192.1,72.2c0,3.2-2.6,5.7-5.7,5.7c-3.2,0-5.7-2.6-5.7-5.7v-8.5h11.4V72.2z M180.7-11
				c0-3.2,2.6-5.7,5.7-5.7c3.2,0,5.7,2.6,5.7,5.7v69.5h-11.4V-11z M161.4,52.6c4.5,0,8.1-3.7,8.1-8.1V16.8c0-1.6,1.3-2.9,2.9-2.9
				h2.9V70c-3.2,1.1-5.5,4.1-5.5,7.7V89H164V77.7c0-3.6-2.3-6.6-5.5-7.7V52.6H161.4z M137.2,75.6c1.2,3.5,4.1,6.3,7.8,7.2V89h-8.7
				V77.7C136.3,76.9,136.7,76.1,137.2,75.6L137.2,75.6z M153.3,72.2c0,3.2-2.6,5.7-5.7,5.7c-3.2,0-5.7-2.6-5.7-5.7v-8.5h11.4
				C153.3,63.7,153.3,72.2,153.3,72.2z M150.2,82.8c3.7-0.9,6.6-3.6,7.8-7.2c0.6,0.5,0.9,1.3,0.9,2.1V89h-8.7
				C150.2,89,150.2,82.8,150.2,82.8z M141.9-11c0-3.2,2.6-5.7,5.7-5.7c3.2,0,5.7,2.6,5.7,5.7v69.5h-11.4V-11z M122.6,52.6
				c4.5,0,8.1-3.7,8.1-8.1V16.8c0-1.6,1.3-2.9,2.9-2.9h2.9V70c-3.2,1.1-5.5,4.1-5.5,7.7V89h-5.9V77.7c0-3.6-2.3-6.6-5.5-7.7V52.6
				H122.6z M98.4,75.6c1.2,3.5,4.1,6.3,7.8,7.2V89h-8.7V77.7C97.5,76.9,97.9,76.1,98.4,75.6L98.4,75.6z M114.5,72.2
				c0,3.2-2.6,5.7-5.7,5.7c-3.2,0-5.7-2.6-5.7-5.7v-8.5h11.4V72.2z M111.4,82.8c3.7-0.9,6.6-3.6,7.8-7.2c0.6,0.5,0.9,1.3,0.9,2.1V89
				h-8.7C111.4,89,111.4,82.8,111.4,82.8z M114.5-11v69.5h-11.4V-11c0-3.2,2.6-5.7,5.7-5.7C111.9-16.7,114.5-14.1,114.5-11L114.5-11
				z M72.6-22c0-1.6,1.3-2.9,2.9-2.9h27.7c1.6,0,2.9,1.3,2.9,2.9v0.5c-4.8,1.2-8.3,5.5-8.3,10.6v81c-3.2,1.1-5.5,4.1-5.5,7.7V89
				h-5.9V33.4c0-5.1-3.5-9.4-8.3-10.6v-6c0-3-2.4-5.4-5.4-5.4h-0.2L72.6-22L72.6-22z M81.3,66.8H58.7v-28h22.5v28H81.3z M58.7,72
				h22.5v5.9H58.7V72z M67.2,16.6h5.5c0.1,0,0.2,0.1,0.2,0.2v5.7H67v-5.7C67.1,16.7,67.1,16.6,67.2,16.6L67.2,16.6z M64.5,27.7h11.1
				c3.2,0,5.7,2.6,5.7,5.7v0.2H58.7v-0.2C58.7,30.2,61.3,27.7,64.5,27.7L64.5,27.7z M58.7,83.1h22.5V89H58.7V83.1z"/>
		</g>
		<g>
			<g>
				<path id="XMLID_571_" class="st0" d="M147.6-3.6c-8,0-14.5,6.5-14.5,14.5s6.5,14.5,14.5,14.5s14.5-6.5,14.5-14.5
					C162,2.9,155.6-3.6,147.6-3.6z M155.8,19.9L155.8,19.9c-2.2,2-5,3.2-8.2,3.2s-6-1.2-8.2-3.2l4.2-4.2l1.2-1.2l0.3-4.4l-0.4-0.6
					V7.9h1v0.6h0.7V8h1v0.6h0.7V8h1v0.6h0.7V8h1v1.6l-0.4,0.6l0.3,4.4l1.2,1.2l3.7,3.7l-3.7-3.7c1.4-1.1,2.2-2.9,2.2-4.8
					c0-3.4-2.8-6.2-6.2-6.2s-6.2,2.8-6.2,6.2c0,1.9,0.9,3.6,2.2,4.8l-4.2,4.2c-2.4-2.2-4-5.4-4-9c0-6.7,5.5-12.2,12.2-12.2
					s12.2,5.5,12.2,12.2C159.8,14.5,158.2,17.7,155.8,19.9z"/>
				<path id="XMLID_568_" class="st0" d="M147.6,25.4c-8,0-14.5-6.5-14.5-14.5s6.5-14.5,14.5-14.5s14.5,6.5,14.5,14.5
					C162,18.9,155.6,25.4,147.6,25.4z"/>
				<g id="XMLID_564_">
					<path id="XMLID_566_" class="st1" d="M147.6-1.3c-6.7,0-12.2,5.5-12.2,12.2c0,3.6,1.5,6.8,4,9l4.2-4.2
						c-1.4-1.1-2.2-2.9-2.2-4.8c0-3.4,2.8-6.2,6.2-6.2s6.2,2.8,6.2,6.2c0,1.9-0.9,3.6-2.2,4.8l3.7,3.7l0.6,0.6c2.4-2.2,4-5.4,4-9
						C159.8,4.2,154.3-1.3,147.6-1.3z"/>
					<path id="XMLID_565_" d="M151.5,15.7l-1.2-1.2l-0.3-4.4l0.4-0.6V7.9h-1v0.6h-0.7V8h-1v0.6H147V8h-1v0.6h-0.7V8h-1v1.6l0.4,0.6
						l-0.3,4.4l-1.2,1.2L139,20c2.2,2,5,3.2,8.2,3.2s6-1.2,8.2-3.2l0,0l-0.6-0.6L151.5,15.7z"/>
				</g>
			</g>
		</g>
	</g>
</g>
</svg>
