<?xml version="1.0" encoding="utf-8"?>
<!-- Generator: Adobe Illustrator 19.1.0, SVG Export Plug-In . SVG Version: 6.00 Build 0)  -->
<svg version="1.1" xmlns="http://www.w3.org/2000/svg" xmlns:xlink="http://www.w3.org/1999/xlink" x="0px" y="0px"
	 viewBox="0 0 160 160" style="enable-background:new 0 0 160 160;" xml:space="preserve">
<metadata><?xpacket begin="﻿" id="W5M0MpCehiHzreSzNTczkc9d"?>
<x:xmpmeta xmlns:x="adobe:ns:meta/" x:xmptk="Adobe XMP Core 5.6-c067 79.157747, 2015/03/30-23:40:42        ">
   <rdf:RDF xmlns:rdf="http://www.w3.org/1999/02/22-rdf-syntax-ns#">
      <rdf:Description rdf:about=""
            xmlns:ExtensisFontSense="http://www.extensis.com/meta/FontSense/">
         <ExtensisFontSense:slug>
            <rdf:Bag>
               <rdf:li>
                  <rdf:Description>
                     <ExtensisFontSense:Family>Gotham XNarrow</ExtensisFontSense:Family>
                     <ExtensisFontSense:Version>2.200</ExtensisFontSense:Version>
                     <ExtensisFontSense:OutlineFileSize>0</ExtensisFontSense:OutlineFileSize>
                     <ExtensisFontSense:KerningChecksum>0</ExtensisFontSense:KerningChecksum>
                     <ExtensisFontSense:Foundry>--</ExtensisFontSense:Foundry>
                     <ExtensisFontSense:FontKind>OpenType - PS</ExtensisFontSense:FontKind>
                     <ExtensisFontSense:Checksum>3380058523</ExtensisFontSense:Checksum>
                     <ExtensisFontSense:PostScriptName>GothamXNarrow-Black</ExtensisFontSense:PostScriptName>
                     <ExtensisFontSense:FontSense_1.2_Checksum>3380058523</ExtensisFontSense:FontSense_1.2_Checksum>
                  </rdf:Description>
               </rdf:li>
            </rdf:Bag>
         </ExtensisFontSense:slug>
      </rdf:Description>
   </rdf:RDF>
</x:xmpmeta>
                                                                                                    
                                                                                                    
                                                                                                    
                                                                                                    
                                                                                                    
                                                                                                    
                                                                                                    
                                                                                                    
                                                                                                    
                                                                                                    
                                                                                                    
                                                                                                    
                                                                                                    
                                                                                                    
                                                                                                    
                                                                                                    
                                                                                                    
                                                                                                    
                                                                                                    
                                                                                                    
                           
<?xpacket end="w"?></metadata>
<style type="text/css">
	.st0{display:none;}
	.st1{display:inline;fill:#ED1B2F;}
	.st2{display:inline;}
	.st3{fill:none;stroke:#FFFFFF;stroke-width:6;stroke-miterlimit:10;}
	.st4{fill:#FFFFFF;}
	.st5{fill:#EC1B2E;}
	.st6{fill:none;stroke:#FFFFFF;stroke-width:6;stroke-linecap:round;stroke-linejoin:round;stroke-miterlimit:10;}
	.st7{fill:none;stroke:#FFFFFF;stroke-width:4;stroke-miterlimit:10;}
	.st8{fill:none;}
	.st9{fill:#231F20;}
	.st10{fill:none;stroke:#FFFFFF;stroke-width:6;stroke-linecap:round;stroke-miterlimit:10;}
	.st11{font-family:'GothamXNarrow-Black';}
	.st12{font-size:97.7329px;}
	.st13{letter-spacing:1;}
	.st14{fill:none;stroke:#FFFFFF;stroke-width:4;stroke-linecap:round;stroke-linejoin:round;stroke-miterlimit:10;}
	.st15{fill:none;stroke:#FFFFFF;stroke-width:6;stroke-linecap:round;stroke-linejoin:round;}
	.st16{fill:none;stroke:#FFFFFF;stroke-width:6;stroke-linecap:round;stroke-linejoin:round;stroke-dasharray:13.5711,13.5711;}
	.st17{fill:#FFFFFF;stroke:#FFFFFF;stroke-width:6;stroke-linejoin:round;stroke-miterlimit:10;}
	.st18{fill:#EA1E30;}
	.st19{fill:#FFFFFF;stroke:#FFFFFF;stroke-width:0.7946;stroke-miterlimit:10;}
	.st20{fill:#FFFFFF;stroke:#FFFFFF;stroke-width:1.5893;stroke-miterlimit:10;}
	.st21{fill:none;stroke:#FFFFFF;stroke-width:8;stroke-linecap:round;stroke-linejoin:round;stroke-miterlimit:10;}
	.st22{fill:none;stroke:#000000;stroke-width:6;stroke-linecap:round;stroke-linejoin:round;stroke-miterlimit:10;}
</style>
<g id="BG" class="st0">
	<rect class="st1" width="160" height="160"/>
</g>
<g id="Brewery" class="st0">
	<g class="st2">
		<g>
			<g>
				<rect x="143.1" y="45" class="st3" width="12.9" height="108.6"/>
				<path class="st3" d="M143.1,139.9"/>
				<path class="st3" d="M143.1,126.1c0-34.5-28-62.5-62.5-62.5S18,91.6,18,126.1v13.8"/>
				<polyline class="st3" points="143.1,45 18,45 18,153.5 5.1,153.5 5.1,45 18,45 				"/>
			</g>
			<g>
				<g>
					<path id="XMLID_1693_" class="st4" d="M80.5,33.1c-10.5,0-19,8.5-19,19c0,10.5,8.5,19,19,19c10.5,0,19-8.5,19-19
						C99.5,41.6,91,33.1,80.5,33.1z M91.3,63.9L91.3,63.9c-2.8,2.6-6.6,4.2-10.8,4.2s-7.9-1.6-10.8-4.2l5.6-5.6l1.6-1.6l0.3-5.7
						l-0.6-0.7l-0.1-2.1h1.3V49h0.9v-0.8H80V49H81v-0.8h1.3V49h0.9v-0.8h1.3l-0.1,2.1L83.8,51l0.3,5.7l1.6,1.6l4.8,4.8l-4.8-4.8
						c1.8-1.5,2.9-3.7,2.9-6.3c0-4.5-3.6-8.1-8.1-8.1c-4.5,0-8.1,3.6-8.1,8.1c0,2.5,1.1,4.8,2.9,6.3l-5.6,5.6
						c-3.2-2.9-5.2-7.1-5.2-11.8c0-8.8,7.2-16,16-16s16,7.2,16,16C96.5,56.8,94.5,61,91.3,63.9z"/>
					<path id="XMLID_1691_" class="st4" d="M80.5,71.1c-10.5,0-19-8.5-19-19c0-10.5,8.5-19,19-19c10.5,0,19,8.5,19,19
						C99.5,62.6,91,71.1,80.5,71.1z"/>
					<g id="XMLID_1688_">
						<path id="XMLID_1690_" class="st5" d="M80.5,36.1c-8.8,0-16,7.2-16,16c0,4.7,2,8.9,5.2,11.8l5.6-5.6c-1.8-1.5-2.9-3.7-2.9-6.3
							c0-4.5,3.6-8.1,8.1-8.1c4.5,0,8.1,3.6,8.1,8.1c0,2.5-1.1,4.8-2.9,6.3l4.8,4.8l0.7,0.7c3.2-2.9,5.2-7.1,5.2-11.8
							C96.5,43.2,89.4,36.1,80.5,36.1z"/>
						<path id="XMLID_1689_" d="M85.7,58.3l-1.6-1.6L83.8,51l0.6-0.7l0.1-2.1h-1.3V49h-0.9v-0.8H81V49H80v-0.8h-1.3V49h-0.9v-0.8
							h-1.3l0.1,2.1l0.6,0.7l-0.3,5.7l-1.6,1.6l-5.6,5.6c2.8,2.6,6.6,4.2,10.8,4.2s7.9-1.6,10.8-4.2l0,0l-0.7-0.7L85.7,58.3z"/>
					</g>
				</g>
			</g>
			<g>
				<path class="st4" d="M71.4,138.1c-3.8,0-6.9,0.7-6.9,1.5v4.3c0,0.4,0.7,0.7,1.8,1c-1.1,0.3-1.8,0.6-1.8,1v4.3
					c0,0.4,0.7,0.7,1.8,1c-1.1,0.3-1.8,0.6-1.8,1v4.3c0,0.8,3.1,1.5,6.9,1.5c3.8,0,6.9-0.7,6.9-1.5v-4.3v0c0-0.4-0.7-0.7-1.8-1
					c1.1-0.3,1.8-0.6,1.8-1v-4.3v0c0-0.4-0.7-0.7-1.8-1c1.1-0.3,1.8-0.6,1.8-1v-4.3v0C78.3,138.8,75.2,138.1,71.4,138.1z"/>
				<path class="st4" d="M88.4,138.1c-3.8,0-6.9,0.7-6.9,1.5v4.3c0,0.4,0.7,0.7,1.8,1c-1.1,0.3-1.8,0.6-1.8,1v4.3
					c0,0.4,0.7,0.7,1.8,1c-1.1,0.3-1.8,0.6-1.8,1v4.3c0,0.8,3.1,1.5,6.9,1.5c3.8,0,6.9-0.7,6.9-1.5v-4.3v0c0-0.4-0.7-0.7-1.8-1
					c1.1-0.3,1.8-0.6,1.8-1v-4.3v0c0-0.4-0.7-0.7-1.8-1c1.1-0.3,1.8-0.6,1.8-1v-4.3v0C95.2,138.8,92.2,138.1,88.4,138.1z"/>
				<path class="st4" d="M105.3,138.1c-3.8,0-6.9,0.7-6.9,1.5v4.3c0,0.4,0.7,0.7,1.8,1c-1.1,0.3-1.8,0.6-1.8,1v4.3
					c0,0.4,0.7,0.7,1.8,1c-1.1,0.3-1.8,0.6-1.8,1v4.3c0,0.8,3.1,1.5,6.9,1.5c3.8,0,6.9-0.7,6.9-1.5v-4.3v0c0-0.4-0.7-0.7-1.8-1
					c1.1-0.3,1.8-0.6,1.8-1v-4.3v0c0-0.4-0.7-0.7-1.8-1c1.1-0.3,1.8-0.6,1.8-1v-4.3v0C112.2,138.8,109.1,138.1,105.3,138.1z"/>
				<path class="st4" d="M122.3,138.1c-3.8,0-6.9,0.7-6.9,1.5v4.3c0,0.4,0.7,0.7,1.8,1c-1.1,0.3-1.8,0.6-1.8,1v4.3
					c0,0.4,0.7,0.7,1.8,1c-1.1,0.3-1.8,0.6-1.8,1v4.3c0,0.8,3.1,1.5,6.9,1.5c3.8,0,6.9-0.7,6.9-1.5v-4.3v0c0-0.4-0.7-0.7-1.8-1
					c1.1-0.3,1.8-0.6,1.8-1v-4.3v0c0-0.4-0.7-0.7-1.8-1c1.1-0.3,1.8-0.6,1.8-1v-4.3v0C129.2,138.8,126.1,138.1,122.3,138.1z"/>
			</g>
			<g>
				<path class="st4" d="M71.4,116.6c-3.8,0-6.9,0.7-6.9,1.5v4.3c0,0.4,0.7,0.7,1.8,1c-1.1,0.3-1.8,0.6-1.8,1v4.3
					c0,0.4,0.7,0.7,1.8,1c-1.1,0.3-1.8,0.6-1.8,1v4.3c0,0.8,3.1,1.5,6.9,1.5c3.8,0,6.9-0.7,6.9-1.5v-4.3v0c0-0.4-0.7-0.7-1.8-1
					c1.1-0.3,1.8-0.6,1.8-1v-4.3v0c0-0.4-0.7-0.7-1.8-1c1.1-0.3,1.8-0.6,1.8-1v-4.3v0C78.3,117.2,75.2,116.6,71.4,116.6z"/>
				<path class="st4" d="M88.4,116.6c-3.8,0-6.9,0.7-6.9,1.5v4.3c0,0.4,0.7,0.7,1.8,1c-1.1,0.3-1.8,0.6-1.8,1v4.3
					c0,0.4,0.7,0.7,1.8,1c-1.1,0.3-1.8,0.6-1.8,1v4.3c0,0.8,3.1,1.5,6.9,1.5c3.8,0,6.9-0.7,6.9-1.5v-4.3v0c0-0.4-0.7-0.7-1.8-1
					c1.1-0.3,1.8-0.6,1.8-1v-4.3v0c0-0.4-0.7-0.7-1.8-1c1.1-0.3,1.8-0.6,1.8-1v-4.3v0C95.2,117.2,92.2,116.6,88.4,116.6z"/>
				<path class="st4" d="M105.3,116.6c-3.8,0-6.9,0.7-6.9,1.5v4.3c0,0.4,0.7,0.7,1.8,1c-1.1,0.3-1.8,0.6-1.8,1v4.3
					c0,0.4,0.7,0.7,1.8,1c-1.1,0.3-1.8,0.6-1.8,1v4.3c0,0.8,3.1,1.5,6.9,1.5c3.8,0,6.9-0.7,6.9-1.5v-4.3v0c0-0.4-0.7-0.7-1.8-1
					c1.1-0.3,1.8-0.6,1.8-1v-4.3v0c0-0.4-0.7-0.7-1.8-1c1.1-0.3,1.8-0.6,1.8-1v-4.3v0C112.2,117.2,109.1,116.6,105.3,116.6z"/>
				<path class="st4" d="M122.3,116.6c-3.8,0-6.9,0.7-6.9,1.5v4.3c0,0.4,0.7,0.7,1.8,1c-1.1,0.3-1.8,0.6-1.8,1v4.3
					c0,0.4,0.7,0.7,1.8,1c-1.1,0.3-1.8,0.6-1.8,1v4.3c0,0.8,3.1,1.5,6.9,1.5c3.8,0,6.9-0.7,6.9-1.5v-4.3v0c0-0.4-0.7-0.7-1.8-1
					c1.1-0.3,1.8-0.6,1.8-1v-4.3v0c0-0.4-0.7-0.7-1.8-1c1.1-0.3,1.8-0.6,1.8-1v-4.3v0C129.2,117.2,126.1,116.6,122.3,116.6z"/>
			</g>
			<g>
				<path class="st4" d="M71.4,95.1c-3.8,0-6.9,0.7-6.9,1.5v4.3c0,0.4,0.7,0.7,1.8,1c-1.1,0.3-1.8,0.6-1.8,1v4.3
					c0,0.4,0.7,0.7,1.8,1c-1.1,0.3-1.8,0.6-1.8,1v4.3c0,0.8,3.1,1.5,6.9,1.5c3.8,0,6.9-0.7,6.9-1.5v-4.3v0c0-0.4-0.7-0.7-1.8-1
					c1.1-0.3,1.8-0.6,1.8-1v-4.3v0c0-0.4-0.7-0.7-1.8-1c1.1-0.3,1.8-0.6,1.8-1v-4.3v0C78.3,95.7,75.2,95.1,71.4,95.1z"/>
				<path class="st4" d="M88.4,95.1c-3.8,0-6.9,0.7-6.9,1.5v4.3c0,0.4,0.7,0.7,1.8,1c-1.1,0.3-1.8,0.6-1.8,1v4.3
					c0,0.4,0.7,0.7,1.8,1c-1.1,0.3-1.8,0.6-1.8,1v4.3c0,0.8,3.1,1.5,6.9,1.5c3.8,0,6.9-0.7,6.9-1.5v-4.3v0c0-0.4-0.7-0.7-1.8-1
					c1.1-0.3,1.8-0.6,1.8-1v-4.3v0c0-0.4-0.7-0.7-1.8-1c1.1-0.3,1.8-0.6,1.8-1v-4.3v0C95.2,95.7,92.2,95.1,88.4,95.1z"/>
			</g>
		</g>
	</g>
</g>
<g id="News__x26__Events" class="st0">
	<g class="st2">
		<g>
			<line class="st6" x1="44.4" y1="99.7" x2="83.7" y2="94"/>
			<line class="st6" x1="39.3" y1="110.1" x2="85.1" y2="103.5"/>
			<line class="st6" x1="40.7" y1="119.6" x2="86.5" y2="113"/>
			<line class="st6" x1="48.5" y1="128.1" x2="87.8" y2="122.4"/>
		</g>
		<g>
			<g>
				<path id="XMLID_226_" class="st4" d="M90.5,89.3c-9.9,1.4-16.8,10.6-15.3,20.5c1.4,9.9,10.6,16.8,20.5,15.3
					c9.9-1.4,16.8-10.6,15.3-20.5C109.5,94.7,100.4,87.8,90.5,89.3z M104.8,116.9L104.8,116.9c-2.3,2.8-5.7,4.8-9.6,5.4
					c-3.9,0.6-7.7-0.4-10.7-2.5l4.5-6l1.3-1.7l-0.5-5.4l-0.7-0.6l-0.3-2l1.2-0.2l0.1,0.7l0.9-0.1l-0.1-0.7l1.2-0.2l0.1,0.7l0.9-0.1
					l-0.1-0.7l1.2-0.2l0.1,0.7l0.9-0.1l-0.1-0.7l1.2-0.2l0.2,2l-0.5,0.8l1.1,5.3l1.7,1.3l5.2,3.9l-5.2-3.9c1.5-1.7,2.3-3.9,1.9-6.3
					c-0.6-4.2-4.5-7.2-8.8-6.6c-4.2,0.6-7.2,4.5-6.6,8.8c0.3,2.4,1.7,4.3,3.6,5.5l-4.5,6c-3.4-2.3-5.9-6-6.5-10.4
					c-1.2-8.3,4.6-16.1,12.9-17.3c8.3-1.2,16.1,4.6,17.3,12.9C108.8,109.4,107.4,113.7,104.8,116.9z"/>
				<path id="XMLID_200_" class="st4" d="M95.6,125.1c-9.9,1.4-19.1-5.4-20.5-15.3c-1.4-9.9,5.4-19.1,15.3-20.5
					c9.9-1.4,19.1,5.4,20.5,15.3C112.4,114.5,105.5,123.7,95.6,125.1z"/>
				<g id="XMLID_29_">
					<path id="XMLID_199_" class="st5" d="M90.9,92.1c-8.3,1.2-14.1,8.9-12.9,17.3c0.6,4.4,3.1,8.1,6.5,10.4l4.5-6
						c-1.9-1.2-3.3-3.1-3.6-5.5c-0.6-4.2,2.3-8.2,6.6-8.8c4.2-0.6,8.2,2.3,8.8,6.6c0.3,2.4-0.4,4.7-1.9,6.3l5.2,3.9l0.8,0.6
						c2.6-3.2,4-7.4,3.3-11.9C106.9,96.7,99.2,90.9,90.9,92.1z"/>
					<path id="XMLID_189_" d="M98.8,112.4l-1.7-1.3l-1.1-5.3l0.5-0.8l-0.2-2l-1.2,0.2l0.1,0.7l-0.9,0.1l-0.1-0.7l-1.2,0.2l0.1,0.7
						l-0.9,0.1l-0.1-0.7l-1.2,0.2l0.1,0.7l-0.9,0.1l-0.1-0.7l-1.2,0.2l0.3,2l0.7,0.6l0.5,5.4l-1.3,1.7l-4.5,6c3,2,6.8,3,10.7,2.5
						s7.2-2.6,9.6-5.4l0,0l-0.8-0.6L98.8,112.4z"/>
				</g>
			</g>
		</g>
		<path class="st3" d="M31.9,152.5l94-13.6c3.3-0.5,5.6-3.5,5.1-6.8L122.4,73c-0.5-3.3-3.5-5.6-6.8-5.1l-94,13.6
			c-3.3,0.5-5.6,3.5-5.1,6.8l8.5,59.1C25.6,150.7,28.6,153,31.9,152.5z"/>
		<path class="st3" d="M48.1,150.2l86.9-12.6c5.2-0.8,8.9-5.6,8.1-10.9l-7.5-52c-0.8-5.2-5.6-8.9-10.9-8.1L37.8,79.2"/>
		<path class="st4" d="M50.3,149.9c0.7,4.6-1.1,8.6-3.9,9s-5.6-3-6.3-7.5"/>
		<path class="st4" d="M116,140.4c0.7,4.6-1.1,8.6-3.9,9c-2.8,0.4-5.6-3-6.3-7.5"/>
		<g>
			<g>
				<path class="st4" d="M136.9,137.4c0.7,4.6-1.1,8.6-3.9,9s-5.6-3-6.3-7.5"/>
			</g>
		</g>
		<polyline class="st6" points="100,70.2 82.2,53.3 109.1,49.8 89.6,28.6 		"/>
		<circle class="st4" cx="89.6" cy="28.6" r="6.1"/>
		<line class="st6" x1="77.8" y1="36.5" x2="69.7" y2="42"/>
		<line class="st6" x1="75.9" y1="22.5" x2="64.2" y2="18.4"/>
		<line class="st6" x1="109.1" y1="11.5" x2="99.4" y2="19.5"/>
		<line class="st6" x1="86.5" y1="15" x2="85.1" y2="4"/>
	</g>
</g>
<g id="Beer_Team" class="st0">
	<g class="st2">
		<g>
			<g>
				<g id="XMLID_1611_">
					<path class="st4" d="M56.6,69.3c-8.4-3.8-18.3,0-22.1,8.5c-3.8,8.4,0,18.3,8.5,22.1c8.4,3.8,18.3,0,22.1-8.5
						C68.8,82.9,65,73,56.6,69.3z M54.2,97.9L54.2,97.9c-3.2,1.1-6.8,1-10.1-0.5c-3.3-1.5-5.8-4.1-7.2-7.2l6.5-2.5l1.8-0.7l2.3-4.5
						l-0.2-0.8L48,80l1,0.4l-0.3,0.6l0.8,0.3l0.3-0.6l1,0.4l-0.3,0.6l0.8,0.3l0.3-0.6l1,0.4l-0.3,0.6L53,83l0.3-0.6l1,0.4l-0.8,1.7
						l-0.7,0.4L51,89.6l0.7,1.8l2.2,5.6l-2.2-5.6c2-0.6,3.7-2,4.6-4c1.6-3.6,0-7.8-3.6-9.4s-7.8,0-9.4,3.6c-0.9,2-0.8,4.2,0.1,6.1
						l-6.5,2.5c-1.5-3.5-1.7-7.6,0-11.4c3.2-7.1,11.5-10.3,18.6-7.1c7.1,3.2,10.3,11.5,7.1,18.6C61,94,57.8,96.7,54.2,97.9z"/>
				</g>
				<g id="XMLID_1609_">
					<path class="st4" d="M43,99.8c-8.4-3.8-12.2-13.6-8.5-22.1c3.8-8.4,13.6-12.2,22.1-8.5C65,73,68.8,82.9,65.1,91.3
						C61.3,99.8,51.4,103.6,43,99.8z"/>
				</g>
				<g id="XMLID_1606_">
					<g id="XMLID_1608_">
						<path class="st5" d="M55.5,71.7c-7.1-3.2-15.4,0-18.6,7.1c-1.7,3.8-1.6,7.9,0,11.4l6.5-2.5c-0.9-1.8-1-4.1-0.1-6.1
							c1.6-3.6,5.8-5.2,9.4-3.6c3.6,1.6,5.2,5.8,3.6,9.4c-0.9,2-2.6,3.4-4.6,4l2.2,5.6l0.3,0.9c3.6-1.2,6.8-3.9,8.4-7.6
							C65.8,83.2,62.6,74.9,55.5,71.7z"/>
					</g>
					<g id="XMLID_1607_">
						<path d="M51.7,91.4L51,89.6l1.8-4.7l0.7-0.4l0.8-1.7l-1-0.4L53,83l-0.8-0.3l0.3-0.6l-1-0.4l-0.3,0.6l-0.8-0.3l0.3-0.6l-1-0.4
							l-0.3,0.6l-0.8-0.3l0.3-0.6L48,80l-0.7,1.7l0.2,0.8L45.2,87l-1.8,0.7l-6.5,2.5c1.4,3.1,3.8,5.7,7.2,7.2
							c3.3,1.5,6.9,1.6,10.1,0.5l0,0L53.9,97L51.7,91.4z"/>
					</g>
				</g>
			</g>
		</g>
		<g>
			<g>
				<path class="st4" d="M48.5,135.3c0.4,6.3-4.4,11.7-10.7,12s-11.7-4.4-12-10.7"/>
				<path class="st4" d="M102.7,132c0.4,6.3-4.4,11.7-10.7,12c-6.3,0.4-11.7-4.4-12-10.7"/>
				<path class="st4" d="M142.5,129.6c0.4,6.3-4.4,11.7-10.7,12s-11.7-4.4-12-10.7"/>
				<circle class="st7" cx="117.7" cy="115.5" r="4.1"/>
				<circle class="st7" cx="138.4" cy="114.2" r="4.1"/>
				<path class="st3" d="M122.9,101.5c-0.3-5,3.5-9.4,8.5-9.7s9.4,3.5,9.7,8.5"/>
				<path class="st3" d="M148.7,129.2l-125.2,7.7c-4.3,0.3-8.1-3.1-8.3-7.4L10.6,55c-0.3-4.3,3.1-8.1,7.4-8.3L143.2,39
					c4.3-0.3,8.1,3.1,8.3,7.4l4.6,74.5C156.3,125.2,153,128.9,148.7,129.2z"/>
				<line class="st3" x1="97.2" y1="41.8" x2="102.7" y2="132"/>
				<line class="st3" x1="87" y1="103.6" x2="154.7" y2="99.4"/>
				<line class="st3" x1="125.6" y1="40.1" x2="128.8" y2="92"/>
				<line class="st3" x1="83.3" y1="42.6" x2="88.8" y2="132.9"/>
			</g>
			<line class="st6" x1="32.5" y1="45.7" x2="19.5" y2="34.1"/>
		</g>
		<circle class="st4" cx="1.9" cy="131.4" r="1.8"/>
		<circle class="st4" cx="3.8" cy="138.8" r="1.8"/>
		<circle class="st4" cx="13" cy="138.8" r="1.8"/>
		<circle class="st4" cx="8.4" cy="143.5" r="1.8"/>
		<circle class="st4" cx="8.4" cy="134.2" r="1.8"/>
	</g>
</g>
<g id="How_we_brew" class="st0">
	<g class="st2">
		<line class="st6" x1="3.2" y1="154.8" x2="156.1" y2="154.8"/>
		<g>
			<line class="st6" x1="16.1" y1="48.8" x2="16.1" y2="138.5"/>
			<line class="st6" x1="142.2" y1="103.8" x2="142.2" y2="138.5"/>
			<line class="st6" x1="142.2" y1="50" x2="142.2" y2="88.6"/>
			<circle class="st6" cx="142.2" cy="96.2" r="7.6"/>
		</g>
		<g>
			<circle class="st8" cx="142.2" cy="41.7" r="4.4"/>
			<path class="st4" d="M142.3,33.5H15.9c-4.5,0-8.2,3.7-8.2,8.2c0,4.5,3.7,8.2,8.2,8.2h126.4c4.5,0,8.2-3.7,8.2-8.2
				C150.5,37.2,146.8,33.5,142.3,33.5z M16.1,46.1c-2.4,0-4.4-2-4.4-4.4c0-2.4,2-4.4,4.4-4.4s4.4,2,4.4,4.4
				C20.5,44.1,18.5,46.1,16.1,46.1z M142.2,46.1c-2.4,0-4.4-2-4.4-4.4c0-2.4,2-4.4,4.4-4.4s4.4,2,4.4,4.4
				C146.6,44.1,144.6,46.1,142.2,46.1z"/>
		</g>
		<g>
			<path class="st3" d="M102.5,116.9l-55.9,38H31.7l36-121.7c4.1-10.8,19.4-10.8,23.5,0l36,121.7h-14.9l-56.2-38"/>
		</g>
		<line class="st3" x1="60.2" y1="106.5" x2="98.8" y2="106.5"/>
		<path class="st6" d="M46.7,154.4l25.5-88.9c2.6-6.8,12.3-6.8,14.9,0l25.5,88.9"/>
		<g>
			<path class="st6" d="M8.5,154.2l0-11.6c0-2.2,1.8-4,4-4h7.1c2.2,0,4,1.8,4,4v11.6"/>
			<path class="st6" d="M134.6,154.2v-11.6c0-2.2,1.8-4,4-4h7.1c2.2,0,4,1.8,4,4v11.6"/>
		</g>
		<g>
			<g>
				<g>
					<path id="XMLID_727_" class="st4" d="M79.6,14.9c-13.2,0-23.9,10.7-23.9,23.9c0,13.2,10.7,23.9,23.9,23.9
						c13.2,0,23.9-10.7,23.9-23.9C103.5,25.6,92.8,14.9,79.6,14.9z M93.2,53.7L93.2,53.7c-3.6,3.3-8.3,5.2-13.5,5.2
						c-5.2,0-10-2-13.5-5.2l7-7l2-2l0.4-7.2l-0.7-0.9l-0.1-2.6h1.6v1h1.2v-1H79v1h1.2v-1h1.6v1H83v-1h1.6l-0.1,2.6l-0.7,0.9l0.4,7.2
						l2,2l6.1,6.1l-6.1-6.1c2.3-1.9,3.7-4.7,3.7-7.9c0-5.6-4.6-10.2-10.2-10.2c-5.6,0-10.2,4.6-10.2,10.2c0,3.2,1.4,6,3.7,7.9l-7,7
						c-4-3.7-6.6-9-6.6-14.9c0-11.1,9-20.1,20.1-20.1s20.1,9,20.1,20.1C99.7,44.7,97.2,50,93.2,53.7z"/>
					<path id="XMLID_719_" class="st4" d="M79.6,62.7c-13.2,0-23.9-10.7-23.9-23.9c0-13.2,10.7-23.9,23.9-23.9
						c13.2,0,23.9,10.7,23.9,23.9C103.5,52,92.8,62.7,79.6,62.7z"/>
					<g id="XMLID_707_">
						<path id="XMLID_718_" class="st5" d="M79.6,18.7c-11.1,0-20.1,9-20.1,20.1c0,5.9,2.5,11.2,6.6,14.9l7-7
							c-2.3-1.9-3.7-4.7-3.7-7.9c0-5.6,4.6-10.2,10.2-10.2c5.6,0,10.2,4.6,10.2,10.2c0,3.2-1.4,6-3.7,7.9l6.1,6.1l0.9,0.9
							c4-3.7,6.6-9,6.6-14.9C99.7,27.7,90.7,18.7,79.6,18.7z"/>
						<path id="XMLID_708_" d="M86.1,46.7l-2-2l-0.4-7.2l0.7-0.9l0.1-2.6H83v1h-1.2v-1h-1.6v1H79v-1h-1.6v1h-1.2v-1h-1.6l0.1,2.6
							l0.7,0.9l-0.4,7.2l-2,2l-7,7c3.6,3.3,8.3,5.2,13.5,5.2c5.2,0,10-2,13.5-5.2l0,0l-0.9-0.9L86.1,46.7z"/>
					</g>
				</g>
			</g>
		</g>
	</g>
</g>
<g id="Stockists" class="st0">
	<g class="st2">
		<g>
			<g>
				<path id="XMLID_964_" class="st4" d="M106.9,41.5c-6.4,0-11.6,5.2-11.6,11.6c0,6.4,5.2,11.6,11.6,11.6c6.4,0,11.6-5.2,11.6-11.6
					C118.5,46.7,113.3,41.5,106.9,41.5z M113.5,60.4L113.5,60.4c-1.7,1.6-4,2.5-6.6,2.5c-2.5,0-4.8-1-6.6-2.5l3.4-3.4l1-1l0.2-3.5
					l-0.4-0.5l0-1.3h0.8v0.5h0.6v-0.5h0.8v0.5h0.6v-0.5h0.8v0.5h0.6v-0.5h0.8l0,1.3l-0.4,0.5l0.2,3.5l1,1l3,3l-3-3
					c1.1-0.9,1.8-2.3,1.8-3.8c0-2.7-2.2-5-5-5c-2.7,0-5,2.2-5,5c0,1.5,0.7,2.9,1.8,3.8l-3.4,3.4c-2-1.8-3.2-4.4-3.2-7.2
					c0-5.4,4.4-9.8,9.8-9.8s9.8,4.4,9.8,9.8C116.7,56,115.4,58.6,113.5,60.4z"/>
				<path id="XMLID_907_" class="st4" d="M106.9,64.8c-6.4,0-11.6-5.2-11.6-11.6c0-6.4,5.2-11.6,11.6-11.6c6.4,0,11.6,5.2,11.6,11.6
					C118.5,59.6,113.3,64.8,106.9,64.8z"/>
				<g id="XMLID_886_">
					<path id="XMLID_894_" class="st5" d="M106.9,43.3c-5.4,0-9.8,4.4-9.8,9.8c0,2.9,1.2,5.5,3.2,7.2l3.4-3.4
						c-1.1-0.9-1.8-2.3-1.8-3.8c0-2.7,2.2-5,5-5c2.7,0,5,2.2,5,5c0,1.5-0.7,2.9-1.8,3.8l3,3l0.5,0.5c2-1.8,3.2-4.4,3.2-7.2
						C116.7,47.7,112.3,43.3,106.9,43.3z"/>
					<path id="XMLID_887_" d="M110,57l-1-1l-0.2-3.5l0.4-0.5l0-1.3h-0.8v0.5h-0.6v-0.5h-0.8v0.5h-0.6v-0.5h-0.8v0.5h-0.6v-0.5h-0.8
						l0,1.3l0.4,0.5l-0.2,3.5l-1,1l-3.4,3.4c1.7,1.6,4,2.5,6.6,2.5c2.5,0,4.8-1,6.6-2.5l0,0l-0.5-0.5L110,57z"/>
				</g>
			</g>
		</g>
		<path class="st4" d="M105.3,119.4"/>
		<g>
			<path class="st6" d="M81.3,30.4V11.7c0-1.3,1-2.3,2.3-2.3h46.8c1.3,0,2.3,1,2.3,2.3v18.7c0,1.3-1,2.3-2.3,2.3H83.6
				C82.3,32.8,81.3,31.7,81.3,30.4z"/>
			<path class="st6" d="M115.6,120.3l-29-27.4c-0.5-0.4-0.7-1.1-0.7-1.7V35.1c0-1.3,1-2.3,2.3-2.3h37.4c1.3,0,2.3,1,2.3,2.3v38.7
				l17.3,16.6c4,4,6.2,9.3,6.2,14.9c0,5.6-2.2,10.9-6.2,14.9c-3.9,3.9-9.2,6.1-15,6.1h0l0,0C124.7,126.3,119.5,124.1,115.6,120.3z"
				/>
		</g>
		<g>
			<g>
				<path id="XMLID_871_" class="st4" d="M37.2,78.7c-6.2,1.9-9.6,8.3-7.8,14.5c1.9,6.1,8.3,9.6,14.5,7.8c6.1-1.9,9.6-8.3,7.8-14.5
					C49.9,80.3,43.4,76.8,37.2,78.7z M49,94.9L49,94.9c-1.2,2-3.1,3.6-5.6,4.3c-2.4,0.7-4.9,0.5-7-0.5l2.3-4.3l0.6-1.2l-0.8-3.4
					L38,89.5l-0.4-1.2l0.7-0.2l0.1,0.4l0.6-0.2l-0.1-0.4l0.7-0.2l0.1,0.4l0.6-0.2l-0.1-0.4l0.7-0.2l0.1,0.4l0.6-0.2l-0.1-0.4
					l0.7-0.2l0.3,1.2l-0.2,0.5l1.2,3.3l1.2,0.6l3.7,2l-3.7-2c0.8-1.2,1.1-2.7,0.6-4.2c-0.8-2.6-3.6-4.1-6.2-3.3s-4.1,3.6-3.3,6.2
					c0.4,1.5,1.5,2.6,2.8,3.1l-2.3,4.3c-2.4-1.1-4.3-3.3-5.2-6c-1.6-5.2,1.4-10.6,6.6-12.2s10.6,1.4,12.2,6.6
					C50.8,89.8,50.3,92.6,49,94.9z"/>
				<path id="XMLID_826_" class="st4" d="M43.9,101c-6.2,1.9-12.6-1.6-14.5-7.8c-1.9-6.2,1.6-12.6,7.8-14.5
					c6.1-1.9,12.6,1.6,14.5,7.8C53.6,92.6,50.1,99.1,43.9,101z"/>
				<g id="XMLID_798_">
					<path id="XMLID_800_" class="st5" d="M37.7,80.4c-5.2,1.6-8.1,7-6.6,12.2c0.8,2.7,2.8,4.9,5.2,6l2.3-4.3
						c-1.3-0.6-2.4-1.7-2.8-3.1c-0.8-2.6,0.7-5.4,3.3-6.2c2.6-0.8,5.4,0.7,6.2,3.3c0.4,1.5,0.2,3-0.6,4.2l3.7,2l0.6,0.3
						c1.4-2.3,1.8-5.1,1-7.9C48.4,81.8,42.9,78.9,37.7,80.4z"/>
					<path id="XMLID_799_" d="M44.7,92.6l-1.2-0.6l-1.2-3.3l0.2-0.5l-0.3-1.2l-0.7,0.2l0.1,0.4L41,87.7l-0.1-0.4l-0.7,0.2l0.1,0.4
						l-0.6,0.2l-0.1-0.4l-0.7,0.2l0.1,0.4l-0.6,0.2L38.3,88l-0.7,0.2l0.4,1.2l0.5,0.3l0.8,3.4l-0.6,1.2l-2.3,4.3
						c2.1,1,4.6,1.3,7,0.5c2.4-0.7,4.4-2.3,5.6-4.3l0,0l-0.6-0.3L44.7,92.6z"/>
				</g>
			</g>
		</g>
		<path class="st4" d="M58.1,153.7"/>
		<g>
			<path class="st6" d="M9.5,75.5L4.1,57.5c-0.4-1.2,0.3-2.5,1.6-2.9l44.8-13.5c1.2-0.4,2.5,0.3,2.9,1.6l5.4,17.9
				c0.4,1.2-0.3,2.5-1.6,2.9L12.4,77C11.2,77.4,9.9,76.7,9.5,75.5z"/>
			<path class="st6" d="M68.3,151.6l-35.6-17.8c-0.6-0.3-1-0.8-1.2-1.4L15.3,78.6c-0.4-1.2,0.3-2.5,1.6-2.9l35.8-10.8
				c1.2-0.4,2.5,0.3,2.9,1.6l11.2,37.1l21.4,10.9c4.9,2.7,8.6,7.1,10.2,12.5c1.6,5.4,1,11.1-1.6,16c-2.6,4.9-7.1,8.5-12.6,10.1l0,0
				l0,0C78.7,154.7,73.1,154.2,68.3,151.6z"/>
		</g>
	</g>
</g>
<g id="Newsletter" class="st0">
	<g class="st2">
		<g>
			<g>
				<g id="XMLID_1641_">
					<path class="st4" d="M82.6,67.5C65.1,62.7,47,72.9,42.1,90.4c-4.9,17.5,5.3,35.6,22.8,40.5c17.5,4.9,35.6-5.3,40.5-22.8
						C110.3,90.6,100.1,72.4,82.6,67.5z M86.2,124L86.2,124c-5.9,3-13,3.9-19.9,1.9c-6.9-1.9-12.5-6.3-16-11.9l11.9-6.7l3.4-1.9
						l3.2-9.4l-0.6-1.5L69,91l2.1,0.6l-0.4,1.3l1.6,0.4l0.4-1.3l2.1,0.6l-0.4,1.3l1.6,0.4l0.4-1.3l2.1,0.6l-0.4,1.3l1.6,0.4L80,94
						l2.1,0.6L81,98.1l-1.3,1l-2.1,9.7l1.9,3.4l5.8,10.3l-5.8-10.3c3.7-1.7,6.7-4.9,7.8-9.1c2.1-7.5-2.3-15.3-9.8-17.3
						c-7.5-2.1-15.3,2.3-17.3,9.8c-1.2,4.2-0.3,8.5,2,11.8L50.3,114c-4-6.4-5.4-14.4-3.2-22.2c4.1-14.7,19.4-23.3,34.1-19.2
						c14.7,4.1,23.3,19.4,19.2,34.1C98.2,114.5,92.9,120.6,86.2,124z"/>
				</g>
				<g id="XMLID_1639_">
					<g id="XMLID_1640_">
						<path class="st4" d="M82.6,67.5C65.1,62.7,47,72.9,42.1,90.4c-4.9,17.5,5.3,35.6,22.8,40.5c17.5,4.9,35.6-5.3,40.5-22.8
							C110.3,90.6,100.1,72.4,82.6,67.5z"/>
					</g>
				</g>
				<g id="XMLID_1636_">
					<g id="XMLID_1638_">
						<path class="st5" d="M81.2,72.6c-14.7-4.1-30,4.5-34.1,19.2c-2.2,7.8-0.8,15.8,3.2,22.2l11.9-6.7c-2.3-3.3-3.2-7.6-2-11.8
							c2.1-7.5,9.9-11.9,17.3-9.8c7.5,2.1,11.9,9.9,9.8,17.3c-1.2,4.2-4.1,7.4-7.8,9.1l5.8,10.3l0.9,1.6c6.7-3.4,12.1-9.5,14.2-17.3
							C104.5,91.9,95.9,76.7,81.2,72.6z"/>
					</g>
					<g id="XMLID_1637_">
						<path d="M79.5,112.1l-1.9-3.4l2.1-9.7l1.3-1l1.1-3.5L80,94l-0.4,1.3l-1.6-0.4l0.4-1.3L76.3,93L76,94.3l-1.6-0.4l0.4-1.3
							L72.7,92l-0.4,1.3l-1.6-0.4l0.4-1.3L69,91l-0.9,3.5l0.6,1.5l-3.2,9.4l-3.4,1.9L50.3,114c3.5,5.6,9.1,10,16,11.9
							c6.9,1.9,13.9,1.1,19.9-1.9l0,0l-0.9-1.6L79.5,112.1z"/>
					</g>
				</g>
			</g>
			<g>
				<g>
					<g>
						<path class="st4" d="M108.4,41.2c0.3-1.1,0.3-1.9-0.3-2.1c-0.4-0.1-0.9-0.2-1.6-0.1l-2.3,0c-0.2,0-0.3,0-0.3-0.2l-0.1-0.8
							c0-0.2,0.1-0.3,0.3-0.4l9.4-2c0.2,0,0.5-0.1,0.7,0c0.2,0.1,0.2,0.2,0.1,0.7c-0.1,0.3-1.8,5.8-3.1,10.5l-0.4,1.5
							c-0.3,1.2-2.2,8-2.3,8.5c-0.5,1.9-0.4,2.1,1.6,2.7l1.3,0.4c0.3,0.1,0.3,0.2,0.3,0.4l-0.3,0.9c-0.1,0.2-0.2,0.3-0.4,0.2
							c-0.3-0.1-5.1-1.5-5.7-1.7c-0.7-0.2-5.8-1.5-6-1.6c-0.2-0.1-0.3-0.2-0.2-0.3l0.3-0.9c0.1-0.2,0.2-0.2,0.5-0.1l1.4,0.4
							c2.2,0.6,2.5,0.6,3.1-1.3c0.4-1,1.9-6.4,2.2-7.4L108.4,41.2z"/>
					</g>
				</g>
				<g>
					<g>
						<path class="st4" d="M123.3,41.2c0,0.1,0,0.1-0.1,0.1l-0.3,0c-0.1,0-0.1,0-0.1-0.1l-0.6-1.2c-0.2-0.3-0.4-0.6-0.9-0.8
							c-0.5-0.1-1.1,0.1-1.2,0.6c-0.1,0.6,0,0.8,1.1,1.5c0.7,0.4,1.1,0.7,1.4,1.3c0.3,0.5,0.3,1,0.1,1.5c-0.4,1.5-1.8,2.2-3.6,1.7
							c-0.9-0.3-1.6-0.8-1.8-1c-0.1-0.1,0-0.1,0-0.2l0.2-1.6c0-0.1,0.1-0.1,0.2-0.1l0.3,0c0.1,0,0.1,0,0.1,0.1l0.4,1.1
							c0.2,0.5,0.4,1,1.2,1.2c0.6,0.2,1.1-0.2,1.2-0.7c0.2-0.7-0.2-1-1.2-1.6c-1.1-0.7-1.7-1.5-1.4-2.6c0.2-0.8,0.6-1.3,1.4-1.6
							c0.8-0.3,1.3-0.3,2-0.1c0.9,0.2,1.4,0.6,1.6,0.8c0.2,0.2,0.2,0.3,0.2,0.4L123.3,41.2z"/>
					</g>
					<g>
						<path class="st4" d="M126.7,45.2c-0.4,1.3,0,1.8,0.4,1.9c0.3,0.1,0.6,0.1,0.9,0c0.1,0,0.1,0,0.1,0.1l0,0.3
							c0,0.1,0,0.2-0.1,0.2c-0.3,0.1-1.2,0.4-2.5,0c-1.1-0.3-1.6-1.3-1.4-2c0.2-0.6,0.5-1.8,0.7-2.4l0.6-2.1l-0.9-0.3
							c-0.1,0-0.2-0.1-0.2-0.3c0-0.2,0.2-0.3,0.5-0.3c0.6-0.1,2.3-0.9,3.1-1.5c0.2-0.1,0.3-0.1,0.4-0.1c0.1,0,0.2,0.2,0.1,0.3
							l-0.5,1.7l2.1,0.6c0.1,0,0.1,0.1,0.1,0.2l-0.4,0.7c0,0.1-0.1,0.1-0.2,0.1l-1.9-0.5c-0.2,0.7-0.4,1.4-0.6,2.2L126.7,45.2z"/>
					</g>
				</g>
			</g>
		</g>
		
			<rect x="15" y="32.9" transform="matrix(-0.2788 0.9603 -0.9603 -0.2788 179.4884 25.952)" class="st6" width="130.1" height="94.9"/>
	</g>
</g>
<g id="Twitter" class="st0">
	<g class="st2">
		<g id="Twitter_7_">
			<path id="Twitter_8_" class="st4" d="M73.3,58.6c-2.5-0.1-5.1-0.5-7.5-1.3c3.1-0.3,6-1.7,8.2-4c-2.9,0.3-5.8,0-8.7-0.7
				c-1-3.3-3.4-6.1-6.7-7.7c-6.4-3-14.1-0.3-17.1,6.1c-0.4,0.9-0.8,1.8-1,2.8C31,48.7,24.7,40,22.3,30.3c-1.8,1.2-3.3,3-4.3,5.1
				c-1.9,4-1.6,8.5,0.6,12.1c-1.9-1-3.4-2.3-4.6-3.9c0,0,0,0.1-0.1,0.1c-2.7,5.6-0.9,12.2,3.9,15.8c-1.1-0.2-2.2-0.5-3.2-1
				c-0.7-0.4-1.4-0.8-2.1-1.2c-0.7,5.3,2,10.7,7,13.2C14,71.6,8.1,71.1,2.7,68.5C1.8,68.1,0.9,67.6,0,67c3.6,5.7,8.8,10.5,15.3,13.7
				c21.3,10.1,41.4-2,48.7-17.3c0.2-0.5,0.5-1,0.7-1.5C67.7,61.3,70.7,60.2,73.3,58.6z"/>
		</g>
		<g>
			<path class="st3" d="M113.8,54.2c-1.4-0.4-2.9-0.2-4.1,0.6L72.3,77.6c-1.2,0.7-2,1.9-2.3,3.3c-0.3,1.4,0,2.8,0.7,4l7.2,11
				l2.9,6.4c0.9,2.1,2.2,4,3.9,5.6l5.4,5.4l26.4,37.5c2.3,3.3,6.6,4.2,9.9,2.2l25.1-15.3c3.3-2,4.4-6.3,2.6-9.8l-21.6-41.3l-2.7-7.6
				c-0.7-1.9-1.6-3.7-2.8-5.3l-4.2-5.8l-5.6-11C116.4,55.5,115.2,54.6,113.8,54.2z"/>
		</g>
		<line class="st3" x1="75.6" y1="92" x2="120.8" y2="64.5"/>
		<g>
			<circle class="st4" cx="108.9" cy="94.6" r="6.8"/>
			<circle class="st9" cx="108.9" cy="94.6" r="2.3"/>
		</g>
		<g>
			<circle class="st4" cx="125.3" cy="84.6" r="6.8"/>
			<circle class="st9" cx="125.3" cy="84.6" r="2.3"/>
		</g>
	</g>
</g>
<g id="Awards" class="st0">
	<g class="st2">
		<g>
			<g>
				<g>
					<g>
						<path id="XMLID_1550_" class="st4" d="M80.9,31.4c-12,0-21.8,9.7-21.8,21.8c0,12,9.7,21.8,21.8,21.8c12,0,21.8-9.7,21.8-21.8
							C102.7,41.1,92.9,31.4,80.9,31.4z M93.2,66.7L93.2,66.7c-3.3,3-7.6,4.8-12.3,4.8c-4.7,0-9.1-1.8-12.3-4.8l6.4-6.4l1.8-1.8
							l0.4-6.6l-0.7-0.8l-0.1-2.4h1.4v0.9h1.1v-0.9h1.4v0.9h1.1v-0.9h1.4v0.9H84v-0.9h1.4l-0.1,2.4L84.6,52l0.4,6.6l1.8,1.8l5.5,5.5
							l-5.5-5.5c2.1-1.7,3.4-4.3,3.4-7.2c0-5.1-4.2-9.3-9.3-9.3s-9.3,4.2-9.3,9.3c0,2.9,1.3,5.5,3.4,7.2l-6.4,6.4
							c-3.7-3.4-6-8.2-6-13.6c0-10.1,8.2-18.3,18.3-18.3S99.2,43,99.2,53.2C99.2,58.5,96.9,63.4,93.2,66.7z"/>
						<path id="XMLID_1492_" class="st4" d="M80.9,74.9c-12,0-21.8-9.7-21.8-21.8c0-12,9.7-21.8,21.8-21.8c12,0,21.8,9.7,21.8,21.8
							C102.7,65.2,92.9,74.9,80.9,74.9z"/>
						<g id="XMLID_1489_">
							<path id="XMLID_1491_" class="st5" d="M80.9,34.8c-10.1,0-18.3,8.2-18.3,18.3c0,5.4,2.3,10.2,6,13.6l6.4-6.4
								c-2.1-1.7-3.4-4.3-3.4-7.2c0-5.1,4.2-9.3,9.3-9.3s9.3,4.2,9.3,9.3c0,2.9-1.3,5.5-3.4,7.2l5.5,5.5l0.9,0.9
								c3.7-3.4,6-8.2,6-13.6C99.2,43,91,34.8,80.9,34.8z"/>
							<path id="XMLID_1490_" d="M86.9,60.3L85,58.5L84.6,52l0.7-0.8l0.1-2.4H84v0.9h-1.1v-0.9h-1.4v0.9h-1.1v-0.9h-1.4v0.9h-1.1
								v-0.9h-1.4l0.1,2.4l0.7,0.8l-0.4,6.6L75,60.3l-6.4,6.4c3.3,3,7.6,4.8,12.3,4.8c4.7,0,9.1-1.8,12.3-4.8l0,0l-0.9-0.9
								L86.9,60.3z"/>
						</g>
					</g>
				</g>
			</g>
			<g>
				<path class="st3" d="M75.4,109.1c-3.8,28.3-23.6,31.4-23.6,31.4v13.2H110v-13.2c0,0-19.8-3.1-23.6-31.4"/>
			</g>
			<g>
				<polyline class="st6" points="27.9,34.9 12.1,34.9 16.8,58.9 29.1,72.2 				"/>
				<polyline class="st6" points="133.9,34.9 149.7,34.9 145.1,58.9 132.7,72.2 				"/>
			</g>
			<line class="st3" x1="51.8" y1="141.3" x2="110" y2="141.3"/>
			<path class="st6" d="M133.8,15.2V56c0,29.1-23.8,52.9-52.9,52.9h0C51.8,108.9,28,85.1,28,56V15.2H133.8z"/>
		</g>
	</g>
</g>
<g id="Hopps" class="st0">
	<g class="st2">
		<g>
			<g>
				<g id="XMLID_1644_">
					<g id="XMLID_1645_">
						<path id="XMLID_1671_" class="st4" d="M81.5,21.3c-1.1,0-5.9,4.6-8.7,10c2.6,1.4,4.9,3.3,6.5,5.6c0,0.1,0.1,0.1,0.1,0.2
							c0.8-0.4,1.5-0.6,2.1-0.6s1.3,0.2,2.1,0.6c0-0.1,0.1-0.1,0.1-0.2c1.6-2.3,3.9-4.2,6.5-5.6C87.4,25.9,82.6,21.3,81.5,21.3z"/>
						<path id="XMLID_766_" class="st4" d="M85.4,70.3c9.8-1.5,21.5-8.4,21.8-21.6c-1.8-0.6-8-0.5-13.4,2.9l-1.9,1.2l-0.9-2
							c-2.2-4.9-7.9-9.9-9.5-10.4c-1.6,0.4-7.3,5.5-9.5,10.4l-0.9,2l-1.9-1.2c-5.5-3.4-11.7-3.5-13.4-2.9
							c0.4,13.2,12.1,20.1,21.8,21.6"/>
						<path id="XMLID_1669_" class="st4" d="M58.3,44.6c3.2,0,7.3,0.8,11.1,2.7c1.7-2.8,4.3-5.8,6.8-8c0-0.1-0.1-0.1-0.1-0.2
							c-3.6-5.3-13.4-7.9-16.6-7.9c-0.5,0-0.8,0.1-1,0.2c-0.9,0.6-2.3,7.3-1.4,13.2C57.5,44.6,57.9,44.6,58.3,44.6z"/>
						<path id="XMLID_1668_" class="st4" d="M86.9,39.1c0,0.1-0.1,0.1-0.1,0.2c2.5,2.1,5.1,5.2,6.8,8c3.8-1.9,7.9-2.7,11.1-2.7
							c0.4,0,0.8,0,1.2,0c0.9-5.9-0.5-12.6-1.4-13.2c-0.2-0.1-0.5-0.2-1-0.2C100.3,31.2,90.5,33.8,86.9,39.1z"/>
						<path id="XMLID_1667_" class="st4" d="M93.6,29.5l0.1,0.1c3.1-1.2,6.1-1.9,8.2-2.2c-1.3-5.6-4.6-10.8-5.6-11.1
							c0,0-0.1,0-0.1,0c-1.1,0-4.9,2.1-8.3,5.2C90.5,24.3,92.7,27.8,93.6,29.5z"/>
						<path id="XMLID_1666_" class="st4" d="M69.3,29.5c0.9-1.8,3.2-5.3,5.7-8c-3.4-3.1-7.2-5.2-8.3-5.2c-0.1,0-0.1,0-0.1,0
							c-1,0.3-4.3,5.5-5.6,11.1c2.1,0.3,5.1,1,8.2,2.2L69.3,29.5z"/>
						<path id="XMLID_1646_" class="st4" d="M77.9,18.9c1.2-0.9,2.4-1.4,3.5-1.4c1.1,0,2.3,0.6,3.5,1.4l0.3-0.3c1.2-1,3-2.6,5-3.8
							c-2.5-5.6-7.7-10.6-8.8-10.6c-1.1,0-6.3,5-8.8,10.6c2,1.3,3.9,2.8,5,3.8L77.9,18.9z"/>
					</g>
				</g>
			</g>
			<line class="st6" x1="81.8" y1="59.7" x2="81.8" y2="152"/>
		</g>
		<g>
			<g>
				<g id="XMLID_27_">
					<g id="XMLID_151_">
						<path id="XMLID_207_" class="st4" d="M44.4,80c-0.8,0-4.1,3.2-6,6.9c1.8,1,3.4,2.3,4.5,3.9c0,0,0,0.1,0.1,0.1
							c0.5-0.3,1-0.4,1.4-0.4s0.9,0.2,1.4,0.4c0,0,0-0.1,0.1-0.1c1.1-1.6,2.7-2.9,4.5-3.9C48.5,83.2,45.2,80,44.4,80z"/>
						<path id="XMLID_206_" class="st4" d="M47.1,113.7c6.7-1,14.8-5.8,15-14.9c-1.2-0.4-5.5-0.3-9.2,2l-1.3,0.8l-0.6-1.4
							c-1.5-3.3-5.4-6.8-6.6-7.1c-1.1,0.3-5.1,3.8-6.6,7.1l-0.6,1.4l-1.3-0.8c-3.8-2.3-8-2.4-9.2-2c0.3,9.1,8.3,13.8,15,14.9"/>
						<path id="XMLID_204_" class="st4" d="M28.5,96c2.2,0,5,0.5,7.6,1.9c1.1-1.9,2.9-4,4.7-5.5c0,0,0-0.1-0.1-0.1
							c-2.5-3.6-9.2-5.4-11.4-5.4c-0.3,0-0.5,0-0.7,0.1c-0.6,0.4-1.6,5-1,9.1C27.9,96,28.2,96,28.5,96z"/>
						<path id="XMLID_203_" class="st4" d="M48.1,92.2c0,0,0,0.1-0.1,0.1c1.7,1.5,3.5,3.6,4.7,5.5c2.6-1.3,5.4-1.9,7.6-1.9
							c0.3,0,0.6,0,0.8,0c0.6-4.1-0.3-8.7-1-9.1c-0.1-0.1-0.3-0.1-0.7-0.1C57.3,86.8,50.6,88.6,48.1,92.2z"/>
						<path id="XMLID_201_" class="st4" d="M52.8,85.6L52.8,85.6c2.1-0.8,4.2-1.2,5.7-1.4c-0.9-3.8-3.2-7.5-3.9-7.6c0,0-0.1,0-0.1,0
							c-0.8,0-3.4,1.4-5.7,3.5C50.6,82,52.1,84.4,52.8,85.6z"/>
						<path id="XMLID_174_" class="st4" d="M36,85.6c0.6-1.2,2.2-3.6,3.9-5.5c-2.3-2.1-4.9-3.5-5.7-3.5c0,0-0.1,0-0.1,0
							c-0.7,0.2-2.9,3.8-3.9,7.6C31.8,84.4,33.9,84.9,36,85.6L36,85.6z"/>
						<path id="XMLID_173_" class="st4" d="M42,78.3c0.8-0.6,1.7-1,2.4-1c0.8,0,1.6,0.4,2.4,1l0.2-0.2c0.8-0.7,2.1-1.8,3.4-2.6
							c-1.7-3.8-5.3-7.3-6.1-7.3s-4.3,3.5-6.1,7.3c1.4,0.9,2.7,1.9,3.4,2.6L42,78.3z"/>
					</g>
				</g>
			</g>
			<line class="st6" x1="44.6" y1="106.4" x2="44.6" y2="152"/>
		</g>
		<g>
			<g>
				<g id="XMLID_208_">
					<g id="XMLID_209_">
						<path id="XMLID_347_" class="st4" d="M118.5,80c-0.8,0-4.1,3.2-6,6.9c1.8,1,3.4,2.3,4.5,3.9c0,0,0,0.1,0.1,0.1
							c0.5-0.3,1-0.4,1.4-0.4c0.4,0,0.9,0.2,1.4,0.4c0,0,0-0.1,0.1-0.1c1.1-1.6,2.7-2.9,4.5-3.9C122.6,83.2,119.3,80,118.5,80z"/>
						<path id="XMLID_346_" class="st4" d="M121.2,113.7c6.7-1,14.8-5.8,15-14.9c-1.2-0.4-5.5-0.3-9.2,2l-1.3,0.8l-0.6-1.4
							c-1.5-3.3-5.4-6.8-6.6-7.1c-1.1,0.3-5.1,3.8-6.6,7.1l-0.6,1.4l-1.3-0.8c-3.8-2.3-8-2.4-9.2-2c0.3,9.1,8.3,13.8,15,14.9"/>
						<path id="XMLID_345_" class="st4" d="M102.6,96c2.2,0,5,0.5,7.6,1.9c1.1-1.9,2.9-4,4.7-5.5c0,0,0-0.1-0.1-0.1
							c-2.5-3.6-9.2-5.4-11.4-5.4c-0.3,0-0.5,0-0.7,0.1c-0.6,0.4-1.6,5-1,9.1C102,96,102.3,96,102.6,96z"/>
						<path id="XMLID_248_" class="st4" d="M122.3,92.2c0,0,0,0.1-0.1,0.1c1.7,1.5,3.5,3.6,4.7,5.5c2.6-1.3,5.4-1.9,7.6-1.9
							c0.3,0,0.6,0,0.8,0c0.6-4.1-0.3-8.7-1-9.1c-0.1-0.1-0.3-0.1-0.7-0.1C131.5,86.8,124.7,88.6,122.3,92.2z"/>
						<path id="XMLID_247_" class="st4" d="M126.9,85.6L126.9,85.6c2.1-0.8,4.2-1.2,5.7-1.4c-0.9-3.8-3.2-7.5-3.9-7.6
							c0,0-0.1,0-0.1,0c-0.8,0-3.4,1.4-5.7,3.5C124.7,82,126.3,84.4,126.9,85.6z"/>
						<path id="XMLID_246_" class="st4" d="M110.2,85.6c0.6-1.2,2.2-3.6,3.9-5.5c-2.3-2.1-4.9-3.5-5.7-3.5c0,0-0.1,0-0.1,0
							c-0.7,0.2-2.9,3.8-3.9,7.6C106,84.4,108,84.9,110.2,85.6L110.2,85.6z"/>
						<path id="XMLID_245_" class="st4" d="M116.1,78.3c0.8-0.6,1.7-1,2.4-1c0.8,0,1.6,0.4,2.4,1l0.2-0.2c0.8-0.7,2.1-1.8,3.4-2.6
							c-1.7-3.8-5.3-7.3-6.1-7.3s-4.3,3.5-6.1,7.3c1.4,0.9,2.7,1.9,3.4,2.6L116.1,78.3z"/>
					</g>
				</g>
			</g>
			<line class="st6" x1="118.8" y1="106.4" x2="118.8" y2="152"/>
		</g>
	</g>
</g>
<g id="Mill" class="st0">
	<g class="st2">
		<g>
			<g>
				<g>
					<g id="XMLID_502_">
						<g id="XMLID_503_">
							<path id="XMLID_526_" class="st4" d="M133,31.7c-0.4-0.4-4-0.5-7.1,0.5c0.4,1.5,0.6,3.1,0.3,4.6c0,0,0,0.1,0,0.1
								c0.4,0.1,0.8,0.3,1,0.6c0.2,0.2,0.4,0.6,0.6,1c0,0,0.1,0,0.1,0c1.5-0.3,3.1-0.1,4.6,0.3C133.5,35.6,133.4,32.1,133,31.7z"/>
							<path id="XMLID_525_" class="st4" d="M126.2,47.8l-1.2-0.3l0.4-1.1c1-2.7,0.8-6.8,0.3-7.6c-0.8-0.5-4.9-0.7-7.6,0.3l-1.1,0.4
								l-0.3-1.2c-0.8-3.4-3.1-5.7-4-6.2c-4.9,5.2-3.1,12.2,0.1,16.5l-9.9,9.9c-0.8,0.8-0.8,2.1,0,3c0.8,0.8,2.1,0.8,3,0l9.9-9.9
								c4.3,3.1,11.4,5,16.5,0.1C131.9,50.9,129.5,48.6,126.2,47.8z"/>
							<path id="XMLID_513_" class="st4" d="M115.4,31.7c1.2,1.2,2.5,3.1,3.2,5.2c1.7-0.4,3.8-0.6,5.6-0.5c0,0,0-0.1,0-0.1
								c0.6-3.4-2.1-8.1-3.3-9.3c-0.2-0.2-0.3-0.3-0.4-0.3c-0.6-0.1-3.6,1.9-5.6,4.5C115,31.4,115.2,31.5,115.4,31.7z"/>
							<path id="XMLID_512_" class="st4" d="M128.3,40.5c0,0-0.1,0-0.1,0c0.1,1.8,0,3.9-0.5,5.6c2.2,0.7,4,2,5.2,3.2
								c0.2,0.2,0.3,0.3,0.4,0.5c2.6-1.9,4.6-5,4.5-5.6c0-0.1-0.1-0.2-0.3-0.4C136.4,42.6,131.7,39.8,128.3,40.5z"/>
							<path id="XMLID_511_" class="st4" d="M134.5,39.4L134.5,39.4c1.6,0.8,3,1.6,3.9,2.4c1.6-2.6,2.4-5.9,2.1-6.4c0,0,0,0,0-0.1
								c-0.4-0.4-2.6-1.1-5.1-1.2C135.3,36.2,134.8,38.4,134.5,39.4z"/>
							<path id="XMLID_510_" class="st4" d="M125.3,30.1c1-0.3,3.2-0.8,5.2-0.9c-0.1-2.4-0.8-4.7-1.2-5.1c0,0,0,0-0.1,0
								c-0.5-0.3-3.7,0.5-6.4,2.1C123.6,27.1,124.5,28.5,125.3,30.1L125.3,30.1z"/>
							<path id="XMLID_504_" class="st4" d="M132.6,29.4c0.8,0.1,1.5,0.4,1.9,0.8c0.4,0.4,0.7,1.1,0.8,1.9l0.2,0
								c0.8,0,2.1,0.2,3.4,0.5c1.2-3.1,1.1-7,0.7-7.4c-0.4-0.4-4.3-0.5-7.4,0.7c0.3,1.2,0.4,2.5,0.5,3.4L132.6,29.4z"/>
						</g>
					</g>
				</g>
			</g>
		</g>
		<g>
			<g>
				<g>
					<g id="XMLID_528_">
						<g id="XMLID_529_">
							<path id="XMLID_550_" class="st4" d="M54.4,110.3c-0.4-0.4-4-0.5-7.1,0.5c0.4,1.5,0.6,3.1,0.3,4.6c0,0,0,0.1,0,0.1
								c0.4,0.1,0.8,0.3,1,0.6c0.2,0.2,0.4,0.6,0.6,1c0,0,0.1,0,0.1,0c1.5-0.3,3.1-0.1,4.6,0.3C54.9,114.3,54.8,110.7,54.4,110.3z"
								/>
							<path id="XMLID_549_" class="st4" d="M47.5,126.5l-1.2-0.3l0.4-1.1c1-2.7,0.8-6.8,0.3-7.6c-0.8-0.5-4.9-0.7-7.6,0.3l-1.1,0.4
								l-0.3-1.2c-0.8-3.4-3.1-5.7-4-6.2c-4.9,5.2-3.1,12.2,0.1,16.5l-9.9,9.9c-0.8,0.8-0.8,2.1,0,3s2.1,0.8,3,0l9.9-9.9
								c4.3,3.1,11.4,5,16.5,0.1C53.3,129.6,50.9,127.3,47.5,126.5z"/>
							<path id="XMLID_542_" class="st4" d="M36.7,110.3c1.2,1.2,2.5,3.1,3.2,5.2c1.7-0.4,3.8-0.6,5.6-0.5c0,0,0-0.1,0-0.1
								c0.6-3.4-2.1-8.1-3.3-9.3c-0.2-0.2-0.3-0.3-0.4-0.3c-0.6-0.1-3.6,1.9-5.6,4.5C36.4,110,36.6,110.1,36.7,110.3z"/>
							<path id="XMLID_541_" class="st4" d="M49.7,119.1c0,0-0.1,0-0.1,0c0.1,1.8,0,3.9-0.5,5.6c2.2,0.7,4,2,5.2,3.2
								c0.2,0.2,0.3,0.3,0.4,0.5c2.6-1.9,4.6-5,4.5-5.6c0-0.1-0.1-0.2-0.3-0.4C57.7,121.2,53,118.5,49.7,119.1z"/>
							<path id="XMLID_540_" class="st4" d="M55.9,118L55.9,118c1.6,0.8,3,1.6,3.9,2.4c1.6-2.6,2.4-5.9,2.1-6.4c0,0,0,0,0-0.1
								c-0.4-0.4-2.6-1.1-5.1-1.2C56.7,114.8,56.2,117,55.9,118z"/>
							<path id="XMLID_539_" class="st4" d="M46.6,108.8c1-0.3,3.2-0.8,5.2-0.9c-0.1-2.4-0.8-4.7-1.2-5.1c0,0,0,0-0.1,0
								c-0.5-0.3-3.7,0.5-6.4,2.1C45,105.8,45.8,107.2,46.6,108.8L46.6,108.8z"/>
							<path id="XMLID_536_" class="st4" d="M53.9,108c0.8,0.1,1.5,0.4,1.9,0.8c0.4,0.4,0.7,1.1,0.8,1.9l0.2,0
								c0.8,0,2.1,0.2,3.4,0.5c1.2-3.1,1.1-7,0.7-7.4c-0.4-0.4-4.3-0.5-7.4,0.7c0.3,1.2,0.4,2.5,0.5,3.4L53.9,108z"/>
						</g>
					</g>
				</g>
			</g>
		</g>
		<g>
			<g>
				<line class="st10" x1="82.4" y1="113.8" x2="88.9" y2="112.7"/>
				<line class="st10" x1="130" y1="105.3" x2="136.6" y2="104.1"/>
			</g>
			<g>
				<line class="st10" x1="88.4" y1="126.7" x2="93.5" y2="122.5"/>
				<line class="st10" x1="125.5" y1="95.5" x2="130.5" y2="91.2"/>
			</g>
			<g>
				<line class="st10" x1="100.1" y1="134.9" x2="102.4" y2="128.6"/>
				<line class="st10" x1="116.6" y1="89.3" x2="118.8" y2="83.1"/>
			</g>
			<g>
				<line class="st10" x1="114.3" y1="136.1" x2="113.2" y2="129.5"/>
				<line class="st10" x1="105.8" y1="88.4" x2="104.6" y2="81.9"/>
			</g>
			<g>
				<line class="st10" x1="127.2" y1="130" x2="123" y2="124.9"/>
				<line class="st10" x1="96" y1="93" x2="91.7" y2="87.9"/>
			</g>
			<g>
				<line class="st10" x1="135.4" y1="118.3" x2="129.1" y2="116.1"/>
				<line class="st10" x1="89.8" y1="101.9" x2="83.6" y2="99.6"/>
			</g>
		</g>
		<g>
			<g>
				<line class="st10" x1="82.4" y1="113.8" x2="88.9" y2="112.7"/>
				<line class="st10" x1="130" y1="105.3" x2="136.6" y2="104.1"/>
			</g>
			<g>
				<line class="st10" x1="88.4" y1="126.7" x2="93.5" y2="122.5"/>
				<line class="st10" x1="125.5" y1="95.5" x2="130.5" y2="91.2"/>
			</g>
			<g>
				<line class="st10" x1="100.1" y1="134.9" x2="102.4" y2="128.6"/>
				<line class="st10" x1="116.6" y1="89.3" x2="118.8" y2="83.1"/>
			</g>
			<g>
				<line class="st10" x1="114.3" y1="136.1" x2="113.2" y2="129.5"/>
				<line class="st10" x1="105.8" y1="88.4" x2="104.6" y2="81.9"/>
			</g>
			<g>
				<line class="st10" x1="127.2" y1="130" x2="123" y2="124.9"/>
				<line class="st10" x1="96" y1="93" x2="91.7" y2="87.9"/>
			</g>
			<g>
				<line class="st10" x1="135.4" y1="118.3" x2="129.1" y2="116.1"/>
				<line class="st10" x1="89.8" y1="101.9" x2="83.6" y2="99.6"/>
			</g>
		</g>
		<circle class="st3" cx="109.5" cy="109" r="19.9"/>
		<g>
			<g>
				<line class="st10" x1="18.4" y1="51.1" x2="26.4" y2="51.1"/>
				<line class="st10" x1="76.9" y1="51.1" x2="84.9" y2="51.1"/>
			</g>
			<g>
				<line class="st10" x1="22.8" y1="67.8" x2="29.8" y2="63.8"/>
				<line class="st10" x1="73.5" y1="38.5" x2="80.4" y2="34.5"/>
			</g>
			<g>
				<line class="st10" x1="35" y1="79.9" x2="39" y2="73"/>
				<line class="st10" x1="64.3" y1="29.3" x2="68.3" y2="22.3"/>
			</g>
			<g>
				<line class="st10" x1="51.6" y1="84.4" x2="51.6" y2="76.4"/>
				<line class="st10" x1="51.6" y1="25.9" x2="51.6" y2="17.9"/>
			</g>
			<g>
				<line class="st10" x1="68.3" y1="79.9" x2="64.3" y2="73"/>
				<line class="st10" x1="39" y1="29.3" x2="35" y2="22.3"/>
			</g>
			<g>
				<line class="st10" x1="80.4" y1="67.8" x2="73.5" y2="63.8"/>
				<line class="st10" x1="29.8" y1="38.5" x2="22.8" y2="34.5"/>
			</g>
		</g>
		<g>
			<g>
				<line class="st10" x1="18.4" y1="51.1" x2="26.4" y2="51.1"/>
				<line class="st10" x1="76.9" y1="51.1" x2="84.9" y2="51.1"/>
			</g>
			<g>
				<line class="st10" x1="22.8" y1="67.8" x2="29.8" y2="63.8"/>
				<line class="st10" x1="73.5" y1="38.5" x2="80.4" y2="34.5"/>
			</g>
			<g>
				<line class="st10" x1="35" y1="79.9" x2="39" y2="73"/>
				<line class="st10" x1="64.3" y1="29.3" x2="68.3" y2="22.3"/>
			</g>
			<g>
				<line class="st10" x1="51.6" y1="84.4" x2="51.6" y2="76.4"/>
				<line class="st10" x1="51.6" y1="25.9" x2="51.6" y2="17.9"/>
			</g>
			<g>
				<line class="st10" x1="68.3" y1="79.9" x2="64.3" y2="73"/>
				<line class="st10" x1="39" y1="29.3" x2="35" y2="22.3"/>
			</g>
			<g>
				<line class="st10" x1="80.4" y1="67.8" x2="73.5" y2="63.8"/>
				<line class="st10" x1="29.8" y1="38.5" x2="22.8" y2="34.5"/>
			</g>
		</g>
		<circle class="st3" cx="51.6" cy="51.1" r="24"/>
	</g>
</g>
<g id="Brew_Kettle" class="st0">
	<g class="st2">
		<g>
			<g>
				<g>
					<g>
						<g id="XMLID_660_">
							<path class="st4" d="M64.6,95.3c-8.3,0-15,6.7-15,15c0,8.3,6.7,15,15,15c8.3,0,15-6.7,15-15C79.6,102,72.9,95.3,64.6,95.3z
								 M73.1,119.5L73.1,119.5c-2.2,2-5.2,3.3-8.5,3.3s-6.2-1.2-8.5-3.3l4.4-4.4l1.2-1.2l0.3-4.5l-0.5-0.6l0-1.7h1v0.6h0.7v-0.6h1
								v0.6H65v-0.6h1v0.6h0.7v-0.6h1l0,1.7l-0.5,0.6l0.3,4.5l1.2,1.2l3.8,3.8l-3.8-3.8c1.4-1.2,2.3-2.9,2.3-4.9
								c0-3.5-2.9-6.4-6.4-6.4c-3.5,0-6.4,2.9-6.4,6.4c0,2,0.9,3.8,2.3,4.9l-4.4,4.4c-2.5-2.3-4.1-5.6-4.1-9.3
								c0-7,5.6-12.6,12.6-12.6s12.6,5.6,12.6,12.6C77.2,113.9,75.7,117.2,73.1,119.5z"/>
						</g>
						<g id="XMLID_654_">
							<path class="st4" d="M64.6,125.2c-8.3,0-15-6.7-15-15c0-8.3,6.7-15,15-15c8.3,0,15,6.7,15,15
								C79.6,118.5,72.9,125.2,64.6,125.2z"/>
						</g>
						<g id="XMLID_551_">
							<g id="XMLID_653_">
								<path class="st5" d="M64.6,97.6c-7,0-12.6,5.6-12.6,12.6c0,3.7,1.6,7,4.1,9.3l4.4-4.4c-1.4-1.2-2.3-2.9-2.3-4.9
									c0-3.5,2.9-6.4,6.4-6.4c3.5,0,6.4,2.9,6.4,6.4c0,2-0.9,3.8-2.3,4.9l3.8,3.8l0.6,0.6c2.5-2.3,4.1-5.6,4.1-9.3
									C77.2,103.3,71.6,97.6,64.6,97.6z"/>
							</g>
							<g id="XMLID_552_">
								<path d="M68.7,115.1l-1.2-1.2l-0.3-4.5l0.5-0.6l0-1.7h-1v0.6H66v-0.6h-1v0.6h-0.7v-0.6h-1v0.6h-0.7v-0.6h-1l0,1.7l0.5,0.6
									l-0.3,4.5l-1.2,1.2l-4.4,4.4c2.2,2,5.2,3.3,8.5,3.3s6.2-1.2,8.5-3.3l0,0l-0.6-0.6L68.7,115.1z"/>
							</g>
						</g>
					</g>
				</g>
			</g>
		</g>
		<g>
			<path class="st3" d="M123.5,46.8c-11.1,3.3-26.4,5.3-43.3,5.3s-32.2-2-43.3-5.3"/>
			<path class="st3" d="M123.5,61.7c-11.1,3.3-26.4,5.3-43.3,5.3S48,65,36.9,61.7"/>
			<path class="st3" d="M122.9,51.5c0-4-1.6-7.8-4.4-10.6l-28-28c-5.7-5.7-15-5.7-20.7,0l-28,28c-2.8,2.8-4.4,6.6-4.4,10.6v78.9
				c0,2.4,1.6,4.5,4,5.1c10.5,2.6,23.8,4.2,38.8,4.2c15,0,28.3-1.6,38.8-4.2c2.3-0.6,4-2.7,4-5.1V51.5z"/>
		</g>
		<g>
			<line class="st10" x1="54" y1="139.1" x2="54" y2="153.7"/>
			<line class="st10" x1="106.4" y1="139.1" x2="106.4" y2="153.7"/>
		</g>
		<circle class="st4" cx="104.1" cy="90.2" r="4.7"/>
		<circle class="st4" cx="104.1" cy="104.1" r="4.7"/>
		<circle class="st4" cx="104.1" cy="118" r="4.7"/>
		<path class="st6" d="M36.9,82.9c0,0-19.1,20.1-20.6,36.4l20.6-6"/>
		<path class="st6" d="M122.9,82.9c0,0,19.1,20.1,20.6,36.4l-20.6-6"/>
	</g>
</g>
<g id="Frementation" class="st0">
	<g class="st2">
		<g>
			<g>
				<g>
					<g>
						<g id="XMLID_672_">
							<path class="st4" d="M80.4,50.3c-8.2,0-14.9,6.7-14.9,14.9c0,8.2,6.7,14.9,14.9,14.9c8.2,0,14.9-6.7,14.9-14.9
								C95.3,57,88.6,50.3,80.4,50.3z M88.8,74.6L88.8,74.6c-2.2,2-5.2,3.3-8.5,3.3c-3.3,0-6.2-1.2-8.5-3.3l4.4-4.4l1.2-1.2l0.3-4.5
								l-0.5-0.6l0-1.6h1v0.6H79v-0.6h1v0.6h0.7v-0.6h1v0.6h0.7v-0.6h1l0,1.6l-0.5,0.6l0.3,4.5l1.2,1.2l3.8,3.8l-3.8-3.8
								c1.4-1.2,2.3-2.9,2.3-4.9c0-3.5-2.9-6.4-6.4-6.4c-3.5,0-6.4,2.9-6.4,6.4c0,2,0.9,3.7,2.3,4.9l-4.4,4.4
								c-2.5-2.3-4.1-5.6-4.1-9.3c0-6.9,5.6-12.6,12.6-12.6s12.6,5.6,12.6,12.6C92.9,69,91.4,72.3,88.8,74.6z"/>
						</g>
						<g id="XMLID_667_">
							<path class="st4" d="M80.4,80.2c-8.2,0-14.9-6.7-14.9-14.9c0-8.2,6.7-14.9,14.9-14.9c8.2,0,14.9,6.7,14.9,14.9
								C95.3,73.5,88.6,80.2,80.4,80.2z"/>
						</g>
						<g id="XMLID_663_">
							<g id="XMLID_666_">
								<path class="st5" d="M80.4,52.7c-6.9,0-12.6,5.6-12.6,12.6c0,3.7,1.6,7,4.1,9.3l4.4-4.4C74.9,69,74,67.3,74,65.3
									c0-3.5,2.9-6.4,6.4-6.4c3.5,0,6.4,2.9,6.4,6.4c0,2-0.9,3.7-2.3,4.9l3.8,3.8l0.6,0.6c2.5-2.3,4.1-5.6,4.1-9.3
									C92.9,58.3,87.3,52.7,80.4,52.7z"/>
							</g>
							<g id="XMLID_665_">
								<path d="M84.4,70.2L83.2,69l-0.3-4.5l0.5-0.6l0-1.6h-1v0.6h-0.7v-0.6h-1v0.6H80v-0.6h-1v0.6h-0.7v-0.6h-1l0,1.6l0.5,0.6
									L77.5,69l-1.2,1.2l-4.4,4.4c2.2,2,5.2,3.3,8.5,3.3c3.3,0,6.2-1.2,8.5-3.3l0,0L88.2,74L84.4,70.2z"/>
							</g>
						</g>
					</g>
				</g>
			</g>
		</g>
		<g>
			<path class="st3" d="M120.9,100.4c-10.4,3.1-24.7,5-40.5,5s-30.1-1.9-40.5-5"/>
		</g>
		<g>
			<path class="st3" d="M120.4,20.9c0-3.8-2.7-7-6.4-7.8l-11.5-2.3c-14.9-3-30.3-3-45.2,0l-10.7,2.3c-3.7,0.8-6.4,4.1-6.4,7.8v0V101
				c0,3.7,1.5,7.3,4.1,10l12.3,12.3c13,13,34.2,13,47.2,0l12.3-12.3c2.6-2.6,4.1-6.2,4.1-10V20.9L120.4,20.9z"/>
		</g>
		<g>
			<line class="st10" x1="49.8" y1="118.1" x2="49.8" y2="146.4"/>
			<line class="st10" x1="110.9" y1="118.1" x2="110.9" y2="146.4"/>
			<line class="st10" x1="80.4" y1="124.1" x2="80.4" y2="154.4"/>
		</g>
		<g>
			<g>
				<path class="st10" d="M109.1,74.9c0,0,6.1-0.2,11-2.2"/>
				<path class="st10" d="M109.1,65.7c0,0,6.1-0.2,11-2.2"/>
				<path class="st10" d="M109.1,56.6c0,0,6.1-0.2,11-2.2"/>
			</g>
			<g>
				<path class="st10" d="M51.6,74.9c0,0-6.1-0.2-11-2.2"/>
				<path class="st10" d="M51.6,65.7c0,0-6.1-0.2-11-2.2"/>
				<path class="st10" d="M51.6,56.6c0,0-6.1-0.2-11-2.2"/>
			</g>
		</g>
		<path class="st3" d="M120.4,18.4L102.8,22c-14.9,3.1-30.3,3.1-45.2,0l-17.8-3.6"/>
	</g>
</g>
<g id="Keg" class="st0">
	<g class="st2">
		<g>
			<path class="st3" d="M128.5,18.4c0,5.5-20.9,12.2-46.8,12.2S35,23.9,35,18.4S55.9,6.2,81.7,6.2S128.5,13,128.5,18.4z"/>
			<path class="st3" d="M35,18.6v121v2.5c0,5.5,20.9,12.2,46.8,12.2s46.8-6.8,46.8-12.2v-2.5v-121"/>
		</g>
		<g>
			<g>
				<path class="st3" d="M128.5,122.3c0,5.5-20.9,12.2-46.8,12.2S35,127.8,35,122.3"/>
			</g>
			<g>
				<path class="st3" d="M128.5,38.4c0,5.5-20.9,12.2-46.8,12.2S35,43.9,35,38.4"/>
			</g>
		</g>
		<g>
			<g>
				<path id="XMLID_274_" class="st4" d="M81.7,66.6c-13.2,0-23.9,10.7-23.9,23.9c0,13.2,10.7,23.9,23.9,23.9
					c13.2,0,23.9-10.7,23.9-23.9C105.7,77.3,95,66.6,81.7,66.6z M95.3,105.5L95.3,105.5c-3.6,3.3-8.3,5.2-13.6,5.2
					c-5.2,0-10-2-13.6-5.2l7-7l2-2l0.4-7.2l-0.7-0.9l-0.1-2.6h1.6v1h1.2v-1h1.6v1h1.2v-1h1.6v1h1.2v-1h1.6l-0.1,2.6l-0.7,0.9
					l0.4,7.2l2,2l6.1,6.1l-6.1-6.1c2.3-1.9,3.7-4.7,3.7-7.9c0-5.6-4.6-10.2-10.2-10.2s-10.2,4.6-10.2,10.2c0,3.2,1.4,6,3.7,7.9l-7,7
					c-4.1-3.7-6.6-9-6.6-14.9c0-11.1,9-20.2,20.2-20.2s20.2,9,20.2,20.2C101.9,96.5,99.4,101.8,95.3,105.5z"/>
				<path id="XMLID_272_" class="st4" d="M81.7,114.5c-13.2,0-23.9-10.7-23.9-23.9c0-13.2,10.7-23.9,23.9-23.9
					c13.2,0,23.9,10.7,23.9,23.9C105.7,103.8,95,114.5,81.7,114.5z"/>
				<g id="XMLID_224_">
					<path id="XMLID_255_" class="st5" d="M81.7,70.4c-11.1,0-20.2,9-20.2,20.2c0,5.9,2.5,11.2,6.6,14.9l7-7
						c-2.3-1.9-3.7-4.7-3.7-7.9c0-5.6,4.6-10.2,10.2-10.2S92,84.9,92,90.6c0,3.2-1.4,6-3.7,7.9l6.1,6.1l0.9,0.9
						c4.1-3.7,6.6-9,6.6-14.9C101.9,79.4,92.9,70.4,81.7,70.4z"/>
					<path id="XMLID_254_" d="M88.3,98.5l-2-2l-0.4-7.2l0.7-0.9l0.1-2.6h-1.6v1h-1.2v-1h-1.6v1h-1.2v-1h-1.6v1h-1.2v-1h-1.6l0.1,2.6
						l0.7,0.9l-0.4,7.2l-2,2l-7,7c3.6,3.3,8.3,5.2,13.6,5.2c5.2,0,10-2,13.6-5.2l0,0l-0.9-0.9L88.3,98.5z"/>
				</g>
			</g>
		</g>
		<ellipse class="st4" cx="57.8" cy="18.4" rx="7.6" ry="3"/>
	</g>
</g>
<g id="Beer_Team_1_" class="st0">
	<g class="st2">
		<g>
			<g>
				<path id="XMLID_499_" class="st4" d="M89.7,71.4c-5.4-5.4-14.2-5.4-19.6,0c-5.4,5.4-5.4,14.2,0,19.6c5.4,5.4,14.2,5.4,19.6,0
					C95.1,85.5,95.1,76.8,89.7,71.4z M79.4,92.8L79.4,92.8c-2.8-0.1-5.5-1.3-7.7-3.4s-3.3-4.9-3.4-7.7l5.7,0l1.6,0l3.1-2.8l0.1-0.7
					l1-1.1l0.6,0.6l-0.4,0.4l0.5,0.5l0.4-0.4l0.6,0.6l-0.4,0.4l0.5,0.5l0.4-0.4l0.6,0.6l-0.4,0.4l0.5,0.5l0.4-0.4l0.6,0.6l-1.1,1
					l-0.7,0.1l-2.8,3.1l0,1.6v5l0-5c1.7,0.2,3.4-0.4,4.7-1.7c2.3-2.3,2.3-6.1,0-8.4c-2.3-2.3-6.1-2.3-8.4,0c-1.3,1.3-1.9,3-1.7,4.7
					h-5.7c-0.1-3.2,1-6.4,3.4-8.8c4.5-4.5,11.9-4.5,16.5,0c4.5,4.5,4.5,11.9,0,16.5C85.8,91.8,82.6,92.9,79.4,92.8z"/>
				<path id="XMLID_351_" class="st4" d="M70.2,90.9c-5.4-5.4-5.4-14.2,0-19.6c5.4-5.4,14.2-5.4,19.6,0c5.4,5.4,5.4,14.2,0,19.6
					C84.3,96.3,75.6,96.3,70.2,90.9z"/>
				<g id="XMLID_348_">
					<path id="XMLID_350_" class="st5" d="M88.2,72.9c-4.5-4.5-11.9-4.5-16.5,0c-2.4,2.4-3.5,5.6-3.4,8.8h5.7
						c-0.2-1.7,0.4-3.4,1.7-4.7c2.3-2.3,6.1-2.3,8.4,0s2.3,6.1,0,8.4c-1.3,1.3-3,1.9-4.7,1.7l0,5v0.8c3.2,0.1,6.4-1,8.8-3.4
						C92.7,84.9,92.7,77.5,88.2,72.9z"/>
					<path id="XMLID_349_" d="M79.4,87.1l0-1.6l2.8-3.1l0.7-0.1l1.1-1l-0.6-0.6l-0.4,0.4l-0.5-0.5l0.4-0.4l-0.6-0.6l-0.4,0.4
						l-0.5-0.5l0.4-0.4L81,78.3l-0.4,0.4l-0.5-0.5l0.4-0.4l-0.6-0.6l-1,1.1L78.8,79l-3.1,2.8l-1.6,0l-5.7,0c0.1,2.8,1.3,5.5,3.4,7.7
						c2.1,2.1,4.9,3.3,7.7,3.4v0V92V87.1z"/>
				</g>
			</g>
		</g>
		<path class="st6" d="M73,58L59.2,44.2c2.3-8.1,0-17.4-6.4-23.8c-7.6-7.6-18.9-9.3-28.2-4.9L41.2,32c3.2,3.2,3.2,8.4,0,11.6
			c-3.2,3.2-8.4,3.2-11.6,0L13,27.1c-4.4,9.3-2.9,20.6,4.9,28.2c6.4,6.4,15.7,8.7,23.8,6.4l13.8,13.8"/>
		<path class="st6" d="M85.7,105.6l13.8,13.8c-2.3,8.1,0,17.4,6.4,23.8c7.6,7.6,18.9,9.3,28.2,4.9l-16.6-16.6
			c-3.2-3.2-3.2-8.4,0-11.6c3.2-3.2,8.4-3.2,11.6,0l16.6,16.6c4.4-9.3,2.9-20.6-4.9-28.2c-6.4-6.4-15.7-8.7-23.8-6.4l-13.8-13.8"/>
		<g>
			<path class="st6" d="M107,82.5c1.3-3.6,1.8-8,1.9-8.5c0.1-0.5,0.8-6.3,5.7-11.2c4.9-4.9,13.1-13.8,18.1-20
				c5.1-6.1,10-12.1,10-12.2c0.1-0.1,0.3-0.5,0.2-0.7c-0.1-0.2,1.4,0.5,1.8,0.2c0.4-0.4,1.2-1.5,1.7-2.4c0.5-0.9,2.3-3.5,2.4-3.6
				c0.2,0.2,0.8,0.8,0.9,0.9c0.1,0.1,1.4-0.9,2-2.4c0.6-1.7-0.3-3-1.5-4.2c-1.1-1.1-3.2-3.2-3.6-3.6c0,0,0,0-0.1-0.1
				c-0.5-0.5-2.6-2.6-3.6-3.6c-1.1-1.1-2.6-2-4.2-1.5c-1.7,0.6-2.5,1.9-2.4,2c0.1,0.1,0.7,0.8,0.9,0.9c-0.1,0.2-2.6,2-3.6,2.4
				c-0.9,0.5-2,1.3-2.4,1.7c-0.4,0.4,0.5,2,0.2,1.8c-0.2-0.1-0.6,0.2-0.7,0.2c-0.1,0.1-6,5-12.2,10c-6.1,5.1-15,13.2-20,18.1
				c-4.9,4.9-10.7,5.6-11.2,5.7c-0.5,0.1-5,0.6-8.5,1.9c-3.6,1.3-7,5.1-7,5.1s-39.3,40.4-40.9,42c-1.7,1.7-3.1,3.1-5.8,5.5
				c-5.7,5.4-7.9,8.9-7.2,11.6c0.1,0.6,0.3,1.2,0.6,1.8c2.3,5.2,9.5,11.9,10.1,12.5c0.7,0.7,9,9.6,14.3,10.7
				c2.7,0.6,6.2-1.5,11.6-7.2c2.4-2.7,3.9-4.2,5.5-5.8c1.7-1.7,42-40.9,42-40.9S105.7,86,107,82.5z"/>
		</g>
	</g>
</g>
<g id="Contact" class="st0">
	<g class="st2">
		<polyline class="st6" points="68.6,44.9 154.1,44.9 148.3,130.9 62.7,130.9 		"/>
		<rect x="79.2" y="23" class="st4" width="60.6" height="38"/>
		<g>
			<g>
				<circle class="st4" cx="89.3" cy="75.1" r="6.6"/>
				<circle class="st9" cx="89.3" cy="75.1" r="2.2"/>
			</g>
			<g>
				<circle class="st4" cx="108.5" cy="75.1" r="6.6"/>
				<circle class="st9" cx="108.5" cy="75.1" r="2.2"/>
			</g>
			<g>
				<circle class="st4" cx="127.7" cy="75.1" r="6.6"/>
				<circle class="st9" cx="127.7" cy="75.1" r="2.2"/>
			</g>
		</g>
		<g>
			<g>
				<circle class="st4" cx="89.3" cy="93.7" r="6.6"/>
				<circle class="st9" cx="89.3" cy="93.7" r="2.2"/>
			</g>
			<g>
				<circle class="st4" cx="108.5" cy="93.7" r="6.6"/>
				<circle class="st9" cx="108.5" cy="93.7" r="2.2"/>
			</g>
			<g>
				<circle class="st4" cx="127.7" cy="93.7" r="6.6"/>
				<circle class="st9" cx="127.7" cy="93.7" r="2.2"/>
			</g>
		</g>
		<g>
			<g>
				<circle class="st4" cx="89.3" cy="112.4" r="6.6"/>
				<circle class="st9" cx="89.3" cy="112.4" r="2.2"/>
			</g>
			<g>
				<circle class="st4" cx="108.5" cy="112.4" r="6.6"/>
				<circle class="st9" cx="108.5" cy="112.4" r="2.2"/>
			</g>
			<g>
				<circle class="st4" cx="127.7" cy="112.4" r="6.6"/>
				<circle class="st9" cx="127.7" cy="112.4" r="2.2"/>
			</g>
		</g>
		<g>
			<path class="st3" d="M67.7,29.8c-1.2-1.3-3-2.1-4.8-2.1H14.2c-1.8,0-3.5,0.7-4.8,2c-1.3,1.3-1.9,3-1.8,4.8l0.6,16.8l-1.1,8.9
				c-0.4,2.9-0.2,5.9,0.5,8.8l2.2,9.5l3.9,56.1c0.3,5.1,4.4,9,9.4,9h30.1c4.9,0,9-3.9,9.4-9l3.9-57.1l2.1-10.2
				c0.5-2.5,0.7-5.1,0.5-7.7l-0.7-9.1l1.2-15.8C69.6,33,68.9,31.2,67.7,29.8z"/>
		</g>
		<line class="st3" x1="8.2" y1="45.7" x2="68.4" y2="45.7"/>
		<g>
			<g>
				<g>
					<g>
						<path id="XMLID_1473_" class="st4" d="M38.2,59.9c-7.4,0-13.4,6-13.4,13.4c0,7.4,6,13.4,13.4,13.4c7.4,0,13.4-6,13.4-13.4
							C51.6,65.9,45.6,59.9,38.2,59.9z M45.8,81.7L45.8,81.7c-2,1.8-4.7,2.9-7.6,2.9c-2.9,0-5.6-1.1-7.6-2.9l3.9-3.9l1.1-1.1l0.2-4
							L35.4,72l0-1.5h0.9v0.5h0.7v-0.5h0.9v0.5h0.7v-0.5h0.9v0.5H40v-0.5h0.9l0,1.5l-0.4,0.5l0.2,4l1.1,1.1l3.4,3.4l-3.4-3.4
							c1.3-1.1,2.1-2.6,2.1-4.4c0-3.2-2.6-5.7-5.7-5.7s-5.7,2.6-5.7,5.7c0,1.8,0.8,3.4,2.1,4.4l-3.9,3.9c-2.3-2.1-3.7-5-3.7-8.4
							c0-6.2,5.1-11.3,11.3-11.3s11.3,5.1,11.3,11.3C49.5,76.6,48,79.6,45.8,81.7z"/>
						<path id="XMLID_1466_" class="st4" d="M38.2,86.7c-7.4,0-13.4-6-13.4-13.4c0-7.4,6-13.4,13.4-13.4c7.4,0,13.4,6,13.4,13.4
							C51.6,80.7,45.6,86.7,38.2,86.7z"/>
						<g id="XMLID_1455_">
							<path id="XMLID_1465_" class="st5" d="M38.2,62c-6.2,0-11.3,5.1-11.3,11.3c0,3.3,1.4,6.3,3.7,8.4l3.9-3.9
								c-1.3-1.1-2.1-2.6-2.1-4.4c0-3.2,2.6-5.7,5.7-5.7s5.7,2.6,5.7,5.7c0,1.8-0.8,3.4-2.1,4.4l3.4,3.4l0.5,0.5
								c2.3-2.1,3.7-5,3.7-8.4C49.5,67.1,44.4,62,38.2,62z"/>
							<path id="XMLID_1456_" d="M41.8,77.7l-1.1-1.1l-0.2-4l0.4-0.5l0-1.5H40v0.5h-0.7v-0.5h-0.9v0.5h-0.7v-0.5h-0.9v0.5h-0.7v-0.5
								h-0.9l0,1.5l0.4,0.5l-0.2,4l-1.1,1.1l-3.9,3.9c2,1.8,4.7,2.9,7.6,2.9c2.9,0,5.6-1.1,7.6-2.9l0,0l-0.5-0.5L41.8,77.7z"/>
						</g>
					</g>
				</g>
			</g>
		</g>
	</g>
</g>
<g id="Sponsorship" class="st0">
	<g class="st2">
		<g>
			<g>
				<path id="XMLID_1582_" class="st4" d="M78.8,52.3c-11,0-20,8.9-20,20c0,11,8.9,20,20,20c11,0,20-8.9,20-20
					C98.8,61.3,89.9,52.3,78.8,52.3z M90.2,84.8L90.2,84.8c-3,2.7-7,4.4-11.3,4.4c-4.4,0-8.3-1.7-11.3-4.4l5.9-5.9l1.7-1.7l0.4-6
					l-0.6-0.8l-0.1-2.2h1.3v0.8h1v-0.8h1.3v0.8h1v-0.8h1.3v0.8h1v-0.8H83l-0.1,2.2l-0.6,0.8l0.4,6l1.7,1.7l5.1,5.1l-5.1-5.1
					c1.9-1.6,3.1-3.9,3.1-6.6c0-4.7-3.8-8.6-8.6-8.6c-4.7,0-8.6,3.8-8.6,8.6c0,2.6,1.2,5,3.1,6.6l-5.9,5.9
					c-3.4-3.1-5.5-7.5-5.5-12.5c0-9.3,7.5-16.8,16.8-16.8S95.7,63,95.7,72.3C95.7,77.3,93.6,81.7,90.2,84.8z"/>
				<path id="XMLID_1580_" class="st4" d="M78.8,92.3c-11,0-20-8.9-20-20c0-11,8.9-20,20-20c11,0,20,8.9,20,20
					C98.8,83.4,89.9,92.3,78.8,92.3z"/>
				<g id="XMLID_1577_">
					<path id="XMLID_1579_" class="st5" d="M78.8,55.5C69.6,55.5,62,63,62,72.3c0,4.9,2.1,9.4,5.5,12.5l5.9-5.9
						c-1.9-1.6-3.1-3.9-3.1-6.6c0-4.7,3.8-8.6,8.6-8.6c4.7,0,8.6,3.8,8.6,8.6c0,2.6-1.2,5-3.1,6.6l5.1,5.1l0.8,0.8
						c3.4-3.1,5.5-7.5,5.5-12.5C95.7,63,88.1,55.5,78.8,55.5z"/>
					<path id="XMLID_1578_" d="M84.3,78.9l-1.7-1.7l-0.4-6l0.6-0.8l0.1-2.2h-1.3v0.8h-1v-0.8h-1.3v0.8h-1v-0.8H77v0.8h-1v-0.8h-1.3
						l0.1,2.2l0.6,0.8l-0.4,6l-1.7,1.7l-5.9,5.9c3,2.7,7,4.4,11.3,4.4c4.4,0,8.3-1.7,11.3-4.4l0,0L89.4,84L84.3,78.9z"/>
				</g>
			</g>
		</g>
		<path class="st6" d="M18,123.4h-5.6c-4.1,0-7.4-3.3-7.4-7.4V29.9c0-4.1,3.3-7.4,7.4-7.4h132.8c4.1,0,7.4,3.3,7.4,7.4V116
			c0,4.1-3.3,7.4-7.4,7.4H52.6"/>
		<path class="st6" d="M48.8,53.5c16.6-16.6,43.4-16.6,60,0"/>
		<path class="st4" d="M42.6,128.5c-0.9,0.4-1.8,0.4-2.6,0.4c-0.4,0-0.7,0-1.1,0c-1.1,0.7-2.2,1.1-3.5,1.1c-1.3,0-2.4-0.4-3.5-0.9
			c-0.2,0-0.2,0-0.4,0s-0.7,0-0.9,0c-0.9,0-1.8-0.2-2.6-0.4c-0.7-0.2-1.1-0.7-1.8-1.1c-0.2-0.2-0.7-0.2-0.9,0L17.8,138
			c-0.2,0.4,0,0.9,0.4,0.9l5.1,0.2c0.2,0,0.4,0.2,0.4,0.4l1.8,4.6c0.2,0.4,0.7,0.4,1.1,0.2l8.3-11.2c0.2-0.2,0.7-0.2,0.9,0l8.3,11.2
			c0.2,0.4,0.9,0.2,1.1-0.2l1.8-4.6c0-0.2,0.2-0.4,0.4-0.4l5.1-0.2c0.4,0,0.7-0.7,0.4-0.9l-7.7-10.3c-0.2-0.2-0.7-0.4-0.9,0
			C43.9,127.9,43.3,128.3,42.6,128.5z"/>
		<path class="st4" d="M50.5,109.4c0-0.7-0.2-1.3-0.7-2c-0.4-0.4-0.4-1.3-0.4-1.8c0.2-0.7,0.2-1.3-0.2-2c-0.2-0.7-0.9-1.1-1.3-1.5
			c-0.4-0.2-0.9-0.9-0.9-1.3c0-0.7-0.4-1.3-0.9-1.8c-0.4-0.4-1.1-0.9-1.8-0.9c-0.7,0-1.1-0.4-1.3-0.9c-0.4-0.7-0.9-1.1-1.5-1.3
			c-0.7-0.2-1.3-0.4-2.2-0.2c-0.7,0.2-1.3,0-2-0.4c-0.4-0.4-1.3-0.7-2-0.7c-0.7,0-1.3,0.2-2,0.7c-0.4,0.4-1.3,0.4-1.8,0.4
			c-0.7-0.2-1.3-0.2-2,0.2c-0.7,0.2-1.1,0.9-1.5,1.3c-0.2,0.4-0.9,0.9-1.3,0.9c-0.7,0-1.3,0.4-1.8,0.9c-0.4,0.4-0.9,1.1-0.9,1.8
			c0,0.7-0.4,1.1-0.9,1.3c-0.7,0.4-1.1,0.9-1.3,1.5c-0.2,0.7-0.4,1.3-0.2,2.2c0.2,0.7,0,1.3-0.4,2c-0.4,0.4-0.7,1.3-0.7,2
			s0.2,1.3,0.7,2c0.4,0.4,0.4,1.3,0.4,1.8c-0.2,0.7-0.2,1.3,0.2,2c0.2,0.7,0.9,1.1,1.3,1.5c0.4,0.2,0.9,0.9,0.9,1.3
			c0,0.7,0.4,1.3,0.9,1.8c0.4,0.4,1.1,0.9,1.8,0.9c0.7,0,1.1,0.4,1.3,0.9c0.4,0.7,0.9,1.1,1.5,1.3c0.7,0.2,1.3,0.4,2.2,0.2
			c0.7-0.2,1.3,0,2,0.4c0.4,0.4,1.3,0.7,2,0.7s1.3-0.2,2-0.7c0.4-0.4,1.3-0.4,1.8-0.4c0.7,0.2,1.3,0.2,2-0.2
			c0.7-0.2,1.1-0.9,1.5-1.3c0.2-0.4,0.9-0.9,1.3-0.9c0.7,0,1.3-0.4,1.8-0.9c0.4-0.4,0.9-1.1,0.9-1.8c0-0.7,0.4-1.1,0.9-1.3
			c0.7-0.4,1.1-0.9,1.3-1.5c0.2-0.7,0.4-1.3,0.2-2.2c-0.2-0.7,0-1.3,0.4-2C50.3,110.9,50.5,110.3,50.5,109.4z"/>
		<line class="st6" x1="104.8" y1="96" x2="139.4" y2="96"/>
		<line class="st6" x1="127.5" y1="35.8" x2="139.4" y2="35.8"/>
		<line class="st6" x1="17.7" y1="35.8" x2="29.6" y2="35.8"/>
		<line class="st6" x1="104.8" y1="107.8" x2="139.4" y2="107.8"/>
	</g>
</g>
<g id="Calander" class="st0">
	<g class="st2">
		<g>
			<rect x="10.8" y="8.5" class="st4" width="136.3" height="34.4"/>
			<path class="st6" d="M138.3,151H21.6c-5.9,0-10.7-4.8-10.7-13.4V14.9c0-3.2,4.8-8,10.7-8h116.7c5.9,0,10.7,4.8,10.7,10.7v122.7
				C149,146.2,144.2,151,138.3,151z"/>
		</g>
		<g>
			<g>
				<g>
					<circle class="st5" cx="38" cy="24.6" r="11.8"/>
					<circle class="st4" cx="38" cy="24.6" r="4"/>
				</g>
			</g>
			<g>
				<g>
					<circle class="st5" cx="121.9" cy="24.6" r="11.8"/>
					<circle class="st4" cx="121.9" cy="24.6" r="4"/>
				</g>
			</g>
		</g>
		<text transform="matrix(1 0 0 1 34.0267 129.3976)" class="st4 st11 st12 st13">22</text>
	</g>
</g>
<g id="_x34_04" class="st0">
	<g class="st2">
		<g>
			<g>
				<path id="XMLID_1590_" class="st4" d="M138,76.4c-6.2,0-11.2,5-11.2,11.2c0,6.2,5,11.2,11.2,11.2c6.2,0,11.2-5,11.2-11.2
					C149.2,81.4,144.2,76.4,138,76.4z M144.3,94.6L144.3,94.6c-1.7,1.5-3.9,2.5-6.3,2.5s-4.7-0.9-6.3-2.5l3.3-3.3l0.9-0.9L136,87
					l-0.3-0.4l0-1.2h0.7v0.5h0.6v-0.5h0.7v0.5h0.6v-0.5h0.7v0.5h0.6v-0.5h0.7l0,1.2l-0.3,0.4l0.2,3.4l0.9,0.9l2.9,2.9l-2.9-2.9
					c1.1-0.9,1.7-2.2,1.7-3.7c0-2.6-2.2-4.8-4.8-4.8c-2.6,0-4.8,2.2-4.8,4.8c0,1.5,0.7,2.8,1.7,3.7l-3.3,3.3c-1.9-1.7-3.1-4.2-3.1-7
					c0-5.2,4.2-9.4,9.4-9.4c5.2,0,9.4,4.2,9.4,9.4C147.4,90.4,146.2,92.8,144.3,94.6z"/>
				<path id="XMLID_1588_" class="st4" d="M138,98.8c-6.2,0-11.2-5-11.2-11.2c0-6.2,5-11.2,11.2-11.2c6.2,0,11.2,5,11.2,11.2
					C149.2,93.8,144.2,98.8,138,98.8z"/>
				<g id="XMLID_1585_">
					<path id="XMLID_1587_" class="st5" d="M138,78.2c-5.2,0-9.4,4.2-9.4,9.4c0,2.8,1.2,5.3,3.1,7l3.3-3.3c-1.1-0.9-1.7-2.2-1.7-3.7
						c0-2.6,2.2-4.8,4.8-4.8c2.6,0,4.8,2.2,4.8,4.8c0,1.5-0.7,2.8-1.7,3.7l2.9,2.9l0.4,0.4c1.9-1.7,3.1-4.2,3.1-7
						C147.4,82.4,143.2,78.2,138,78.2z"/>
					<path id="XMLID_1586_" d="M141,91.3l-0.9-0.9l-0.2-3.4l0.3-0.4l0-1.2h-0.7v0.5H139v-0.5h-0.7v0.5h-0.6v-0.5H137v0.5h-0.6v-0.5
						h-0.7l0,1.2L136,87l-0.2,3.4l-0.9,0.9l-3.3,3.3c1.7,1.5,3.9,2.5,6.3,2.5s4.7-0.9,6.3-2.5l0,0l-0.4-0.4L141,91.3z"/>
				</g>
			</g>
		</g>
		<g>
			<path class="st6" d="M154.2,72.8c-1.3-2.8-3.6-5.6-3.8-6s-3.1-4.1-3.1-9.7s-0.4-15.4-1-21.8c-0.6-6.4-1.2-12.6-1.3-12.7
				c0-0.1-0.1-0.4-0.3-0.5s1.1-0.5,1.1-1s-0.2-1.6-0.4-2.3c-0.3-0.8-0.7-3.3-0.7-3.5c0.2,0,1,0,1,0c0.1,0,0.3-1.3-0.3-2.5
				c-0.6-1.3-1.9-1.6-3.3-1.6c-1.2,0-3.6,0-4.2,0c0,0,0,0-0.1,0c-0.5,0-2.9,0-4.2,0c-1.3,0-2.7,0.3-3.3,1.6
				c-0.6,1.3-0.3,2.5-0.3,2.5c0.1,0,0.9,0.1,1,0c0.1,0.2-0.3,2.6-0.7,3.5c-0.3,0.8-0.4,1.9-0.4,2.3s1.4,0.9,1.1,1
				c-0.2,0.1-0.3,0.4-0.3,0.5s-0.6,6.3-1.3,12.7c-0.6,6.4-1,16.2-1,21.8s-2.9,9.4-3.1,9.7c-0.3,0.3-2.5,3.2-3.8,6
				c-1.3,2.8-1,6.9-1,6.9s0.6,45.6,0.6,47.5c0,1.9,0,3.6-0.2,6.5c-0.2,6.4,0.6,9.6,2.5,10.7c0.4,0.3,0.9,0.5,1.4,0.7
				c4.3,1.7,12.2,1.4,12.9,1.4c0.8,0,10.7,0.3,14.3-2.1c1.9-1.2,2.7-4.4,2.5-10.7c-0.2-2.9-0.2-4.6-0.2-6.5c0-1.9,0.6-47.5,0.6-47.5
				S155.5,75.6,154.2,72.8z"/>
		</g>
		<g>
			<rect x="5.9" y="45.5" class="st4" width="103" height="11.7"/>
			<path class="st6" d="M100.9,128.4h-87c-4.4,0-8-3.6-8-10V48.9c0-2.4,3.6-6,8-6h87c4.4,0,8,3.6,8,8v69.5
				C108.9,124.8,105.3,128.4,100.9,128.4z"/>
			<circle class="st5" cx="11.9" cy="50.1" r="2.4"/>
			<circle class="st5" cx="18.7" cy="50.1" r="2.4"/>
			<circle class="st5" cx="25.5" cy="50.1" r="2.4"/>
		</g>
		<g>
			<g>
				<line class="st14" x1="26.1" y1="71.2" x2="37.6" y2="82.7"/>
				<line class="st14" x1="37.6" y1="71.2" x2="26.1" y2="82.7"/>
			</g>
			<g>
				<line class="st14" x1="77.2" y1="71.2" x2="88.7" y2="82.7"/>
				<line class="st14" x1="88.7" y1="71.2" x2="77.2" y2="82.7"/>
			</g>
		</g>
		<g>
			<line class="st14" x1="73.2" y1="100" x2="41.6" y2="100"/>
			<path class="st14" d="M63.3,100.4v6.1c0,2.7,2.2,4.9,4.9,4.9s4.9-2.2,4.9-4.9v-6.1"/>
		</g>
	</g>
</g>
<g id="Brewery_Bar" class="st0">
	<g class="st2">
		<g>
			<g>
				<path class="st3" d="M110.5,53.9c-0.9-0.9-2.1-1.5-3.4-1.5H72.9c-1.3,0-2.5,0.5-3.3,1.4c-0.9,0.9-1.3,2.1-1.3,3.4L68.7,69
					l-0.8,6.2c-0.3,2.1-0.2,4.1,0.3,6.1l1.6,6.7l2.7,39.4c0.2,3.6,3.1,6.4,6.6,6.4h21.1c3.4,0,6.3-2.8,6.6-6.3l2.8-40.1l1.5-7.1
					c0.4-1.8,0.5-3.6,0.3-5.4l-0.5-6.4l0.8-11.1C111.8,56.1,111.3,54.8,110.5,53.9z"/>
			</g>
			<line class="st3" x1="68.7" y1="65.1" x2="111" y2="65.1"/>
			<g>
				<g>
					<g>
						<g>
							<path id="XMLID_39_" class="st4" d="M89.7,72.6c-5.7,0-10.3,4.6-10.3,10.3c0,5.7,4.6,10.3,10.3,10.3
								c5.7,0,10.3-4.6,10.3-10.3C100,77.2,95.4,72.6,89.7,72.6z M95.5,89.3L95.5,89.3c-1.5,1.4-3.6,2.2-5.8,2.2s-4.3-0.9-5.8-2.2
								l3-3l0.8-0.8l0.2-3.1l-0.3-0.4l0-1.1h0.7v0.4h0.5v-0.4h0.7v0.4H90v-0.4h0.7v0.4h0.5v-0.4h0.7l0,1.1l-0.3,0.4l0.2,3.1l0.9,0.9
								l2.6,2.6l-2.6-2.6c1-0.8,1.6-2,1.6-3.4c0-2.4-2-4.4-4.4-4.4c-2.4,0-4.4,2-4.4,4.4c0,1.4,0.6,2.6,1.6,3.4l-3,3
								c-1.7-1.6-2.8-3.9-2.8-6.4c0-4.8,3.9-8.6,8.6-8.6c4.8,0,8.6,3.9,8.6,8.6C98.4,85.4,97.3,87.7,95.5,89.3z"/>
							<path id="XMLID_32_" class="st4" d="M89.7,93.2c-5.7,0-10.3-4.6-10.3-10.3c0-5.7,4.6-10.3,10.3-10.3
								c5.7,0,10.3,4.6,10.3,10.3C100,88.6,95.4,93.2,89.7,93.2z"/>
							<g id="XMLID_3_">
								<path id="XMLID_30_" class="st5" d="M89.7,74.3c-4.8,0-8.6,3.9-8.6,8.6c0,2.5,1.1,4.8,2.8,6.4l3-3c-1-0.8-1.6-2-1.6-3.4
									c0-2.4,2-4.4,4.4-4.4c2.4,0,4.4,2,4.4,4.4c0,1.4-0.6,2.6-1.6,3.4l2.6,2.6l0.4,0.4c1.7-1.6,2.8-3.9,2.8-6.4
									C98.4,78.1,94.5,74.3,89.7,74.3z"/>
								<path id="XMLID_21_" d="M92.5,86.3l-0.9-0.9l-0.2-3.1l0.3-0.4l0-1.1h-0.7v0.4h-0.5v-0.4H90v0.4h-0.5v-0.4h-0.7v0.4h-0.5
									v-0.4h-0.7l0,1.1l0.3,0.4l-0.2,3.1l-0.8,0.8l-3,3c1.5,1.4,3.6,2.2,5.8,2.2s4.3-0.9,5.8-2.2l0,0l-0.4-0.4L92.5,86.3z"/>
							</g>
						</g>
					</g>
				</g>
			</g>
		</g>
		<rect x="32.5" y="35.4" class="st6" width="114.5" height="115"/>
		<line class="st6" x1="11" y1="6" x2="11" y2="26"/>
		<line class="st6" x1="12" y1="15" x2="146" y2="15"/>
		<line class="st6" x1="69" y1="16" x2="69" y2="34"/>
		<line class="st3" x1="105" y1="16" x2="105" y2="34"/>
	</g>
</g>
<g id="Find_Beer">
	<g>
		<polygon class="st6" points="152.2,135.9 104.6,115.3 57,135.9 9.4,115.3 9.4,29.9 57,50.5 104.6,29.9 152.2,50.5 		"/>
		<line class="st6" x1="57" y1="50.5" x2="57" y2="134.9"/>
		<line class="st6" x1="104.6" y1="29.9" x2="104.6" y2="115.3"/>
		<g>
			<g>
				<path class="st15" d="M20.6,92.3c1.2,2,2.6,3.9,4.3,5.5"/>
				<path class="st16" d="M36.3,104.8c6.7,2.3,14.3,2.3,20.8-0.6c14.7-6.5,21.1-23.5,31-36.1c4-5.1,9.5-9.9,16-9.8
					c4.4,0,8.1,2.2,11.3,5.4"/>
				<path class="st15" d="M119.7,68.9c1.3,1.9,2.6,4,3.7,6"/>
			</g>
		</g>
		<g>
			<g>
				<path id="XMLID_649_" class="st4" d="M127.9,71.4c-8.6,0-15.6,7-15.6,15.6c0,8.6,7,15.6,15.6,15.6c8.6,0,15.6-7,15.6-15.6
					C143.5,78.4,136.5,71.4,127.9,71.4z M136.7,96.8L136.7,96.8c-2.3,2.1-5.4,3.4-8.9,3.4s-6.5-1.3-8.9-3.4l4.6-4.6l1.3-1.3l0.3-4.7
					l-0.5-0.6l0-1.7h1v0.6h0.8v-0.6h1v0.6h0.8v-0.6h1v0.6h0.8v-0.6h1l0,1.7l-0.5,0.6l0.3,4.7l1.3,1.3l4,4l-4-4
					c1.5-1.2,2.4-3.1,2.4-5.2c0-3.7-3-6.7-6.7-6.7c-3.7,0-6.7,3-6.7,6.7c0,2.1,0.9,3.9,2.4,5.2l-4.6,4.6c-2.6-2.4-4.3-5.9-4.3-9.7
					c0-7.3,5.9-13.2,13.2-13.2c7.3,0,13.2,5.9,13.2,13.2C141,90.9,139.4,94.4,136.7,96.8z"/>
				<path id="XMLID_647_" class="st4" d="M127.9,102.7c-8.6,0-15.6-7-15.6-15.6c0-8.6,7-15.6,15.6-15.6c8.6,0,15.6,7,15.6,15.6
					C143.5,95.7,136.5,102.7,127.9,102.7z"/>
				<g id="XMLID_643_">
					<path id="XMLID_646_" class="st5" d="M127.9,73.8c-7.3,0-13.2,5.9-13.2,13.2c0,3.9,1.7,7.3,4.3,9.7l4.6-4.6
						c-1.5-1.2-2.4-3.1-2.4-5.2c0-3.7,3-6.7,6.7-6.7c3.7,0,6.7,3,6.7,6.7c0,2.1-0.9,3.9-2.4,5.2l4,4l0.6,0.6
						c2.6-2.4,4.3-5.9,4.3-9.7C141,79.7,135.1,73.8,127.9,73.8z"/>
					<path id="XMLID_644_" d="M132.1,92.2l-1.3-1.3l-0.3-4.7l0.5-0.6l0-1.7h-1v0.6h-0.8v-0.6h-1v0.6h-0.8v-0.6h-1v0.6h-0.8v-0.6h-1
						l0,1.7l0.5,0.6l-0.3,4.7l-1.3,1.3l-4.6,4.6c2.3,2.1,5.4,3.4,8.9,3.4s6.5-1.3,8.9-3.4l0,0l-0.6-0.6L132.1,92.2z"/>
				</g>
			</g>
		</g>
	</g>
</g>
<g id="Brewery_1_" class="st0">
	<g class="st2">
		<g>
			<path class="st4" d="M157.8,137h-2.9v-11.3c0-3.6-2.3-6.6-5.5-7.7V37c0-6-4.9-10.9-10.9-10.9c-6,0-10.9,4.9-10.9,10.9v19.6h-2.9
				c-4.5,0-8.1,3.7-8.1,8.1v27.7c0,1.6-1.3,2.9-2.9,2.9h-2.9V37c0-6-4.9-10.9-10.9-10.9c-6,0-10.9,4.9-10.9,10.9v19.6h-2.9
				c-4.5,0-8.1,3.7-8.1,8.1v27.7c0,1.6-1.3,2.9-2.9,2.9h-2.9V37c0-5.1-3.5-9.4-8.3-10.6V26c0-4.5-3.7-8.1-8.1-8.1H27.5
				c-4.5,0-8.1,3.7-8.1,8.1v33.4h-0.2c-3,0-5.4,2.4-5.4,5.4v6C9.1,72,5.5,76.3,5.5,81.4V137H2.6c-1.4,0-2.6,1.2-2.6,2.6
				c0,1.4,1.2,2.6,2.6,2.6h155.2c1.4,0,2.6-1.2,2.6-2.6C160.4,138.1,159.2,137,157.8,137L157.8,137z M149.6,137H141v-6.2
				c3.7-0.9,6.6-3.6,7.8-7.2c0.6,0.5,0.9,1.3,0.9,2.1V137z M128,123.6c1.2,3.5,4.1,6.3,7.8,7.2v6.2h-8.7v-11.3
				C127.1,124.9,127.5,124.1,128,123.6L128,123.6z M144.1,120.2c0,3.2-2.6,5.7-5.7,5.7c-3.2,0-5.7-2.6-5.7-5.7v-8.5h11.4V120.2z
				 M132.7,37c0-3.2,2.6-5.7,5.7-5.7c3.2,0,5.7,2.6,5.7,5.7v69.5h-11.4V37z M113.4,100.6c4.5,0,8.1-3.7,8.1-8.1V64.8
				c0-1.6,1.3-2.9,2.9-2.9h2.9V118c-3.2,1.1-5.5,4.1-5.5,7.7V137H116v-11.3c0-3.6-2.3-6.6-5.5-7.7v-17.4H113.4z M89.2,123.6
				c1.2,3.5,4.1,6.3,7.8,7.2v6.2h-8.7v-11.3C88.3,124.9,88.7,124.1,89.2,123.6L89.2,123.6z M105.3,120.2c0,3.2-2.6,5.7-5.7,5.7
				c-3.2,0-5.7-2.6-5.7-5.7v-8.5h11.4V120.2z M102.2,130.8c3.7-0.9,6.6-3.6,7.8-7.2c0.6,0.5,0.9,1.3,0.9,2.1V137h-8.7V130.8z
				 M93.9,37c0-3.2,2.6-5.7,5.7-5.7c3.2,0,5.7,2.6,5.7,5.7v69.5H93.9V37z M74.6,100.6c4.5,0,8.1-3.7,8.1-8.1V64.8
				c0-1.6,1.3-2.9,2.9-2.9h2.9V118c-3.2,1.1-5.5,4.1-5.5,7.7V137h-5.9v-11.3c0-3.6-2.3-6.6-5.5-7.7v-17.4H74.6z M50.4,123.6
				c1.2,3.5,4.1,6.3,7.8,7.2v6.2h-8.7v-11.3C49.5,124.9,49.9,124.1,50.4,123.6L50.4,123.6z M66.5,120.2c0,3.2-2.6,5.7-5.7,5.7
				c-3.2,0-5.7-2.6-5.7-5.7v-8.5h11.4V120.2z M63.4,130.8c3.7-0.9,6.6-3.6,7.8-7.2c0.6,0.5,0.9,1.3,0.9,2.1V137h-8.7V130.8z
				 M66.5,37v69.5H55.1V37c0-3.2,2.6-5.7,5.7-5.7C63.9,31.3,66.5,33.9,66.5,37L66.5,37z M24.6,26c0-1.6,1.3-2.9,2.9-2.9h27.7
				c1.6,0,2.9,1.3,2.9,2.9v0.5c-4.8,1.2-8.3,5.5-8.3,10.6v81c-3.2,1.1-5.5,4.1-5.5,7.7V137h-5.9V81.4c0-5.1-3.5-9.4-8.3-10.6v-6
				c0-3-2.4-5.4-5.4-5.4h-0.2V26z M33.3,114.8H10.7V86.8h22.5V114.8z M10.7,120h22.5v5.9H10.7V120z M19.2,64.6h5.5
				c0.1,0,0.2,0.1,0.2,0.2v5.7h-5.9v-5.7C19.1,64.7,19.1,64.6,19.2,64.6L19.2,64.6z M16.5,75.7h11.1c3.2,0,5.7,2.6,5.7,5.7v0.2H10.7
				v-0.2C10.7,78.2,13.3,75.7,16.5,75.7L16.5,75.7z M10.7,131.1h22.5v5.9H10.7V131.1z M10.7,131.1"/>
		</g>
		<g>
			<g>
				<path id="XMLID_571_" class="st4" d="M99.6,44.4c-8,0-14.5,6.5-14.5,14.5c0,8,6.5,14.5,14.5,14.5c8,0,14.5-6.5,14.5-14.5
					C114,50.9,107.6,44.4,99.6,44.4z M107.8,67.9L107.8,67.9c-2.2,2-5,3.2-8.2,3.2s-6-1.2-8.2-3.2l4.2-4.2l1.2-1.2l0.3-4.4l-0.4-0.6
					l0-1.6h1v0.6h0.7V56h1v0.6h0.7V56h1v0.6h0.7V56h1l0,1.6l-0.4,0.6l0.3,4.4l1.2,1.2l3.7,3.7l-3.7-3.7c1.4-1.1,2.2-2.9,2.2-4.8
					c0-3.4-2.8-6.2-6.2-6.2c-3.4,0-6.2,2.8-6.2,6.2c0,1.9,0.9,3.6,2.2,4.8l-4.2,4.2c-2.4-2.2-4-5.4-4-9c0-6.7,5.5-12.2,12.2-12.2
					c6.7,0,12.2,5.5,12.2,12.2C111.8,62.5,110.2,65.7,107.8,67.9z"/>
				<path id="XMLID_568_" class="st4" d="M99.6,73.4c-8,0-14.5-6.5-14.5-14.5c0-8,6.5-14.5,14.5-14.5c8,0,14.5,6.5,14.5,14.5
					C114,66.9,107.6,73.4,99.6,73.4z"/>
				<g id="XMLID_564_">
					<path id="XMLID_566_" class="st5" d="M99.6,46.7c-6.7,0-12.2,5.5-12.2,12.2c0,3.6,1.5,6.8,4,9l4.2-4.2
						c-1.4-1.1-2.2-2.9-2.2-4.8c0-3.4,2.8-6.2,6.2-6.2c3.4,0,6.2,2.8,6.2,6.2c0,1.9-0.9,3.6-2.2,4.8l3.7,3.7l0.6,0.6
						c2.4-2.2,4-5.4,4-9C111.8,52.2,106.3,46.7,99.6,46.7z"/>
					<path id="XMLID_565_" d="M103.5,63.7l-1.2-1.2l-0.3-4.4l0.4-0.6l0-1.6h-1v0.6h-0.7V56h-1v0.6h-0.7V56h-1v0.6h-0.7V56h-1l0,1.6
						l0.4,0.6l-0.3,4.4l-1.2,1.2l-4.2,4.2c2.2,2,5,3.2,8.2,3.2s6-1.2,8.2-3.2l0,0l-0.6-0.6L103.5,63.7z"/>
				</g>
			</g>
		</g>
	</g>
</g>
<g id="Play" class="st0">
	<g class="st2">
		<circle class="st6" cx="79.9" cy="81.2" r="67.5"/>
		<polygon class="st17" points="61.3,112.9 110.6,81.2 61.3,49.4 		"/>
	</g>
</g>
<g id="Beers" class="st0">
	<g class="st2">
		<rect x="14.8" y="70.6" class="st6" width="132.7" height="80.1"/>
		<g>
			<g>
				<g id="XMLID_674_">
					<path class="st4" d="M81.1,87.1c-13,0-23.6,10.6-23.6,23.6c0,13,10.6,23.6,23.6,23.6c13,0,23.6-10.6,23.6-23.6
						C104.7,97.7,94.1,87.1,81.1,87.1z M94.4,125.4L94.4,125.4c-3.5,3.2-8.2,5.2-13.3,5.2c-5.1,0-9.8-2-13.3-5.2l6.9-6.9l2-2
						l0.4-7.1l-0.7-0.9l-0.1-2.6h1.6v0.9H79v-0.9h1.6v0.9h1.2v-0.9h1.6v0.9h1.2v-0.9h1.6l-0.1,2.6l-0.7,0.9l0.4,7.1l2,2l6,6l-6-6
						c2.2-1.9,3.7-4.6,3.7-7.8c0-5.6-4.5-10.1-10.1-10.1S71,105.1,71,110.7c0,3.1,1.4,5.9,3.7,7.8l-6.9,6.9c-4-3.6-6.5-8.9-6.5-14.7
						c0-11,8.9-19.8,19.8-19.8s19.8,8.9,19.8,19.8C100.9,116.5,98.4,121.7,94.4,125.4z"/>
				</g>
				<g id="XMLID_640_">
					<path class="st4" d="M81.1,134.2c-13,0-23.6-10.6-23.6-23.6c0-13,10.6-23.6,23.6-23.6c13,0,23.6,10.6,23.6,23.6
						C104.7,123.7,94.1,134.2,81.1,134.2z"/>
				</g>
				<g id="XMLID_604_">
					<g id="XMLID_630_">
						<path class="st18" d="M81.1,90.8c-11,0-19.8,8.9-19.8,19.8c0,5.8,2.5,11.1,6.5,14.7l6.9-6.9c-2.2-1.9-3.7-4.6-3.7-7.8
							c0-5.6,4.5-10.1,10.1-10.1s10.1,4.5,10.1,10.1c0,3.1-1.4,5.9-3.7,7.8l6,6l0.9,0.9c4-3.6,6.5-8.9,6.5-14.7
							C100.9,99.7,92.1,90.8,81.1,90.8z"/>
					</g>
					<g id="XMLID_605_">
						<path d="M87.5,118.4l-2-2l-0.4-7.1l0.7-0.9l0.1-2.6h-1.6v0.9h-1.2v-0.9h-1.6v0.9h-1.2v-0.9H79v0.9h-1.2v-0.9h-1.6l0.1,2.6
							l0.7,0.9l-0.4,7.1l-2,2l-6.9,6.9c3.5,3.2,8.2,5.2,13.3,5.2c5.1,0,9.8-2,13.3-5.2l0,0l-0.9-0.9L87.5,118.4z"/>
					</g>
				</g>
			</g>
		</g>
		<path class="st3" d="M96.4,69.9c0,0,0.3-3.7-0.8-6.1s-3.1-5-3.4-5.3c-0.2-0.3-2.8-3.6-2.8-8.6S89,36.2,88.5,30.5
			c-0.5-5.7-1.1-11.2-1.2-11.3c0-0.1-0.1-0.4-0.2-0.5c-0.2-0.1,1-0.5,1-0.8c0-0.4-0.2-1.4-0.4-2.1c-0.2-0.7-0.6-2.9-0.6-3.1
			c0.2,0,0.8,0,0.9,0s0.2-1.2-0.2-2.2c-0.5-1.2-1.7-1.4-2.9-1.4c-1.1,0-3.2,0-3.7,0c0,0,0,0-0.1,0c-0.5,0-2.6,0-3.7,0
			c-1.2,0-2.4,0.3-2.9,1.4c-0.5,1.2-0.3,2.2-0.2,2.2c0.1,0,0.8,0.1,0.9,0c0.1,0.2-0.3,2.3-0.6,3.1c-0.2,0.7-0.4,1.7-0.4,2.1
			c0,0.4,1.2,0.8,1,0.8c-0.2,0.1-0.2,0.4-0.2,0.5s-0.5,5.6-1.2,11.3c-0.5,5.7-0.9,14.3-0.9,19.3s-2.6,8.3-2.8,8.6
			c-0.2,0.3-2.2,2.8-3.4,5.3c-1.2,2.5-0.9,6.1-0.9,6.1"/>
		<path class="st3" d="M138.9,69.9c0,0,0.3-3.7-0.8-6.1s-3.1-5-3.4-5.3s-2.8-3.6-2.8-8.6s-0.4-13.7-0.9-19.3s-1.1-11.2-1.2-11.3
			c0-0.1-0.1-0.4-0.2-0.5c-0.2-0.1,1-0.5,1-0.8c0-0.4-0.2-1.4-0.4-2.1c-0.2-0.7-0.6-2.9-0.6-3.1c0.2,0,0.8,0,0.9,0s0.2-1.2-0.2-2.2
			c-0.5-1.2-1.7-1.4-2.9-1.4c-1.1,0-3.2,0-3.7,0c0,0,0,0-0.1,0c-0.5,0-2.6,0-3.7,0c-1.2,0-2.4,0.3-2.9,1.4c-0.5,1.2-0.3,2.2-0.2,2.2
			c0.1,0,0.8,0.1,0.9,0c0.1,0.2-0.3,2.3-0.6,3.1c-0.2,0.7-0.4,1.7-0.4,2.1c0,0.4,1.2,0.8,1,0.8c-0.2,0.1-0.2,0.4-0.2,0.5
			s-0.5,5.6-1.2,11.3c-0.5,5.7-0.9,14.3-0.9,19.3s-2.6,8.3-2.8,8.6c-0.2,0.3-2.2,2.8-3.4,5.3c-1.2,2.5-0.9,6.1-0.9,6.1"/>
		<path class="st3" d="M53.5,69.9c0,0,0.3-3.7-0.8-6.1s-3.1-5-3.4-5.3c-0.2-0.3-2.8-3.6-2.8-8.6s-0.4-13.7-0.9-19.3
			s-1.1-11.2-1.2-11.3c0-0.1-0.1-0.4-0.2-0.5c-0.2-0.1,1-0.5,1-0.8c0-0.4-0.2-1.4-0.4-2.1c-0.2-0.7-0.6-2.9-0.6-3.1
			c0.2,0,0.8,0,0.9,0c0.1,0,0.2-1.2-0.2-2.2c-0.5-1.2-1.7-1.4-2.9-1.4c-1.1,0-3.2,0-3.7,0c0,0,0,0-0.1,0c-0.5,0-2.6,0-3.7,0
			c-1.2,0-2.4,0.3-2.9,1.4c-0.5,1.2-0.3,2.2-0.2,2.2c0.1,0,0.8,0.1,0.9,0c0.1,0.2-0.3,2.3-0.6,3.1c-0.2,0.7-0.4,1.7-0.4,2.1
			c0,0.4,1.2,0.8,1,0.8c-0.2,0.1-0.2,0.4-0.2,0.5s-0.5,5.6-1.2,11.3c-0.5,5.7-0.9,14.3-0.9,19.3s-2.6,8.3-2.8,8.6
			c-0.2,0.3-2.2,2.8-3.4,5.3c-1.2,2.5-0.9,6.1-0.9,6.1"/>
	</g>
</g>
<g id="Beer_Team_2_" class="st0">
	<g class="st2">
		<g>
			<path class="st3" d="M104.7,27.8c-1.1-1.1-2.5-1.8-4.1-1.8H59.4c-1.5,0-3,0.6-4,1.7c-1.1,1.1-1.6,2.6-1.6,4.1l0.5,14.2l-1,7.5
				c-0.3,2.5-0.2,5,0.4,7.4l1.9,8.1l3.3,47.5c0.2,4.3,3.7,7.7,7.9,7.7h25.5c4.2,0,7.6-3.3,7.9-7.6l3.3-48.3l1.8-8.6
				c0.4-2.1,0.6-4.3,0.4-6.5l-0.6-7.7l1-13.4C106.3,30.5,105.7,29,104.7,27.8z"/>
		</g>
		<line class="st3" x1="54.4" y1="41.3" x2="105.3" y2="41.3"/>
		<g>
			<g>
				<g>
					<g>
						<path id="XMLID_1452_" class="st4" d="M79.7,52.1c-6.7,0-12.1,5.4-12.1,12.1c0,6.7,5.4,12.1,12.1,12.1
							c6.7,0,12.1-5.4,12.1-12.1C91.8,57.6,86.4,52.1,79.7,52.1z M86.6,71.8L86.6,71.8c-1.8,1.7-4.2,2.7-6.9,2.7
							c-2.6,0-5.1-1-6.9-2.7l3.6-3.6l1-1l0.2-3.7l-0.4-0.5l0-1.3H78v0.5h0.6v-0.5h0.8v0.5H80v-0.5h0.8v0.5h0.6v-0.5h0.8l0,1.3
							l-0.4,0.5l0.2,3.7l1,1l3.1,3.1L83,68.3c1.2-1,1.9-2.4,1.9-4c0-2.9-2.3-5.2-5.2-5.2c-2.9,0-5.2,2.3-5.2,5.2c0,1.6,0.7,3,1.9,4
							l-3.6,3.6c-2.1-1.9-3.3-4.6-3.3-7.6C69.5,58.6,74,54,79.7,54c5.6,0,10.2,4.6,10.2,10.2C89.9,67.3,88.6,70,86.6,71.8z"/>
						<path id="XMLID_1319_" class="st4" d="M79.7,76.4c-6.7,0-12.1-5.4-12.1-12.1c0-6.7,5.4-12.1,12.1-12.1
							c6.7,0,12.1,5.4,12.1,12.1C91.8,71,86.4,76.4,79.7,76.4z"/>
						<g id="XMLID_1112_">
							<path id="XMLID_1318_" class="st5" d="M79.7,54c-5.6,0-10.2,4.6-10.2,10.2c0,3,1.3,5.7,3.3,7.6l3.6-3.6c-1.2-1-1.9-2.4-1.9-4
								c0-2.9,2.3-5.2,5.2-5.2c2.9,0,5.2,2.3,5.2,5.2c0,1.6-0.7,3-1.9,4l3.1,3.1l0.5,0.5c2.1-1.9,3.3-4.6,3.3-7.6
								C89.9,58.6,85.3,54,79.7,54z"/>
							<path id="XMLID_1317_" d="M83,68.3l-1-1l-0.2-3.7l0.4-0.5l0-1.3h-0.8v0.5h-0.6v-0.5H80v0.5h-0.6v-0.5h-0.8v0.5H78v-0.5h-0.8
								l0,1.3l0.4,0.5l-0.2,3.7l-1,1l-3.6,3.6c1.8,1.7,4.2,2.7,6.9,2.7c2.6,0,5.1-1,6.9-2.7l0,0l-0.5-0.5L83,68.3z"/>
						</g>
					</g>
				</g>
			</g>
		</g>
		<g>
			<path class="st6" d="M79.7,9.2c27,0,54,4.7,54,4.7v72.8c0,0-3.4,48.3-54,66.9c-50.7-18.6-54-66.9-54-66.9V14
				C25.7,14,52.7,9.2,79.7,9.2z"/>
		</g>
	</g>
</g>
<g id="Sell_Our_Beers" class="st0">
	<g class="st2">
		<g>
			<g>
				<path class="st6" d="M79.4,68.2c-0.9-1-2.2-1.6-3.6-1.6H39.6c-1.3,0-2.6,0.5-3.5,1.5c-0.9,1-1.4,2.2-1.4,3.6l0.4,12.5l-0.8,6.6
					c-0.3,2.2-0.2,4.4,0.3,6.5l1.7,7.1l2.9,41.8c0.2,3.8,3.3,6.7,7,6.7h22.4c3.7,0,6.7-2.9,7-6.7l2.9-42.6l1.6-7.6
					c0.4-1.9,0.5-3.8,0.4-5.7l-0.5-6.8l0.9-11.8C80.8,70.6,80.3,69.2,79.4,68.2z"/>
			</g>
			<line class="st6" x1="37.2" y1="80.1" x2="78.6" y2="80.1"/>
		</g>
		<g>
			<g>
				<g>
					<g>
						<path id="XMLID_597_" class="st4" d="M57.4,88.1c-6,0-10.9,4.9-10.9,10.9c0,6,4.9,10.9,10.9,10.9c6,0,10.9-4.9,10.9-10.9
							C68.3,93,63.4,88.1,57.4,88.1z M63.6,105.8L63.6,105.8c-1.6,1.5-3.8,2.4-6.2,2.4c-2.4,0-4.5-0.9-6.2-2.4l3.2-3.2l0.9-0.9
							l0.2-3.3L55.2,98l0-1.2h0.7v0.4h0.5v-0.4h0.7v0.4h0.5v-0.4h0.7v0.4h0.5v-0.4h0.7l0,1.2l-0.3,0.4l0.2,3.3l0.9,0.9l2.8,2.8
							l-2.8-2.8c1-0.9,1.7-2.1,1.7-3.6c0-2.6-2.1-4.7-4.7-4.7s-4.7,2.1-4.7,4.7c0,1.4,0.7,2.7,1.7,3.6l-3.2,3.2
							c-1.8-1.7-3-4.1-3-6.8c0-5.1,4.1-9.2,9.2-9.2s9.2,4.1,9.2,9.2C66.6,101.7,65.4,104.1,63.6,105.8z"/>
						<path id="XMLID_581_" class="st4" d="M57.4,109.9c-6,0-10.9-4.9-10.9-10.9c0-6,4.9-10.9,10.9-10.9c6,0,10.9,4.9,10.9,10.9
							C68.3,105,63.4,109.9,57.4,109.9z"/>
						<g id="XMLID_576_">
							<path id="XMLID_580_" class="st18" d="M57.4,89.8c-5.1,0-9.2,4.1-9.2,9.2c0,2.7,1.2,5.1,3,6.8l3.2-3.2
								c-1-0.9-1.7-2.1-1.7-3.6c0-2.6,2.1-4.7,4.7-4.7s4.7,2.1,4.7,4.7c0,1.4-0.7,2.7-1.7,3.6l2.8,2.8l0.4,0.4c1.8-1.7,3-4.1,3-6.8
								C66.6,93.9,62.5,89.8,57.4,89.8z"/>
							<path id="XMLID_579_" d="M60.4,102.6l-0.9-0.9l-0.2-3.3l0.3-0.4l0-1.2h-0.7v0.4h-0.5v-0.4h-0.7v0.4h-0.5v-0.4h-0.7v0.4h-0.5
								v-0.4h-0.7l0,1.2l0.3,0.4l-0.2,3.3l-0.9,0.9l-3.2,3.2c1.6,1.5,3.8,2.4,6.2,2.4c2.4,0,4.5-0.9,6.2-2.4l0,0l-0.4-0.4
								L60.4,102.6z"/>
						</g>
					</g>
				</g>
			</g>
		</g>
		<polyline class="st6" points="140.2,52.5 140.2,153.1 20.7,153.1 20.7,52.5 		"/>
		<rect x="93.8" y="83.1" class="st6" width="33.1" height="26.4"/>
		<line class="st6" x1="152.9" y1="31.5" x2="8" y2="31.5"/>
		<path class="st6" d="M80.4,31.5v7.7c0,6.7-5.4,12.1-12.1,12.1s-12.1-5.4-12.1-12.1v-7.7"/>
		<path class="st6" d="M104.6,31.5v7.7c0,6.7-5.4,12.1-12.1,12.1c-6.7,0-12.1-5.4-12.1-12.1V11.8"/>
		<path class="st6" d="M56.4,31.5v7.7c0,6.7-5.4,12.1-12.1,12.1s-12.1-5.4-12.1-12.1v-7.7"/>
		<path class="st6" d="M128.7,31.5v7.7c0,6.7-5.4,12.1-12.1,12.1c-6.7,0-12.1-5.4-12.1-12.1v-7.7"/>
		<path class="st6" d="M32.2,31.5v7.7c0,6.7-5.4,12.1-12.1,12.1S8,45.9,8,39.2v-7.7l2-4.4l7.5-15.2h125.7l9.7,19.7v7.6
			c0,6.7-5.4,12.1-12.1,12.1s-12.1-5.4-12.1-12.1v-7.7"/>
		<line class="st6" x1="37.6" y1="11.8" x2="32.2" y2="31.5"/>
		<line class="st6" x1="122.4" y1="11.8" x2="127.9" y2="31.5"/>
		<line class="st6" x1="103.2" y1="12.5" x2="104.6" y2="31.5"/>
		<line class="st6" x1="57.7" y1="12.5" x2="56.4" y2="31.5"/>
	</g>
</g>
<g id="Seasonals" class="st0">
	<g class="st2">
		<path class="st19" d="M57.6,80.5c-0.1-0.6-0.6-1-1.2-0.9l-4.2,0.5l1.6-3.9c0.2-0.6,0-1.2-0.6-1.4c-0.6-0.2-1.2,0-1.4,0.6l-2.1,5
			l-9.6,1.3l3.7-8.9l5.4-0.7c0.6-0.1,1-0.6,0.9-1.2c-0.1-0.6-0.6-1-1.2-0.9l-4.2,0.5l1.6-3.9c0.2-0.6,0-1.2-0.6-1.4
			c-0.6-0.2-1.2,0-1.4,0.6l-1.6,3.9l-2.6-3.3c-0.4-0.5-1-0.6-1.5-0.2c-0.5,0.4-0.6,1-0.2,1.5l3.3,4.3l-3.7,8.9l-5.8-7.7l2.1-5
			c0.2-0.6,0-1.2-0.6-1.4c-0.6-0.2-1.2,0-1.4,0.6l-1.6,3.9l-2.6-3.3c-0.4-0.5-1-0.6-1.5-0.2c-0.5,0.4-0.6,1-0.2,1.5l2.6,3.3L25,73.1
			c-0.6,0.1-1,0.6-0.9,1.2c0.1,0.4,0.3,0.7,0.7,0.9c0.2,0.1,0.4,0.1,0.5,0.1l5.4-0.7l5.8,7.7L27,83.4l-3.3-4.3
			c-0.4-0.5-1-0.6-1.5-0.2c-0.5,0.4-0.6,1-0.2,1.5l2.6,3.3l-4.2,0.5c-0.6,0.1-1,0.6-0.9,1.2c0.1,0.4,0.3,0.7,0.7,0.9
			c0.2,0.1,0.4,0.1,0.5,0.1l4.2-0.5l-1.6,3.9c-0.2,0.6,0,1.2,0.6,1.4c0.6,0.2,1.2,0,1.4-0.6l2.1-5l9.6-1.3l-3.7,8.9l-5.4,0.7
			c-0.6,0.1-1,0.6-0.9,1.2c0.1,0.4,0.3,0.7,0.7,0.9c0.2,0.1,0.4,0.1,0.5,0.1l4.2-0.5l-1.6,3.9c-0.2,0.6,0,1.2,0.6,1.4
			c0.6,0.2,1.2,0,1.4-0.6l1.6-3.9l2.6,3.3c0.1,0.1,0.3,0.2,0.4,0.3c0.4,0.1,0.7,0.1,1.1-0.2c0.5-0.4,0.6-1,0.2-1.5L35.1,94l3.7-8.9
			l5.8,7.7l-2.1,5c-0.2,0.6,0,1.2,0.6,1.4c0.6,0.2,1.2,0,1.4-0.6l1.6-3.9l2.6,3.3c0.1,0.1,0.3,0.2,0.4,0.3c0.4,0.1,0.7,0.1,1.1-0.2
			c0.5-0.4,0.6-1,0.2-1.5l-2.6-3.3l4.2-0.5c0.6-0.1,1-0.6,0.9-1.2c-0.1-0.6-0.6-1-1.2-0.9l-5.4,0.7l-5.8-7.7l9.6-1.3l3.3,4.3
			c0.1,0.1,0.3,0.2,0.4,0.3c0.4,0.1,0.7,0.1,1.1-0.2c0.5-0.4,0.6-1,0.2-1.5l-2.6-3.3l4.2-0.5C57.3,81.6,57.7,81.1,57.6,80.5z"/>
		<g>
			<g>
				<path class="st3" d="M64.5,28.8c-1.2-1.1-2.9-1.7-4.6-1.5L9,31.7c-1.6,0.1-3.1,0.9-4.2,2.2c-1,1.3-1.5,2.9-1.3,4.5l1.9,15.2
					l-0.3,8.1c-0.1,2.7,0.3,5.3,1.1,7.9L9,78.1l8.1,52.8c0.7,4.6,4.7,7.8,9.2,7.5l34.1-3c4.4-0.4,7.9-4.3,7.8-8.8l-1.1-54.4l1.1-9.4
					c0.3-2.3,0.2-4.7-0.2-7l-1.4-8.2l-0.2-14.4C66.5,31.5,65.7,29.9,64.5,28.8z"/>
			</g>
			<line class="st3" x1="5" y1="48.5" x2="66.4" y2="43.1"/>
		</g>
		<g>
			<path class="st3" d="M91.6,33.2l-0.2,14.4l-1.4,8.2c-0.4,2.3-0.4,4.7-0.2,7l1.1,9.4l-1.1,54.4c-0.1,4.6,3.3,8.5,7.8,8.8l34.1,3
				c4.5,0.4,8.5-2.9,9.2-7.5l8.1-52.8l2.8-8.4c0.8-2.6,1.2-5.2,1.1-7.9l-0.3-8.1l1.9-15.2c0.2-1.6-0.3-3.2-1.3-4.5
				c-1-1.3-2.5-2.1-4.2-2.2l-50.9-4.4c-1.7-0.1-3.3,0.4-4.6,1.5C92.3,29.9,91.6,31.5,91.6,33.2z"/>
		</g>
		<line class="st3" x1="153.1" y1="48.5" x2="91.7" y2="43.1"/>
		<path class="st20" d="M111.8,86.2c1.8,4.2,6.6,6.2,10.8,4.4c4.2-1.8,6.2-6.6,4.4-10.8c-1.8-4.2-6.6-6.2-10.8-4.4
			C112,77.2,110,82,111.8,86.2z M131.9,78.6l4.6-1.9c0.4-0.2,0.6-0.7,0.4-1.1c-0.2-0.4-0.7-0.6-1.1-0.4l-4.6,1.9
			c-0.4,0.2-0.6,0.7-0.4,1.1C131,78.6,131.5,78.8,131.9,78.6z M123.8,95.5l1.9,4.6c0.2,0.4,0.7,0.6,1.1,0.4c0.4-0.2,0.6-0.7,0.4-1.1
			l-1.9-4.6c-0.2-0.4-0.7-0.6-1.1-0.4C123.8,94.6,123.6,95.1,123.8,95.5z M115,70.5l-1.9-4.6c-0.2-0.4-0.7-0.6-1.1-0.4
			c-0.4,0.2-0.6,0.7-0.4,1.1l1.9,4.6c0.2,0.4,0.7,0.6,1.1,0.4S115.2,70.9,115,70.5z M101.9,90.4c0.2,0.4,0.7,0.6,1.1,0.4l4.6-1.9
			c0.4-0.2,0.6-0.7,0.4-1.1c-0.2-0.4-0.7-0.6-1.1-0.4l-4.6,1.9C101.9,89.5,101.7,90,101.9,90.4z M107.9,78.4c0.2-0.4,0-0.9-0.5-1.1
			l-4.6-1.9c-0.4-0.2-0.9,0-1.1,0.5c-0.2,0.4,0,0.9,0.5,1.1l4.6,1.9c0.2,0.1,0.4,0.1,0.6,0C107.7,78.7,107.8,78.6,107.9,78.4z
			 M130.9,87.6c-0.2,0.4,0,0.9,0.5,1.1l4.6,1.9c0.2,0.1,0.4,0.1,0.6,0c0.2-0.1,0.4-0.2,0.4-0.5c0.2-0.4,0-0.9-0.5-1.1l-4.6-1.9
			C131.5,87,131,87.2,130.9,87.6z M123.6,70.4c-0.2,0.4,0,0.9,0.5,1.1c0.2,0.1,0.4,0.1,0.6,0c0.2-0.1,0.4-0.2,0.4-0.5l1.9-4.6
			c0.2-0.4,0-0.9-0.5-1.1s-0.9,0-1.1,0.5L123.6,70.4z M111.8,99.5c-0.2,0.4,0,0.9,0.5,1.1c0.2,0.1,0.4,0.1,0.6,0
			c0.2-0.1,0.4-0.2,0.4-0.5l1.9-4.6c0.2-0.4,0-0.9-0.5-1.1c-0.4-0.2-0.9,0-1.1,0.5L111.8,99.5z"/>
	</g>
</g>
<g id="Oldies" class="st0">
	<g class="st2">
		<g>
			<path class="st3" d="M133.7,13c-1.5-1.8-3.7-2.8-6-2.8h-60c-2.2,0-4.3,0.9-5.9,2.7c-1.6,1.7-2.4,4-2.3,6.4l0.7,22.2l-1.4,11.7
				c-0.5,3.9-0.3,7.7,0.6,11.5l2.8,12.5l4.8,61.1c0.4,6.7,5.4,11.9,11.6,11.9h37.2c6.1,0,11.1-5.2,11.6-11.8l4.8-62.5l2.6-13.4
				c0.6-3.3,0.8-6.7,0.6-10.1l-0.9-12l1.5-20.9C136,17.2,135.3,14.8,133.7,13z"/>
		</g>
		<line class="st3" x1="60.1" y1="34" x2="134.4" y2="34"/>
		<path class="st4" d="M116.3,106.5c-0.3,1.1-0.4,2.7-1.3,3.1c-1.3,0.7-2.8,0.6-3.9-1c-0.7-1-1.5-1.7-2.5-2.4
			c-0.6,0.1-1.1,0.3-1.7,0.1c-3.5-0.4-6-2.7-7.8-5.5c-0.7-1.1-1.3-2.2-1.8-3.5c-0.6,1.1-1.1,2.4-1.8,3.5c-1.8,2.8-4.3,4.9-7.8,5.5
			c-0.7,0.1-1.1,0-1.7-0.1c-1,0.7-2,1.4-2.5,2.4c-1.1,1.5-2.7,1.7-3.9,1c-0.7-0.4-1-2-1.3-3.1c-0.1-0.8,0-1.8,0-2.7l0,0
			c0.1-2.8-0.1-5.7,0.4-8.5c1.1-6.4,7.7-11.2,13.4-10.3c1,0.1,3.8,1.3,5.2,1.8c1.4-0.6,4.2-1.7,5.2-1.8c5.7-0.8,12.3,3.9,13.4,10.3
			c0.6,2.8,0.3,5.7,0.4,8.5l0,0C116.3,104.7,116.4,105.7,116.3,106.5z"/>
		<g>
			<g>
				<circle class="st4" cx="109" cy="64.2" r="8.2"/>
				<circle cx="109" cy="64.2" r="2.8"/>
			</g>
			<g>
				<circle class="st4" cx="85.6" cy="64.2" r="8.2"/>
				<circle cx="85.6" cy="64.2" r="2.8"/>
			</g>
		</g>
		<path class="st21" d="M44.2,144.7l-5.6-47.8l-0.7-6.2c-0.1-4.8-4.1-8.6-8.9-8.5c-4.8,0.1-8.6,4.1-8.5,8.9"/>
	</g>
</g>
<g id="Pin_Icon" class="st0">
	<g class="st2">
		<g>
			<path class="st4" d="M130.2,34.9c-7.9-21.2-28.6-34.3-51-34.9C56.9,0,37.1,13.7,28.5,34c-7.2,17-4.4,35,4.6,50.6
				c14,24.4,28.2,48.9,42.3,73.3c1.6,2.8,6,2.8,7.5,0c14-24.2,28.1-48.4,41.9-72.7C133.9,69.4,136.7,52.2,130.2,34.9z"/>
			<g>
				<g>
					<path id="XMLID_556_" class="st4" d="M102.5,80.4L102.5,80.4c-6.2,5.6-14.4,9-23.4,9c-9,0-17.2-3.4-23.4-9l12.1-12.1l3.4-3.4
						L72,52.4l-1.3-1.6l-0.1-4.6h2.7v1.7h2v-1.7h2.7v1.7h2v-1.7h2.7v1.7h2v-1.7h2.7l-0.1,4.6l-1.3,1.6l0.7,12.4l3.4,3.4l10.5,10.5
						L90.3,68.3c3.9-3.2,6.4-8.1,6.4-13.6c0-9.7-7.9-17.7-17.7-17.7s-17.7,7.9-17.7,17.7c0,5.5,2.5,10.4,6.4,13.6L55.7,80.4
						c-7-6.4-11.4-15.5-11.4-25.7c0-19.2,15.6-34.8,34.8-34.8s34.8,15.6,34.8,34.8C113.9,64.9,109.5,74.1,102.5,80.4z"/>
					<g id="XMLID_553_">
						<path id="XMLID_555_" class="st5" d="M79.1,19.9c-19.2,0-34.8,15.6-34.8,34.8c0,10.2,4.4,19.4,11.4,25.7l12.1-12.1
							c-3.9-3.2-6.4-8.1-6.4-13.6c0-9.7,7.9-17.7,17.7-17.7s17.7,7.9,17.7,17.7c0,5.5-2.5,10.4-6.4,13.6l10.5,10.5l1.6,1.6
							c7-6.4,11.4-15.5,11.4-25.7C113.9,35.5,98.3,19.9,79.1,19.9z"/>
						<path id="XMLID_554_" d="M90.3,68.3l-3.4-3.4l-0.7-12.4l1.3-1.6l0.1-4.6h-2.7v1.7h-2v-1.7h-2.7v1.7h-2v-1.7h-2.7v1.7h-2v-1.7
							h-2.7l0.1,4.6l1.3,1.6l-0.8,12.4l-3.4,3.4L55.7,80.4c6.2,5.6,14.4,9,23.4,9c9,0,17.2-3.4,23.4-9l0,0l-1.6-1.6L90.3,68.3z"/>
					</g>
				</g>
			</g>
		</g>
	</g>
</g>
<g id="Supermarket" class="st0">
	<g class="st2">
		<g>
			<path class="st4" d="M131.1,34.9c-7.9-21.2-28.6-34.3-51-34.9C57.8,0,38,13.7,29.4,34C22.2,51,25,69,34,84.6
				c14,24.4,28.2,48.9,42.3,73.3c1.6,2.8,6,2.8,7.5,0c14-24.2,28.1-48.4,41.9-72.7C134.8,69.4,137.6,52.2,131.1,34.9z"/>
			<line class="st22" x1="91.6" y1="79.1" x2="68.6" y2="79.1"/>
			<polyline class="st22" points="113.2,32.5 107.7,32.5 99.1,73.2 			"/>
			<polyline class="st22" points="100.7,65.6 57.5,65.6 50.7,37.9 106.3,37.9 			"/>
			<circle class="st22" cx="97.9" cy="79.1" r="4.2"/>
			<circle class="st22" cx="61.9" cy="79.1" r="4.2"/>
		</g>
	</g>
</g>
<g id="Pub" class="st0">
	<g class="st2">
		<g>
			<path d="M131.1,34.9c-7.9-21.2-28.6-34.3-51-34.9C57.8,0,38,13.7,29.4,34C22.2,51,25,69,34,84.6c14,24.4,28.2,48.9,42.3,73.3
				c1.6,2.8,6,2.8,7.5,0c14-24.2,28.1-48.4,41.9-72.7C134.8,69.4,137.6,52.2,131.1,34.9z"/>
			<g>
				<g>
					<path class="st6" d="M98.3,27.4c-0.8-0.8-1.9-1.3-3-1.3H65.2c-1.1,0-2.2,0.4-2.9,1.3c-0.8,0.8-1.2,1.9-1.1,3l0.4,10.4l-0.7,5.5
						c-0.2,1.8-0.1,3.6,0.3,5.4l1.4,5.9l2.4,34.8c0.2,3.1,2.7,5.6,5.8,5.6h18.6c3,0,5.6-2.4,5.8-5.5L97.5,57l1.3-6.3
						c0.3-1.6,0.4-3.2,0.3-4.8l-0.5-5.7l0.7-9.8C99.4,29.3,99.1,28.2,98.3,27.4z"/>
				</g>
				<line class="st6" x1="63.2" y1="37.2" x2="97.7" y2="37.2"/>
			</g>
		</g>
	</g>
</g>
<g id="Brand_Bar" class="st0">
	<g class="st2">
		<g>
			<g>
				<path class="st4" d="M131.1,34.9c-7.9-21.2-28.6-34.3-51-34.9C57.8,0,38,13.7,29.4,34C22.2,51,25,69,34,84.6
					c14,24.4,28.2,48.9,42.3,73.3c1.6,2.8,6,2.8,7.5,0c14-24.2,28.1-48.4,41.9-72.7C134.8,69.4,137.6,52.2,131.1,34.9z"/>
			</g>
		</g>
		<g>
			<g>
				<g>
					<g id="XMLID_1573_">
						<ellipse id="XMLID_1576_" class="st9" cx="78.1" cy="46.3" rx="2" ry="2"/>
						<ellipse id="XMLID_1574_" class="st9" cx="89.3" cy="46.3" rx="2" ry="2"/>
					</g>
					<path id="XMLID_1565_" class="st5" d="M99.2,22.6c0-0.5-0.4-0.9-0.9-0.9h-32c-0.5,0-0.9,0.4-0.9,0.9L65,35.4l-6.9,0v0
						c-2.1,0-3.8,1.7-3.8,3.9l-0.1,16.1c0,5.7,4.6,10.6,9.8,12.7l-0.5,17c0,0.2,0.1,0.5,0.3,0.6c0.2,0.2,0.4,0.3,0.7,0.3H100
						c0.2,0,0.5-0.1,0.7-0.3c0.2-0.2,0.3-0.4,0.3-0.6L99.2,22.6z M64.2,62.3c-2.6-1.5-5-4.1-4.9-6.9l0.1-14.7l5.5,0L64.2,62.3z
						 M73.3,46.3c0-1.8,1.5-3.3,3.4-3.3c1.9,0,3.4,1.5,3.4,3.3s-1.5,3.3-3.4,3.3C74.8,49.6,73.3,48.1,73.3,46.3z M86.6,64.8h-2.9V60
						h-2.6v4.8h-2.9V52.6h2.9v4.7h2.6v-4.7h2.9V64.8z M87.9,49.6c-1.9,0-3.4-1.5-3.4-3.3S86,43,87.9,43s3.4,1.5,3.4,3.3
						S89.8,49.6,87.9,49.6z M66.8,33.8l0.3-10.3h30.3l0.3,10.4L66.8,33.8z"/>
				</g>
			</g>
		</g>
	</g>
</g>
</svg>
