<svg id="Layer_1" xmlns="http://www.w3.org/2000/svg" width="68" height="68" viewBox="0 0 68 68"><style>.st0{fill:#fff}.st1{fill:#ed1b2f}.st2{fill:#1d1d1b}</style><g id="XMLID_104_"><path id="XMLID_109_" class="st0" d="M34 68.1C15.3 68.1.1 52.9.1 34.2S15.3.3 34 .3s33.9 15.2 33.9 33.9S52.7 68.1 34 68.1z"/><g id="XMLID_105_"><path id="XMLID_106_" d="M34 2.2c17.7 0 32 14.3 32 32s-14.3 32-32 32-32-14.3-32-32 14.3-32 32-32m0-2c-9.1 0-17.6 3.5-24 10-6.4 6.4-10 15-10 24 0 9.1 3.5 17.6 10 24 6.4 6.4 15 10 24 10 9.1 0 17.6-3.5 24-10 6.4-6.4 10-15 10-24 0-9.1-3.5-17.6-10-24-6.4-6.5-14.9-10-24-10z"/></g></g><g id="XMLID_312_"><path id="XMLID_314_" d="M40.5 42l-2-2-.4-7.2.7-.9.1-2.6h-1.6v1h-1.2v-1h-1.6v1h-1.2v-1h-1.6v1h-1.2v-1h-1.6l.1 2.6.7.9-.4 7.2-2 2-7 7c3.6 3.3 8.3 5.2 13.6 5.2s10-2 13.6-5.2l-7-7z"/><path id="XMLID_313_" class="st1" d="M34 14c-11.1 0-20.1 9-20.1 20.1 0 5.9 2.5 11.2 6.6 14.9l7-7c-2.3-1.9-3.7-4.7-3.7-7.9 0-5.6 4.6-10.2 10.2-10.2s10.2 4.6 10.2 10.2c0 3.2-1.4 6-3.7 7.9l7 7c4.1-3.7 6.6-9 6.6-14.9C54.1 23 45.1 14 34 14z"/></g><path class="st2" d="M11.7 26.9c-.1.3-.3.6-.5.9-.2.3-.5.5-.8.6l-.9.3c-.3 0-.7 0-1-.1-.3-.1-.6-.3-.9-.5-.3-.2-.5-.5-.6-.8-.2-.3-.2-.6-.3-1 0-.3 0-.7.1-1.1.1-.2.2-.5.3-.6.1-.2.2-.3.4-.5.1-.1.3-.3.5-.4.2-.1.3-.2.5-.2l.5 1.2c-.2.1-.4.2-.5.3-.2.1-.3.3-.3.5-.1.2-.1.3 0 .5 0 .2.1.3.2.4.1.1.2.3.3.4.1.1.3.2.5.2.2.1.4.1.5.1.2 0 .3 0 .5-.1.1-.1.3-.2.4-.3.1-.1.2-.3.2-.4 0-.1.1-.2.1-.3v-.3c0-.1-.1-.2-.1-.3 0-.1-.1-.2-.2-.3l1-.8c.1.2.2.3.3.5.1.2.2.4.2.6 0 .2.1.4 0 .6-.3.4-.3.7-.4.9zm-2.1-7.5l.7-1.1 5.4.9-.8 1.2-.9-.2-1 1.6.6.8-.8 1.2-3.2-4.4zm3.2.6l-1.5-.3.9 1.2.6-.9zm.4-5.5l1.1-1 2.2.7-.4-2.2 1.1-1 3.3 3.7-1 .9-1.9-2.2.3 2.3-2.2-.6 1.9 2.1-1 .9-3.4-3.6zm6.5-5.1l1.7-.8c.4-.2.8-.3 1.2-.3.4 0 .7 0 1 .1s.6.3.8.5c.2.2.4.5.6.8.2.3.2.7.3 1 0 .3 0 .7-.2 1-.1.3-.3.6-.6.9-.3.3-.6.5-1 .7l-1.7.8-2.1-4.7zm3.4 2.5c.4-.2.6-.4.8-.7.1-.3.1-.6-.1-1s-.4-.6-.7-.7c-.3-.1-.7 0-1 .1l-.5.2 1.1 2.3.4-.2zm3.3-5.2l3.9-.8.3 1.1-2.6.6.2.7 2.3-.5.2 1.1-2.3.5.2.8 2.6-.5.2 1.2-4 .8-1-5zm6.9-1.1l1.3.1 1.9 2.7.2-2.6 1.3.1-.3 5-1.2-.1-2-2.9-.2 2.7H33l.3-5zm11 3.4l-1.4-.6.5-1.1 4 1.8-.5 1.1-1.4-.6-1.4 3.4-1.3-.6L44.3 9zm4 6.6c-.3-.2-.5-.5-.7-.8-.2-.3-.3-.6-.3-1 0-.3 0-.7.1-1 .1-.3.2-.6.5-.9.2-.3.5-.5.8-.7s.6-.3 1-.3c.3 0 .7 0 1 .1.3.1.7.3 1 .5.3.2.5.5.7.8.2.3.3.6.3 1 0 .3 0 .7-.1 1-.1.3-.2.6-.5.9-.2.3-.5.5-.8.7s-.6.3-1 .3c-.3 0-.7 0-1-.1-.4-.1-.7-.3-1-.5zm.7-1c.2.1.3.2.5.2h.5c.2 0 .3-.1.5-.2.1-.1.3-.2.4-.3.1-.1.2-.3.2-.5s.1-.3.1-.5-.1-.3-.1-.5-.2-.3-.3-.4c-.2-.1-.3-.2-.5-.2h-.5c-.2 0-.3.1-.5.2-.1.1-.3.2-.4.4-.1.1-.2.3-.2.5s-.1.3-.1.5.1.3.1.5l.3.3zm5.8-.2l.9 1.2-1.8 2.4 2.9-.9.7 1-1.8 2.5 2.8-1 .8 1.2-5 1.6-.7-1 1.7-2.5-2.9.9-.7-1 3.1-4.4zm5.4 8.2l.4 1.2-1.8 2.8 2.5-.9.4 1.3-4.7 1.7-.4-1.1 1.9-2.9-2.6.9-.4-1.3 4.7-1.7zM15.9 49.5l1.8 1.8c.2.2.4.4.5.7.1.2.2.4.1.6 0 .1 0 .3-.1.4-.1.1-.1.3-.3.4-.2.2-.4.3-.7.3-.2 0-.5 0-.7-.1.1.3.2.6.2.8 0 .3-.1.5-.4.7-.3.3-.7.4-1.1.4-.4-.1-.8-.3-1.2-.7L12.2 53l3.7-3.5zm-1.1 4.4c.1.2.3.2.4.3s.3 0 .4-.1c.1-.1.1-.2.1-.3 0-.1-.1-.3-.3-.5l-.7-.8-.7.6.8.8zm1.2-1.5c.1.2.3.2.4.3.1 0 .2 0 .4-.1.1-.1.1-.2.1-.3 0-.1-.1-.3-.2-.4l-.6-.6-.6.6.5.5zm4.1 1l2 1.2c.3.2.6.4.8.6.2.2.3.4.4.7.1.4 0 .8-.2 1.2-.2.3-.4.6-.7.7-.3.1-.6.2-.9.1l.1 2.1-1.4-.8-.2-1.8-.5-.3-.8 1.3-1.2-.7 2.6-4.3zm.7 3.2c.2.1.4.2.6.1.2 0 .3-.1.4-.3.1-.2.1-.3.1-.5-.1-.2-.2-.3-.4-.4l-.8-.5-.6 1 .7.6zm4.4-.4l3.8 1.2-.3 1.1-2.5-.8-.2.7 2.3.7-.3 1-2.3-.7-.2.8 2.6.8-.3 1.1-4.1-1.1 1.5-4.8z"/><path class="st0" d="M30.3 57.7h1.4l.8 2.9.9-2.9h1.1l.9 2.9.8-2.9h1.4l-1.6 5h-1.2l-1-2.9-1 2.9h-1.2l-1.3-5z"/><path class="st2" d="M39.4 57.3l3.8-1.2.4 1.1-2.6.9.2.7 2.3-.7.3 1-2.3.7.2.8 2.5-.8.4 1.1-3.8 1.2-1.4-4.8zm5.2-1.9l2-1.2c.3-.2.6-.3.9-.4.3-.1.5-.1.8 0 .4.1.7.3 1 .8.2.3.3.6.3 1 0 .3-.1.6-.3.9l1.9.9-1.4.8-1.6-.8-.5.3.8 1.3-1.2.7-2.7-4.3zm3.2.8c.2-.1.3-.3.4-.4.1-.2 0-.3-.1-.5s-.2-.3-.4-.3-.3 0-.5.2l-.8.5.6 1 .8-.5zm4.8-2.8l-3.6-.8 1.1-1.1 2 .5-.6-2 1.1-1.1.9 3.5 1.3 1.3-1 1-1.2-1.3z"/><g id="XMLID_3_"><g id="XMLID_14_"><g id="XMLID_15_"><path id="XMLID_16_" class="st2" d="M30.3 57.6c.6 0 .9.1 1.4.1.4 1.2.5 1.8.9 3 .4-1.2.5-1.8.9-3h1.2l1 3c.3-1.2.5-1.8.8-3 .6 0 .8 0 1.4-.1-.3 1.1-.5 1.8-.8 2.6-.2.8-.5 1.6-.8 2.6h-1.2c-.4-1.2-.6-1.8-1-2.9-.4 1.2-.6 1.8-.9 2.9H32c-.3-1-.6-1.8-.9-2.6-.2-.8-.5-1.5-.8-2.6z"/></g></g></g></svg>