<?xml version="1.0" encoding="utf-8"?>
<!-- Generator: Adobe Illustrator 21.1.0, SVG Export Plug-In . SVG Version: 6.00 Build 0)  -->
<svg version="1.1" id="Layer_1" xmlns="http://www.w3.org/2000/svg" xmlns:xlink="http://www.w3.org/1999/xlink" x="0px" y="0px"
	 viewBox="0 0 560 357.7" style="enable-background:new 0 0 560 357.7;" xml:space="preserve">
<style type="text/css">
	.st0{enable-background:new    ;}
	.st1{clip-path:url(#SVGID_2_);enable-background:new    ;}
	.st2{clip-path:url(#SVGID_4_);enable-background:new    ;}
	.st3{clip-path:url(#SVGID_6_);enable-background:new    ;}
	.st4{clip-path:url(#SVGID_8_);enable-background:new    ;}
	.st5{clip-path:url(#SVGID_10_);enable-background:new    ;}
	.st6{clip-path:url(#SVGID_12_);enable-background:new    ;}
	.st7{clip-path:url(#SVGID_14_);enable-background:new    ;}
	.st8{clip-path:url(#SVGID_16_);enable-background:new    ;}
	.st9{clip-path:url(#SVGID_18_);enable-background:new    ;}
	.st10{clip-path:url(#SVGID_20_);enable-background:new    ;}
	.st11{clip-path:url(#SVGID_22_);enable-background:new    ;}
	.st12{clip-path:url(#SVGID_24_);enable-background:new    ;}
	.st13{clip-path:url(#SVGID_26_);enable-background:new    ;}
	.st14{clip-path:url(#SVGID_28_);enable-background:new    ;}
	.st15{clip-path:url(#SVGID_30_);enable-background:new    ;}
	.st16{clip-path:url(#SVGID_32_);enable-background:new    ;}
	.st17{clip-path:url(#SVGID_34_);enable-background:new    ;}
	.st18{clip-path:url(#SVGID_36_);enable-background:new    ;}
	.st19{clip-path:url(#SVGID_38_);enable-background:new    ;}
	.st20{clip-path:url(#SVGID_40_);enable-background:new    ;}
	.st21{clip-path:url(#SVGID_42_);enable-background:new    ;}
	.st22{clip-path:url(#SVGID_44_);enable-background:new    ;}
	.st23{clip-path:url(#SVGID_46_);enable-background:new    ;}
	.st24{clip-path:url(#SVGID_48_);enable-background:new    ;}
	.st25{clip-path:url(#SVGID_50_);enable-background:new    ;}
	.st26{clip-path:url(#SVGID_52_);enable-background:new    ;}
	.st27{clip-path:url(#SVGID_54_);enable-background:new    ;}
	.st28{clip-path:url(#SVGID_56_);enable-background:new    ;}
	.st29{clip-path:url(#SVGID_58_);enable-background:new    ;}
	.st30{clip-path:url(#SVGID_60_);enable-background:new    ;}
	.st31{clip-path:url(#SVGID_62_);enable-background:new    ;}
	.st32{clip-path:url(#SVGID_64_);enable-background:new    ;}
	.st33{clip-path:url(#SVGID_66_);enable-background:new    ;}
	.st34{clip-path:url(#SVGID_68_);enable-background:new    ;}
	.st35{clip-path:url(#SVGID_70_);enable-background:new    ;}
	.st36{clip-path:url(#SVGID_72_);enable-background:new    ;}
	.st37{clip-path:url(#SVGID_74_);enable-background:new    ;}
	.st38{clip-path:url(#SVGID_76_);enable-background:new    ;}
	.st39{clip-path:url(#SVGID_78_);enable-background:new    ;}
	.st40{clip-path:url(#SVGID_80_);enable-background:new    ;}
	.st41{fill:#FFFFFF;}
</style>
<g>
	<g>
		<g class="st0">
			<g class="st0">
				<defs>
					<path id="SVGID_1_" class="st0" d="M470.5,143.9l45.5,17.3c1.5,0.6,2.9,1.2,4.3,2l-45.5-17.3
						C473.4,145.2,472,144.5,470.5,143.9z"/>
				</defs>
				<use xlink:href="#SVGID_1_"  style="overflow:visible;"/>
				<clipPath id="SVGID_2_">
					<use xlink:href="#SVGID_1_"  style="overflow:visible;"/>
				</clipPath>
				<g class="st1">
					<path d="M520.2,163.2l-45.5-17.3c-1.3-0.7-2.8-1.4-4.3-2l45.5,17.3C517.5,161.8,518.9,162.5,520.2,163.2"/>
				</g>
			</g>
			<g class="st0">
				<defs>
					<path id="SVGID_3_" class="st0" d="M488,231.2l-45.5-17.3c-3.3-1.3-6.9-3.1-10.6-5.7l45.5,17.3
						C481.1,228.1,484.6,230,488,231.2z"/>
				</defs>
				<use xlink:href="#SVGID_3_"  style="overflow:visible;"/>
				<clipPath id="SVGID_4_">
					<use xlink:href="#SVGID_3_"  style="overflow:visible;"/>
				</clipPath>
				<g class="st2">
					<path d="M488,231.2l-45.5-17.3c-3.3-1.3-6.9-3.1-10.6-5.7l45.5,17.3C481.1,228.1,484.6,230,488,231.2"/>
				</g>
			</g>
			<g class="st0">
				<defs>
					<path id="SVGID_5_" class="st0" d="M496.6,212.6l-45.5-17.3c2,0.8,4,1.2,6.1,1.3c0.3,0,0.6,0,0.9,0c5.1-0.2,8.7-3.2,8-7.9
						c-0.5-3.4-2.2-5.2-10.7-10.1c-16.8-9.7-21.9-18.5-22.3-28.7c-0.6-16.1,10.1-27.1,24.4-27.6l45.5,17.3
						c-14.3,0.5-25,11.5-24.4,27.6c0.4,10.2,5.5,19,22.3,28.7c8.5,4.9,10.2,6.7,10.7,10.1c0.6,4.7-2.9,7.7-8,7.9c-0.3,0-0.6,0-0.9,0
						C500.7,213.8,498.6,213.3,496.6,212.6z"/>
				</defs>
				<use xlink:href="#SVGID_5_"  style="overflow:visible;"/>
				<clipPath id="SVGID_6_">
					<use xlink:href="#SVGID_5_"  style="overflow:visible;"/>
				</clipPath>
				<g class="st3">
					<path d="M496.6,212.6l-45.5-17.3c0.4,0.2,0.8,0.3,1.3,0.4l45.5,17.3C497.5,212.9,497.1,212.7,496.6,212.6"/>
					<path d="M497.9,213l-45.5-17.3c1.6,0.5,3.2,0.8,4.8,0.9c0.3,0,0.6,0,0.9,0c1.2,0,2.4-0.2,3.4-0.6l45.5,17.3
						c-1,0.4-2.2,0.6-3.4,0.6c-0.3,0-0.6,0-0.9,0C501.1,213.8,499.5,213.5,497.9,213"/>
					<path d="M507,213.3L461.5,196c3.2-1.1,5.1-3.7,4.7-7.3c-0.5-3.4-2.2-5.2-10.7-10.1c-16.8-9.7-21.9-18.5-22.3-28.7
						c-0.5-13,6.4-22.6,16.5-26.1l45.5,17.3c-10.1,3.6-16.9,13.2-16.5,26.1c0.4,10.2,5.5,19,22.3,28.7c8.5,4.9,10.2,6.7,10.7,10.1
						C512.2,209.5,510.2,212.1,507,213.3"/>
					<path d="M495.2,141l-45.5-17.3c2.5-0.9,5.2-1.4,8-1.5l45.5,17.3C500.4,139.6,497.7,140.1,495.2,141"/>
				</g>
			</g>
			<g class="st0">
				<defs>
					<path id="SVGID_7_" class="st0" d="M477.4,225.6l-45.5-17.3c3-6.7,5.8-12.8,8.8-19.2l45.5,17.3
						C483.2,212.8,480.4,218.9,477.4,225.6z"/>
				</defs>
				<use xlink:href="#SVGID_7_"  style="overflow:visible;"/>
				<clipPath id="SVGID_8_">
					<use xlink:href="#SVGID_7_"  style="overflow:visible;"/>
				</clipPath>
				<g class="st4">
					<path d="M477.4,225.6l-45.5-17.3c3-6.7,5.8-12.8,8.8-19.2l45.5,17.3C483.2,212.8,480.4,218.9,477.4,225.6"/>
				</g>
			</g>
			<g class="st0">
				<defs>
					<path id="SVGID_9_" class="st0" d="M474.5,125.5l45.5,17.3c-5.3-2-11.1-3.3-16.2-3.2c-0.2,0-0.4,0-0.7,0l-45.5-17.3
						c0.2,0,0.4,0,0.7,0C463.4,122.2,469.3,123.5,474.5,125.5z"/>
				</defs>
				<use xlink:href="#SVGID_9_"  style="overflow:visible;"/>
				<clipPath id="SVGID_10_">
					<use xlink:href="#SVGID_9_"  style="overflow:visible;"/>
				</clipPath>
				<g class="st5">
					<path d="M503.2,139.5l-45.5-17.3c0.2,0,0.4,0,0.7,0c4.1,0,8.8,0.8,13.2,2.2l45.5,17.3c-4.4-1.4-9.1-2.2-13.2-2.2
						C503.6,139.5,503.4,139.5,503.2,139.5"/>
					<path d="M517,141.7l-45.5-17.3c1,0.3,2,0.7,3,1l45.5,17.3C519,142.4,518,142,517,141.7"/>
				</g>
			</g>
			<g>
				<path d="M503.2,139.5c0.2,0,0.4,0,0.7,0c7.6-0.1,17.1,2.9,23.5,6.7l-7.1,17c-4.4-2.4-10.1-4.1-14.8-4c-0.1,0-0.3,0-0.4,0
					c-4.1,0.2-6.7,2.6-6.6,6.1c0.1,3.8,2.7,6.9,12.4,12.4c12.4,7,19.9,14,20.4,26.1c0.6,16.1-9.5,26.8-25.2,29.5
					c-1.3,0.2-2.7,0.4-4.1,0.4c-6.7,0.2-15.1-1.6-24.5-8.1c3-6.7,5.8-12.8,8.8-19.2c5,3.7,10.7,7.3,16.5,7.5c0.3,0,0.6,0,0.9,0
					c5.1-0.2,8.7-3.2,8-7.9c-0.5-3.4-2.2-5.2-10.7-10.1c-16.8-9.7-21.9-18.5-22.3-28.7C478.2,151,488.9,140,503.2,139.5z"/>
			</g>
		</g>
		<g class="st0">
			<g class="st0">
				<defs>
					<path id="SVGID_11_" class="st0" d="M449.6,219.6l-45.5-17.3c10.4-1.9,12.3-2.4,22.9-3.8l45.5,17.3
						C461.9,217.1,460,217.7,449.6,219.6z"/>
				</defs>
				<use xlink:href="#SVGID_11_"  style="overflow:visible;"/>
				<clipPath id="SVGID_12_">
					<use xlink:href="#SVGID_11_"  style="overflow:visible;"/>
				</clipPath>
				<g class="st6">
					<path d="M449.6,219.6l-45.5-17.3c10.4-1.9,12.3-2.4,22.9-3.8l45.5,17.3C461.9,217.1,460,217.7,449.6,219.6"/>
				</g>
			</g>
			<g>
				<path d="M447.7,140c0.3,25.2,1.6,54.4,1.9,79.6c10.4-1.9,12.3-2.4,22.9-3.8c0.1,6.5,0.2,13,0.3,19.6c-23,4.9-26.8,5.7-47,10.8
					c-0.5-34-2.2-101.3-2.3-104.9C424.3,141.2,437.6,140.4,447.7,140z"/>
			</g>
			<g class="st0">
				<defs>
					<path id="SVGID_13_" class="st0" d="M425.9,246.1l-45.5-17.3c-0.5-34-2.2-101.3-2.3-104.9l45.5,17.3
						C423.7,144.8,425.4,212.2,425.9,246.1z"/>
				</defs>
				<use xlink:href="#SVGID_13_"  style="overflow:visible;"/>
				<clipPath id="SVGID_14_">
					<use xlink:href="#SVGID_13_"  style="overflow:visible;"/>
				</clipPath>
				<g class="st7">
					<path d="M425.9,246.1l-45.5-17.3c-0.5-34-2.2-101.3-2.3-104.9l45.5,17.3C423.7,144.8,425.4,212.2,425.9,246.1"/>
				</g>
			</g>
			<g class="st0">
				<defs>
					<path id="SVGID_15_" class="st0" d="M423.6,141.3L378.1,124c0.7,0,14-0.9,24.1-1.3l45.5,17.3
						C437.6,140.4,424.3,141.2,423.6,141.3z"/>
				</defs>
				<use xlink:href="#SVGID_15_"  style="overflow:visible;"/>
				<clipPath id="SVGID_16_">
					<use xlink:href="#SVGID_15_"  style="overflow:visible;"/>
				</clipPath>
				<g class="st8">
					<path d="M423.6,141.3L378.1,124c0.7,0,14-0.9,24.1-1.3l45.5,17.3C437.6,140.4,424.3,141.2,423.6,141.3"/>
				</g>
			</g>
		</g>
		<g class="st0">
			<g class="st0">
				<defs>
					<path id="SVGID_17_" class="st0" d="M388.9,233.7l-45.5-17.3c10.6-2.9,17.7-5.4,28.3-7.7l45.5,17.3
						C406.6,228.2,399.5,230.8,388.9,233.7z"/>
				</defs>
				<use xlink:href="#SVGID_17_"  style="overflow:visible;"/>
				<clipPath id="SVGID_18_">
					<use xlink:href="#SVGID_17_"  style="overflow:visible;"/>
				</clipPath>
				<g class="st9">
					<path d="M388.9,233.7l-45.5-17.3c10.6-2.9,17.7-5.4,28.3-7.7l45.5,17.3C406.6,228.2,399.5,230.8,388.9,233.7"/>
				</g>
			</g>
			<g>
				<path d="M387.6,145c0,3,0.8,59.8,1.2,88.7c10.6-2.9,17.7-5.4,28.3-7.7c0.1,7.5,0.2,15.1,0.3,22.6c-19.2,5.6-34.9,10.9-54.2,17.8
					c-0.5-38.7-1.1-78.8-1.6-117.5C375.1,146.7,387,145.1,387.6,145z"/>
			</g>
			<g class="st0">
				<defs>
					<path id="SVGID_19_" class="st0" d="M363.3,266.4l-45.5-17.3c-0.5-38.7-1.1-78.8-1.6-117.5l45.5,17.3
						C362.2,187.6,362.8,227.7,363.3,266.4z"/>
				</defs>
				<use xlink:href="#SVGID_19_"  style="overflow:visible;"/>
				<clipPath id="SVGID_20_">
					<use xlink:href="#SVGID_19_"  style="overflow:visible;"/>
				</clipPath>
				<g class="st10">
					<path d="M363.3,266.4l-45.5-17.3c-0.5-38.7-1.1-78.8-1.6-117.5l45.5,17.3C362.2,187.6,362.8,227.7,363.3,266.4"/>
				</g>
			</g>
			<g class="st0">
				<defs>
					<path id="SVGID_21_" class="st0" d="M361.7,148.9l-45.5-17.3c13.4-2.2,25.3-3.8,25.9-3.9l45.5,17.3
						C387,145.1,375.1,146.7,361.7,148.9z"/>
				</defs>
				<use xlink:href="#SVGID_21_"  style="overflow:visible;"/>
				<clipPath id="SVGID_22_">
					<use xlink:href="#SVGID_21_"  style="overflow:visible;"/>
				</clipPath>
				<g class="st11">
					<path d="M361.7,148.9l-45.5-17.3c13.4-2.2,25.3-3.8,25.9-3.9l45.5,17.3C387,145.1,375.1,146.7,361.7,148.9"/>
				</g>
			</g>
		</g>
		<g class="st0">
			<g class="st0">
				<defs>
					<path id="SVGID_23_" class="st0" d="M392.7,105.3L347.2,88c5.9-0.4,17.1-0.9,27.5-1.3c3.1-0.1,6.1-0.2,8.8-0.3l45.5,17.3
						c-2.7,0.1-5.7,0.2-8.8,0.3C409.9,104.3,398.6,104.9,392.7,105.3z"/>
				</defs>
				<use xlink:href="#SVGID_23_"  style="overflow:visible;"/>
				<clipPath id="SVGID_24_">
					<use xlink:href="#SVGID_23_"  style="overflow:visible;"/>
				</clipPath>
				<g class="st12">
					<path d="M392.7,105.3L347.2,88c5.9-0.4,17.1-0.9,27.5-1.3c3.1-0.1,6.1-0.2,8.8-0.3l45.5,17.3c-2.7,0.1-5.7,0.2-8.8,0.3
						C409.9,104.3,398.6,104.9,392.7,105.3"/>
				</g>
			</g>
			<g class="st0">
				<defs>
					<path id="SVGID_25_" class="st0" d="M392.2,63.3L346.7,46c10.7,0.2,21.4,0.6,32.1,1.3l45.5,17.3
						C413.6,63.9,402.9,63.5,392.2,63.3z"/>
				</defs>
				<use xlink:href="#SVGID_25_"  style="overflow:visible;"/>
				<clipPath id="SVGID_26_">
					<use xlink:href="#SVGID_25_"  style="overflow:visible;"/>
				</clipPath>
				<g class="st13">
					<path d="M392.2,63.3L346.7,46c10.7,0.2,21.4,0.6,32.1,1.3l45.5,17.3C413.6,63.9,402.9,63.5,392.2,63.3"/>
				</g>
			</g>
			<g>
				<path d="M365.8,19.9c19.9,0.4,40.5,1.1,61.5,2.4c0.1,7.1,0.2,16,0.3,23c-11.9-0.3-23.9-0.8-35.7-0.9c0.1,6.3,0.2,12.6,0.3,18.9
					c10.7,0.2,21.4,0.6,32.1,1.3c0.1,6.9,0.2,13.7,0.3,20.6c-10.7-0.3-21.4-0.3-32.1,0c0.1,6.5,0.2,13.5,0.3,20.1
					c5.9-0.4,17.1-0.9,27.5-1.3c3.1-0.1,6.1-0.2,8.8-0.3l0.3,20.8c-23.5,1.8-40.7,3.6-62,6.2C366.8,93.8,366.3,56.8,365.8,19.9z"/>
			</g>
			<g class="st0">
				<defs>
					<path id="SVGID_27_" class="st0" d="M365.8,19.9L320.3,2.6C340.2,3,360.7,3.7,381.8,5l45.5,17.3
						C406.2,21,385.7,20.3,365.8,19.9z"/>
				</defs>
				<use xlink:href="#SVGID_27_"  style="overflow:visible;"/>
				<clipPath id="SVGID_28_">
					<use xlink:href="#SVGID_27_"  style="overflow:visible;"/>
				</clipPath>
				<g class="st14">
					<path d="M365.8,19.9L320.3,2.6C340.2,3,360.7,3.7,381.8,5l45.5,17.3C406.2,21,385.7,20.3,365.8,19.9"/>
				</g>
			</g>
			<g class="st0">
				<defs>
					<path id="SVGID_29_" class="st0" d="M367.3,130.7l-45.5-17.3c-0.5-36.9-1-73.9-1.5-110.8l45.5,17.3
						C366.3,56.8,366.8,93.8,367.3,130.7z"/>
				</defs>
				<use xlink:href="#SVGID_29_"  style="overflow:visible;"/>
				<clipPath id="SVGID_30_">
					<use xlink:href="#SVGID_29_"  style="overflow:visible;"/>
				</clipPath>
				<g class="st15">
					<path d="M367.3,130.7l-45.5-17.3c-0.5-36.9-1-73.9-1.5-110.8l45.5,17.3C366.3,56.8,366.8,93.8,367.3,130.7"/>
				</g>
			</g>
		</g>
		<g class="st0">
			<g class="st0">
				<defs>
					<path id="SVGID_31_" class="st0" d="M316.9,259.2l-45.5-17.3c12.1-4.8,23.9-9.2,35.9-13.3l45.5,17.3
						C340.7,250,329,254.4,316.9,259.2z"/>
				</defs>
				<use xlink:href="#SVGID_31_"  style="overflow:visible;"/>
				<clipPath id="SVGID_32_">
					<use xlink:href="#SVGID_31_"  style="overflow:visible;"/>
				</clipPath>
				<g class="st16">
					<path d="M316.9,259.2l-45.5-17.3c9.5-3.8,18.9-7.3,28.3-10.6l45.5,17.3C335.7,251.9,326.4,255.4,316.9,259.2"/>
					<path d="M345.2,248.6l-45.5-17.3c2.5-0.9,5.1-1.8,7.6-2.6l45.5,17.3C350.3,246.8,347.7,247.7,345.2,248.6"/>
				</g>
			</g>
			<g class="st0">
				<defs>
					<path id="SVGID_33_" class="st0" d="M316.2,209.6l-45.5-17.3c10.7-3.4,21.4-6.5,32-9.3l45.5,17.3
						C337.6,203.1,326.9,206.2,316.2,209.6z"/>
				</defs>
				<use xlink:href="#SVGID_33_"  style="overflow:visible;"/>
				<clipPath id="SVGID_34_">
					<use xlink:href="#SVGID_33_"  style="overflow:visible;"/>
				</clipPath>
				<g class="st17">
					<path d="M316.2,209.6l-45.5-17.3c10.7-3.4,21.4-6.5,32-9.3l45.5,17.3C337.6,203.1,326.9,206.2,316.2,209.6"/>
				</g>
			</g>
			<g>
				<path d="M350.7,151.6l0.4,25.5c-17.8,4.5-34.4,9.2-35.2,9.5c0.1,7.5,0.2,15.5,0.4,23c10.7-3.4,21.4-6.5,32-9.3
					c0.1,8.3,0.2,16.5,0.3,24.8c-10.7,3.3-21.3,6.8-32,10.7c0.1,7.8,0.2,15.6,0.3,23.4c12.1-4.8,23.9-9.2,35.9-13.3
					c0.1,8.5,0.2,17,0.3,25.5c-20.6,7.9-41,16.8-61.6,26.8c-0.6-43.8-1.2-87.7-1.8-131.5C290.2,166.7,321.3,157.8,350.7,151.6z"/>
			</g>
			<g class="st0">
				<defs>
					<path id="SVGID_35_" class="st0" d="M291.6,298.2l-45.5-17.3c-0.6-43.8-1.2-87.7-1.8-131.5l45.5,17.3
						C290.4,210.5,291,254.4,291.6,298.2z"/>
				</defs>
				<use xlink:href="#SVGID_35_"  style="overflow:visible;"/>
				<clipPath id="SVGID_36_">
					<use xlink:href="#SVGID_35_"  style="overflow:visible;"/>
				</clipPath>
				<g class="st18">
					<path d="M291.6,298.2l-45.5-17.3c-0.6-43.8-1.2-87.7-1.8-131.5l45.5,17.3C290.4,210.5,291,254.4,291.6,298.2"/>
				</g>
			</g>
			<g class="st0">
				<defs>
					<path id="SVGID_37_" class="st0" d="M289.8,166.7l-45.5-17.3c0.4,0,31.5-8.9,61-15.1l45.5,17.3
						C321.3,157.8,290.2,166.7,289.8,166.7z"/>
				</defs>
				<use xlink:href="#SVGID_37_"  style="overflow:visible;"/>
				<clipPath id="SVGID_38_">
					<use xlink:href="#SVGID_37_"  style="overflow:visible;"/>
				</clipPath>
				<g class="st19">
					<path d="M289.8,166.7l-45.5-17.3c0.4,0,31.5-8.9,61-15.1l45.5,17.3C321.3,157.8,290.2,166.7,289.8,166.7"/>
				</g>
			</g>
		</g>
		<g class="st0">
			<g class="st0">
				<defs>
					<path id="SVGID_39_" class="st0" d="M284.3,27.4l45.5,17.3c4,1.5,7.7,4,10.5,6.2l-45.5-17.3C292,31.4,288.4,28.9,284.3,27.4z"
						/>
				</defs>
				<use xlink:href="#SVGID_39_"  style="overflow:visible;"/>
				<clipPath id="SVGID_40_">
					<use xlink:href="#SVGID_39_"  style="overflow:visible;"/>
				</clipPath>
				<g class="st20">
					<path d="M340.4,50.9l-45.5-17.3c-2.9-2.2-6.5-4.6-10.5-6.2l45.5,17.3C333.9,46.2,337.5,48.7,340.4,50.9"/>
				</g>
			</g>
			<g class="st0">
				<defs>
					<path id="SVGID_41_" class="st0" d="M293.7,139.2l-45.5-17.3c-3.4-1.3-7-3.1-10.7-5.4l45.5,17.3
						C286.7,136.1,290.3,137.9,293.7,139.2z"/>
				</defs>
				<use xlink:href="#SVGID_41_"  style="overflow:visible;"/>
				<clipPath id="SVGID_42_">
					<use xlink:href="#SVGID_41_"  style="overflow:visible;"/>
				</clipPath>
				<g class="st21">
					<path d="M293.7,139.2l-45.5-17.3c-3.4-1.3-7-3.1-10.7-5.4l45.5,17.3C286.7,136.1,290.3,137.9,293.7,139.2"/>
				</g>
			</g>
			<g class="st0">
				<defs>
					<path id="SVGID_43_" class="st0" d="M306.8,114l-45.5-17.3c3.2,1.2,6.4,1.9,9.8,1.8c7.5-0.3,12.9-4.8,12.2-11.3
						c-0.5-4.5-2.8-6.7-13.9-12.4c-21.9-11.2-28.5-22.4-28.7-35.9c-0.4-21.6,13.7-37.7,33.9-38.4l45.5,17.3
						c-20.2,0.7-34.3,16.8-33.9,38.4c0.2,13.5,6.8,24.6,28.7,35.9c11.1,5.7,13.4,7.9,13.9,12.4c0.8,6.6-4.7,11-12.2,11.3
						C313.3,115.9,310,115.2,306.8,114z"/>
				</defs>
				<use xlink:href="#SVGID_43_"  style="overflow:visible;"/>
				<clipPath id="SVGID_44_">
					<use xlink:href="#SVGID_43_"  style="overflow:visible;"/>
				</clipPath>
				<g class="st22">
					<path d="M306.8,114l-45.5-17.3c0.6,0.2,1.2,0.4,1.8,0.6l45.5,17.3C308,114.5,307.4,114.3,306.8,114"/>
					<path d="M308.6,114.6l-45.5-17.3c2.6,0.8,5.3,1.3,8,1.2c1.8-0.1,3.5-0.4,5-0.9l45.5,17.3c-1.5,0.5-3.2,0.8-5,0.9
						C313.9,115.9,311.2,115.5,308.6,114.6"/>
					<path d="M321.6,114.9l-45.5-17.3c4.8-1.7,7.7-5.4,7.2-10.4c-0.5-4.5-2.8-6.7-13.9-12.4c-21.9-11.2-28.5-22.4-28.7-35.9
						c-0.3-17.6,8.9-31.5,23.2-36.5l45.5,17.3c-14.3,5-23.4,18.9-23.2,36.5c0.2,13.5,6.8,24.6,28.7,35.9
						c11.1,5.7,13.4,7.9,13.9,12.4C329.4,109.5,326.4,113.2,321.6,114.9"/>
					<path d="M309.3,19.8L263.8,2.5c3.3-1.2,6.9-1.8,10.7-2l45.5,17.3C316.3,17.9,312.7,18.6,309.3,19.8"/>
				</g>
			</g>
			<g class="st0">
				<defs>
					<path id="SVGID_45_" class="st0" d="M283,133.8l-45.5-17.3c4.1-9.2,8-17.5,12.1-26.3l45.5,17.3
						C291,116.3,287.1,124.6,283,133.8z"/>
				</defs>
				<use xlink:href="#SVGID_45_"  style="overflow:visible;"/>
				<clipPath id="SVGID_46_">
					<use xlink:href="#SVGID_45_"  style="overflow:visible;"/>
				</clipPath>
				<g class="st23">
					<path d="M283,133.8l-45.5-17.3c4.1-9.2,8-17.5,12.1-26.3l45.5,17.3C291,116.3,287.1,124.6,283,133.8"/>
				</g>
			</g>
			<g class="st0">
				<defs>
					<path id="SVGID_47_" class="st0" d="M292.2,3.5l45.5,17.3c-5.8-2.2-11.7-3.2-17.6-3L274.6,0.5C280.6,0.3,286.5,1.3,292.2,3.5z"
						/>
				</defs>
				<use xlink:href="#SVGID_47_"  style="overflow:visible;"/>
				<clipPath id="SVGID_48_">
					<use xlink:href="#SVGID_47_"  style="overflow:visible;"/>
				</clipPath>
				<g class="st24">
					<path d="M320.1,17.8L274.6,0.5c5-0.2,10,0.5,14.9,2.1L335,19.9C330.1,18.3,325.1,17.6,320.1,17.8"/>
					<path d="M335,19.9L289.5,2.6c0.9,0.3,1.8,0.6,2.7,0.9l45.5,17.3C336.8,20.5,335.9,20.2,335,19.9"/>
				</g>
			</g>
			<g>
				<path d="M320.1,17.8c10.9-0.4,21.7,3.4,31.7,10.8l-11.4,22.2c-4.7-3.5-11.4-7.9-18.8-7.6c-0.1,0-0.3,0-0.4,0
					c-5.4,0.3-8.9,4.1-8.9,8.8c0.1,5,3.4,8.9,16.1,15.2c16.2,8,26,16.7,26.3,32.6c0.4,21.2-13.3,36.4-34.1,41.5
					c-2.6,0.6-5.5,1.1-8.5,1.2c-8.3,0.3-18.2-1.8-29.1-8.6c4.1-9.2,8-17.5,12.1-26.3c6.4,4.4,13.8,8.6,21.5,8.3
					c7.5-0.3,12.9-4.8,12.2-11.3c-0.5-4.5-2.8-6.7-13.9-12.4c-21.9-11.2-28.5-22.4-28.7-35.9C285.8,34.6,299.9,18.5,320.1,17.8z"/>
			</g>
		</g>
		<g class="st0">
			<g class="st0">
				<defs>
					<path id="SVGID_49_" class="st0" d="M250.9,321.5l-45.5-17.3c-0.3-18.4-0.5-36.8-0.8-55.2l45.5,17.3
						C250.4,284.7,250.7,303.1,250.9,321.5z"/>
				</defs>
				<use xlink:href="#SVGID_49_"  style="overflow:visible;"/>
				<clipPath id="SVGID_50_">
					<use xlink:href="#SVGID_49_"  style="overflow:visible;"/>
				</clipPath>
				<g class="st25">
					<path d="M250.9,321.5l-45.5-17.3c-0.3-18.4-0.5-36.8-0.8-55.2l45.5,17.3C250.4,284.7,250.7,303.1,250.9,321.5"/>
				</g>
			</g>
			<g class="st0">
				<defs>
					<path id="SVGID_51_" class="st0" d="M227.2,244l-45.5-17.3c7.5-3.6,15-7,22.5-10.2l45.5,17.3C242.2,237,234.7,240.4,227.2,244z
						"/>
				</defs>
				<use xlink:href="#SVGID_51_"  style="overflow:visible;"/>
				<clipPath id="SVGID_52_">
					<use xlink:href="#SVGID_51_"  style="overflow:visible;"/>
				</clipPath>
				<g class="st26">
					<path d="M227.2,244l-45.5-17.3c7.5-3.6,15-7,22.5-10.2l45.5,17.3C242.2,237,234.7,240.4,227.2,244"/>
				</g>
			</g>
			<g class="st0">
				<defs>
					<path id="SVGID_53_" class="st0" d="M249.7,233.8l-45.5-17.3c-0.3-18.1-0.5-38.1-0.8-56.1l45.5,17.3
						C249.2,195.7,249.5,215.7,249.7,233.8z"/>
				</defs>
				<use xlink:href="#SVGID_53_"  style="overflow:visible;"/>
				<clipPath id="SVGID_54_">
					<use xlink:href="#SVGID_53_"  style="overflow:visible;"/>
				</clipPath>
				<g class="st27">
					<path d="M249.7,233.8l-45.5-17.3c-0.3-18.1-0.5-38.1-0.8-56.1l45.5,17.3C249.2,195.7,249.5,215.7,249.7,233.8"/>
				</g>
			</g>
			<g class="st0">
				<defs>
					<path id="SVGID_55_" class="st0" d="M248.9,177.6l-45.5-17.3c8.6-3.1,17.2-5.9,25.9-8.6l45.5,17.3
						C266.2,171.7,257.5,174.6,248.9,177.6z"/>
				</defs>
				<use xlink:href="#SVGID_55_"  style="overflow:visible;"/>
				<clipPath id="SVGID_56_">
					<use xlink:href="#SVGID_55_"  style="overflow:visible;"/>
				</clipPath>
				<g class="st28">
					<path d="M248.9,177.6l-45.5-17.3c0.8-0.3,1.7-0.6,2.5-0.9l45.5,17.3C250.6,177,249.8,177.3,248.9,177.6"/>
					<path d="M251.4,176.7l-45.5-17.3c7.8-2.7,15.6-5.3,23.4-7.7l45.5,17.3C267,171.4,259.2,174,251.4,176.7"/>
				</g>
			</g>
			<g class="st0">
				<defs>
					<path id="SVGID_57_" class="st0" d="M200.6,196.8l-45.5-17.3c8.6-3.8,17.2-7.4,25.8-10.7l45.5,17.3
						C217.8,189.4,209.2,193,200.6,196.8z"/>
				</defs>
				<use xlink:href="#SVGID_57_"  style="overflow:visible;"/>
				<clipPath id="SVGID_58_">
					<use xlink:href="#SVGID_57_"  style="overflow:visible;"/>
				</clipPath>
				<g class="st29">
					<path d="M200.6,196.8l-45.5-17.3c8.6-3.8,17.2-7.4,25.8-10.7l45.5,17.3C217.8,189.4,209.2,193,200.6,196.8"/>
				</g>
			</g>
			<g>
				<path d="M274.8,169c0.6,44.9,1.3,93.7,1.9,138.6c-8.6,4.4-17.2,9.1-25.8,13.9c-0.3-18.4-0.5-36.8-0.8-55.2
					c-8,3.9-14.4,7.1-22.5,11.2c0.3,19,0.6,41.9,0.9,60.9c-8.6,5.2-17.1,10.5-25.7,16c-0.7-50-1.5-107.7-2.2-157.7
					c8.6-3.8,17.2-7.4,25.8-10.7c0.3,18.7,0.5,39.3,0.8,57.9c7.5-3.6,15-7,22.5-10.2c-0.3-18.1-0.5-38.1-0.8-56.1
					C257.5,174.6,266.2,171.7,274.8,169z"/>
			</g>
			<g class="st0">
				<defs>
					<path id="SVGID_59_" class="st0" d="M202.8,354.5l-45.5-17.3c-0.7-50-1.5-107.7-2.2-157.7l45.5,17.3
						C201.3,246.8,202.1,304.5,202.8,354.5z"/>
				</defs>
				<use xlink:href="#SVGID_59_"  style="overflow:visible;"/>
				<clipPath id="SVGID_60_">
					<use xlink:href="#SVGID_59_"  style="overflow:visible;"/>
				</clipPath>
				<g class="st30">
					<path d="M202.8,354.5l-45.5-17.3c-0.7-50-1.5-107.7-2.2-157.7l45.5,17.3C201.3,246.8,202.1,304.5,202.8,354.5"/>
				</g>
			</g>
			<g class="st0">
				<defs>
					<path id="SVGID_61_" class="st0" d="M212.3,173.1l-45.5-17.3c-1.7-7.9-3.4-15.9-5-23.9l45.5,17.3
						C208.9,157.2,210.6,165.2,212.3,173.1z"/>
				</defs>
				<use xlink:href="#SVGID_61_"  style="overflow:visible;"/>
				<clipPath id="SVGID_62_">
					<use xlink:href="#SVGID_61_"  style="overflow:visible;"/>
				</clipPath>
				<g class="st31">
					<path d="M212.3,173.1l-45.5-17.3c-1.7-7.9-3.4-15.9-5-23.9l45.5,17.3C208.9,157.2,210.6,165.2,212.3,173.1"/>
				</g>
			</g>
			<g class="st0">
				<defs>
					<path id="SVGID_63_" class="st0" d="M248.5,159.6L203,142.3c-0.6-44.7-1.2-89.4-1.8-134.1l45.5,17.3
						C247.3,70.2,247.9,114.9,248.5,159.6z"/>
				</defs>
				<use xlink:href="#SVGID_63_"  style="overflow:visible;"/>
				<clipPath id="SVGID_64_">
					<use xlink:href="#SVGID_63_"  style="overflow:visible;"/>
				</clipPath>
				<g class="st32">
					<path d="M248.5,159.6L203,142.3c-0.6-44.7-1.2-89.4-1.8-134.1l45.5,17.3C247.3,70.2,247.9,114.9,248.5,159.6"/>
				</g>
			</g>
			<g>
				<path d="M272.5,22.3c0.6,43,1.2,86,1.8,129c-8.6,2.6-17.1,5.3-25.7,8.2c-0.6-44.7-1.2-89.4-1.8-134.1
					C255.3,24.3,263.9,23.2,272.5,22.3z"/>
			</g>
			<g class="st0">
				<defs>
					<path id="SVGID_65_" class="st0" d="M246.7,25.5L201.2,8.2C209.8,7,218.4,5.9,227,5l45.5,17.3
						C263.9,23.2,255.3,24.3,246.7,25.5z"/>
				</defs>
				<use xlink:href="#SVGID_65_"  style="overflow:visible;"/>
				<clipPath id="SVGID_66_">
					<use xlink:href="#SVGID_65_"  style="overflow:visible;"/>
				</clipPath>
				<g class="st33">
					<path d="M246.7,25.5L201.2,8.2C209.8,7,218.4,5.9,227,5l45.5,17.3C263.9,23.2,255.3,24.3,246.7,25.5"/>
				</g>
			</g>
			<g class="st0">
				<defs>
					<path id="SVGID_67_" class="st0" d="M186.6,129l-45.5-17.3c5.1-1.9,10.2-3.7,15.3-5.5l45.5,17.3
						C196.7,125.3,191.6,127.1,186.6,129z"/>
				</defs>
				<use xlink:href="#SVGID_67_"  style="overflow:visible;"/>
				<clipPath id="SVGID_68_">
					<use xlink:href="#SVGID_67_"  style="overflow:visible;"/>
				</clipPath>
				<g class="st34">
					<path d="M186.6,129l-45.5-17.3c4-1.5,8.1-2.9,12.1-4.4l45.5,17.3C194.6,126,190.6,127.5,186.6,129"/>
					<path d="M198.6,124.6l-45.5-17.3c1.1-0.4,2.1-0.7,3.2-1.1l45.5,17.3C200.8,123.9,199.7,124.3,198.6,124.6"/>
				</g>
			</g>
			<g class="st0">
				<defs>
					<path id="SVGID_69_" class="st0" d="M201.8,123.5l-45.5-17.3c-2.8-13.7-5.5-27.5-8.3-41.5L193.6,82
						C196.3,96,199.1,109.8,201.8,123.5z"/>
				</defs>
				<use xlink:href="#SVGID_69_"  style="overflow:visible;"/>
				<clipPath id="SVGID_70_">
					<use xlink:href="#SVGID_69_"  style="overflow:visible;"/>
				</clipPath>
				<g class="st35">
					<path d="M201.8,123.5l-45.5-17.3c-2.8-13.7-5.5-27.5-8.3-41.5L193.6,82C196.3,96,199.1,109.8,201.8,123.5"/>
				</g>
			</g>
			<g>
				<path d="M207.2,31.9c10.5,45.4,21,89.1,31.5,131.1c-8.8,3.2-17.6,6.5-26.4,10.1c-1.7-7.9-3.4-15.9-5-23.9
					c-8.4,3.2-16.9,6.5-25.3,10c-1.4,9.6-2.9,19.2-4.3,28.8c-8.5,3.9-17,8-25.5,12.3c9-56.2,18.1-110.2,27.2-162
					C188.6,36.1,197.9,33.9,207.2,31.9z M186.6,129c5.1-1.9,10.2-3.7,15.3-5.5c-2.8-13.7-5.5-27.5-8.3-41.5
					C191.2,97.5,188.9,113.2,186.6,129"/>
			</g>
			<g class="st0">
				<defs>
					<path id="SVGID_71_" class="st0" d="M152.2,200.4l-45.5-17.3c9-56.2,18.1-110.2,27.2-162l45.5,17.3
						C170.3,90.2,161.2,144.2,152.2,200.4z"/>
				</defs>
				<use xlink:href="#SVGID_71_"  style="overflow:visible;"/>
				<clipPath id="SVGID_72_">
					<use xlink:href="#SVGID_71_"  style="overflow:visible;"/>
				</clipPath>
				<g class="st36">
					<path d="M152.2,200.4l-45.5-17.3c9-56.2,18.1-110.2,27.2-162l45.5,17.3C170.3,90.2,161.2,144.2,152.2,200.4"/>
				</g>
			</g>
			<g class="st0">
				<defs>
					<path id="SVGID_73_" class="st0" d="M179.4,38.4l-45.5-17.3c9.3-2.4,18.5-4.5,27.8-6.5l45.5,17.3
						C197.9,33.9,188.6,36.1,179.4,38.4z"/>
				</defs>
				<use xlink:href="#SVGID_73_"  style="overflow:visible;"/>
				<clipPath id="SVGID_74_">
					<use xlink:href="#SVGID_73_"  style="overflow:visible;"/>
				</clipPath>
				<g class="st37">
					<path d="M179.4,38.4l-45.5-17.3c9.3-2.4,18.5-4.5,27.8-6.5l45.5,17.3C197.9,33.9,188.6,36.1,179.4,38.4"/>
				</g>
			</g>
		</g>
		<g class="st0">
			<g>
				<polygon points="120.5,217.3 75,200 59.8,156.6 105.3,174 				"/>
			</g>
			<g class="st0">
				<defs>
					<path id="SVGID_75_" class="st0" d="M99.1,145.4l-45.5-17.3c0.3-0.1,5-2.1,6.6-2.9l45.5,17.3
						C104.1,143.3,99.3,145.3,99.1,145.4z"/>
				</defs>
				<use xlink:href="#SVGID_75_"  style="overflow:visible;"/>
				<clipPath id="SVGID_76_">
					<use xlink:href="#SVGID_75_"  style="overflow:visible;"/>
				</clipPath>
				<g class="st38">
					<path d="M99.1,145.4l-45.5-17.3c0.3-0.1,5-2.1,6.6-2.9l45.5,17.3C104.1,143.3,99.3,145.3,99.1,145.4"/>
				</g>
			</g>
			<g class="st0">
				<defs>
					<path id="SVGID_77_" class="st0" d="M66.5,76.9L112,94.2c4.4,1.7,7,8.5,7.2,19.6c0.2,13.4-4.1,24.1-13.4,28.8l-45.5-17.3
						c9.3-4.7,13.7-15.4,13.4-28.8C73.4,85.4,70.9,78.5,66.5,76.9z"/>
				</defs>
				<use xlink:href="#SVGID_77_"  style="overflow:visible;"/>
				<clipPath id="SVGID_78_">
					<use xlink:href="#SVGID_77_"  style="overflow:visible;"/>
				</clipPath>
				<g class="st39">
					<path d="M105.7,142.5l-45.5-17.3c9.3-4.7,13.7-15.4,13.4-28.8c-0.2-11.1-2.8-17.9-7.2-19.6L112,94.2c4.4,1.7,7,8.5,7.2,19.6
						C119.3,127.1,115,137.9,105.7,142.5"/>
				</g>
			</g>
			<g>
				<path d="M129.4,152.1c6.4,17.1,12.8,33.8,19.2,50.1c-14.1,7.1-27.4,14.7-28.2,15.1L105.3,174l-5.8,3.1l0.7,52L75,244.7
					L72.7,74.5c1.1-0.5,21.7-9.3,32.6-13.5c4.8-1.8,9-2.7,12.6-2.8c8.6-0.3,14,3.3,17.2,6.7c5.9,6.4,9.4,16.7,9.7,35.2
					C145.2,123.3,139.6,137.5,129.4,152.1z M105.7,142.5c9.3-4.7,13.7-15.4,13.4-28.8c-0.2-13-3.7-20.2-9.6-20c-0.1,0-0.1,0-0.2,0
					c-1.4,0.1-2.8,0.5-4.4,1.1c-2.2,0.9-6.3,2.7-6.5,2.8l0.7,47.7C99.3,145.3,104.1,143.3,105.7,142.5"/>
			</g>
			<g>
				<polygon points="75,244.7 29.5,227.4 27.2,57.2 72.7,74.5 				"/>
			</g>
			<g class="st0">
				<defs>
					<path id="SVGID_79_" class="st0" d="M81.8,42.4l45.5,17.3c-2.6-1-5.7-1.6-9.4-1.5c-3.6,0.1-7.8,0.9-12.6,2.8
						c-10.9,4.2-31.5,13-32.6,13.5L27.2,57.2c1.1-0.5,21.7-9.3,32.6-13.5c4.8-1.8,9-2.7,12.6-2.8C76.1,40.8,79.2,41.4,81.8,42.4z"/>
				</defs>
				<use xlink:href="#SVGID_79_"  style="overflow:visible;"/>
				<clipPath id="SVGID_80_">
					<use xlink:href="#SVGID_79_"  style="overflow:visible;"/>
				</clipPath>
				<g class="st40">
					<path d="M72.7,74.5L27.2,57.2c1.1-0.5,21.7-9.3,32.6-13.5c0.5-0.2,0.9-0.3,1.4-0.5l45.5,17.3c-0.4,0.2-0.9,0.3-1.4,0.5
						C94.4,65.2,73.8,74,72.7,74.5"/>
					<path d="M106.7,60.5L61.2,43.2c4.2-1.5,7.9-2.2,11.2-2.3c3.2-0.1,5.9,0.3,8.3,1.1l45.5,17.3c-2.4-0.7-5.1-1.2-8.3-1.1
						C114.6,58.3,110.9,59,106.7,60.5"/>
					<path d="M126.2,59.3L80.7,42c0.4,0.1,0.8,0.3,1.1,0.4l45.5,17.3C126.9,59.5,126.6,59.4,126.2,59.3"/>
				</g>
			</g>
		</g>
	</g>
	<rect x="163.3" y="139.5" width="59.8" height="43.3"/>
	<rect x="244.9" y="109.1" width="59.8" height="43.3"/>
	<rect x="248.5" y="59.8" width="59.8" height="43.3"/>
	<rect x="298.9" y="36.6" width="59.8" height="43.3"/>
	<rect x="328.9" y="110.9" width="59.8" height="43.3"/>
	<rect x="298.9" y="165" width="59.8" height="43.3"/>
	<rect x="410.7" y="167.4" width="59.8" height="43.3"/>
	<g>
		<path class="st41" d="M503.2,139.5c0.2,0,0.4,0,0.7,0c7.6-0.1,17.1,2.9,23.5,6.7l-7.1,17c-4.4-2.4-10.1-4.1-14.8-4
			c-0.1,0-0.3,0-0.4,0c-4.1,0.2-6.7,2.6-6.6,6.1c0.1,3.8,2.7,6.9,12.4,12.4c12.4,7,19.9,14,20.4,26.1c0.6,16.1-9.5,26.8-25.2,29.5
			c-1.3,0.2-2.7,0.4-4.1,0.4c-6.7,0.2-15.1-1.6-24.5-8.1c3-6.7,5.8-12.8,8.8-19.2c5,3.7,10.7,7.3,16.5,7.5c0.3,0,0.6,0,0.9,0
			c5.1-0.2,8.7-3.2,8-7.9c-0.5-3.4-2.2-5.2-10.7-10.1c-16.8-9.7-21.9-18.5-22.3-28.7C478.2,151,488.9,140,503.2,139.5z"/>
	</g>
	<g>
		<path class="st41" d="M447.7,140c0.3,25.2,1.6,54.4,1.9,79.6c10.4-1.9,12.3-2.4,22.9-3.8c0.1,6.5,0.2,13,0.3,19.6
			c-23,4.9-26.8,5.7-47,10.8c-0.5-34-2.2-101.3-2.3-104.9C424.3,141.2,437.6,140.4,447.7,140z"/>
	</g>
	<g>
		<path class="st41" d="M387.6,145c0,3,0.8,59.8,1.2,88.7c10.6-2.9,17.7-5.4,28.3-7.7c0.1,7.5,0.2,15.1,0.3,22.6
			c-19.2,5.6-34.9,10.9-54.2,17.8c-0.5-38.7-1.1-78.8-1.6-117.5C375.1,146.7,387,145.1,387.6,145z"/>
	</g>
	<g>
		<path class="st41" d="M365.8,19.9c19.9,0.4,40.5,1.1,61.5,2.4c0.1,7.1,0.2,16,0.3,23c-11.9-0.3-23.9-0.8-35.7-0.9
			c0.1,6.3,0.2,12.6,0.3,18.9c10.7,0.2,21.4,0.6,32.1,1.3c0.1,6.9,0.2,13.7,0.3,20.6c-10.7-0.3-21.4-0.3-32.1,0
			c0.1,6.5,0.2,13.5,0.3,20.1c5.9-0.4,17.1-0.9,27.5-1.3c3.1-0.1,6.1-0.2,8.8-0.3l0.3,20.8c-23.5,1.8-40.7,3.6-62,6.2
			C366.8,93.8,366.3,56.8,365.8,19.9z"/>
	</g>
	<g>
		<path class="st41" d="M350.7,151.6l0.4,25.5c-17.8,4.5-34.4,9.2-35.2,9.5c0.1,7.5,0.2,15.5,0.4,23c10.7-3.4,21.4-6.5,32-9.3
			c0.1,8.3,0.2,16.5,0.3,24.8c-10.7,3.3-21.3,6.8-32,10.7c0.1,7.8,0.2,15.6,0.3,23.4c12.1-4.8,23.9-9.2,35.9-13.3
			c0.1,8.5,0.2,17,0.3,25.5c-20.6,7.9-41,16.8-61.6,26.8c-0.6-43.8-1.2-87.7-1.8-131.5C290.2,166.7,321.3,157.8,350.7,151.6z"/>
	</g>
	<g>
		<path class="st41" d="M320.1,17.8c10.9-0.4,21.7,3.4,31.7,10.8l-11.4,22.2c-4.7-3.5-11.4-7.9-18.8-7.6c-0.1,0-0.3,0-0.4,0
			c-5.4,0.3-8.9,4.1-8.9,8.8c0.1,5,3.4,8.9,16.1,15.2c16.2,8,26,16.7,26.3,32.6c0.4,21.2-13.3,36.4-34.1,41.5
			c-2.6,0.6-5.5,1.1-8.5,1.2c-8.3,0.3-18.2-1.8-29.1-8.6c4.1-9.2,8-17.5,12.1-26.3c6.4,4.4,13.8,8.6,21.5,8.3
			c7.5-0.3,12.9-4.8,12.2-11.3c-0.5-4.5-2.8-6.7-13.9-12.4c-21.9-11.2-28.5-22.4-28.7-35.9C285.8,34.6,299.9,18.5,320.1,17.8z"/>
	</g>
	<g>
		<path class="st41" d="M274.8,169c0.6,44.9,1.3,93.7,1.9,138.6c-8.6,4.4-17.2,9.1-25.8,13.9c-0.3-18.4-0.5-36.8-0.8-55.2
			c-8,3.9-14.4,7.1-22.5,11.2c0.3,19,0.6,41.9,0.9,60.9c-8.6,5.2-17.1,10.5-25.7,16c-0.7-50-1.5-107.7-2.2-157.7
			c8.6-3.8,17.2-7.4,25.8-10.7c0.3,18.7,0.5,39.3,0.8,57.9c7.5-3.6,15-7,22.5-10.2c-0.3-18.1-0.5-38.1-0.8-56.1
			C257.5,174.6,266.2,171.7,274.8,169z"/>
	</g>
	<g>
		<path class="st41" d="M272.5,22.3c0.6,43,1.2,86,1.8,129c-8.6,2.6-17.1,5.3-25.7,8.2c-0.6-44.7-1.2-89.4-1.8-134.1
			C255.3,24.3,263.9,23.2,272.5,22.3z"/>
	</g>
	<g>
		<path class="st41" d="M207.2,31.9c10.5,45.4,21,89.1,31.5,131.1c-8.8,3.2-17.6,6.5-26.4,10.1c-1.7-7.9-3.4-15.9-5-23.9
			c-8.4,3.2-16.9,6.5-25.3,10c-1.4,9.6-2.9,19.2-4.3,28.8c-8.5,3.9-17,8-25.5,12.3c9-56.2,18.1-110.2,27.2-162
			C188.6,36.1,197.9,33.9,207.2,31.9z M186.6,129c5.1-1.9,10.2-3.7,15.3-5.5c-2.8-13.7-5.5-27.5-8.3-41.5
			C191.2,97.5,188.9,113.2,186.6,129"/>
	</g>
	<g>
		<path class="st41" d="M129.4,152.1c6.4,17.1,12.8,33.8,19.2,50.1c-14.1,7.1-27.4,14.7-28.2,15.1L105.3,174l-5.8,3.1l0.7,52
			L75,244.7L72.7,74.5c1.1-0.5,21.7-9.3,32.6-13.5c4.8-1.8,9-2.7,12.6-2.8c8.6-0.3,14,3.3,17.2,6.7c5.9,6.4,9.4,16.7,9.7,35.2
			C145.2,123.3,139.6,137.5,129.4,152.1z M105.7,142.5c9.3-4.7,13.7-15.4,13.4-28.8c-0.2-13-3.7-20.2-9.6-20c-0.1,0-0.1,0-0.2,0
			c-1.4,0.1-2.8,0.5-4.4,1.1c-2.2,0.9-6.3,2.7-6.5,2.8l0.7,47.7C99.3,145.3,104.1,143.3,105.7,142.5"/>
	</g>
</g>
</svg>
