<?xml version="1.0" encoding="utf-8"?>
<!-- Generator: Adobe Illustrator 19.1.0, SVG Export Plug-In . SVG Version: 6.00 Build 0)  -->
<svg version="1.1" id="Layer_1" xmlns="http://www.w3.org/2000/svg" xmlns:xlink="http://www.w3.org/1999/xlink" x="0px" y="0px"
	 viewBox="0 0 280 160" style="enable-background:new 0 0 280 160;" xml:space="preserve">
<style type="text/css">
	.st0{fill:#1D1D1B;}
	.st1{fill:#FFFFFF;}
</style>
<g>
	<path class="st0" d="M91.6,118.9c-0.2-1.3-0.5-2.6-1.2-3.7c-0.2-0.4-0.3-0.8-0.4-1.2c-0.1-0.8,0.1-1.7-0.6-2.4
		c-0.1-0.1-0.1-0.5-0.1-0.9c0.4,0.1,0.8,0.1,1.1,0.3c-0.2-0.7-0.4-1.4-0.5-2.1c-0.6,0.6-1.1,1.3-1.7,1.7c-1.4,0.8-2.2,2.3-3.6,3.1
		c-0.3,0.2-0.5,0.6-0.8,0.9c-0.4,0.4-0.7,0.7-1,1c-0.8-0.4-1.5-0.7-2.3-1.1c-0.1-1.2,0.1-2.3,0.7-3.3c0.2-0.4,0.3-0.7,0.2-1
		c-0.1-0.8,0.1-1.5,0.3-2.2c0.2-0.5,0.6-0.9,0.4-1.6c-0.1-0.2,0.4-0.5,0.4-0.8c0-0.7,0.5-1.3,0.5-2c0-0.3,0.4-0.7,0.4-1
		c0-0.4,0.1-0.7,0.2-1c0.2-0.4,0.4-0.9,0.3-1.4c0-0.1-0.1-0.2,0-0.2c0.7-0.6,0.6-1.5,0.7-2.3c0.2-0.9,0.7-1.7,0.6-2.6
		c0.5-0.5,0.4-1.2,0.4-1.8c0-0.3,0.2-0.7,0.4-0.9c0.6-0.6,0.5-1.4,0.6-2.1c0,0-0.1-0.1-0.2-0.1c-0.1,0.8-1.1,1.1-0.9,2
		c-0.6,0.5-0.8,1.2-0.9,2c0,0.4-0.6,0.6-0.9,1c-0.3,0.3-0.8,0.4-0.3,0.9c0,0,0,0.1-0.1,0.2c-0.6,1-1.2,2-1.4,3.2
		c-0.5,0.5-0.6,1.2-0.8,1.8c-0.1,0.2,0,0.5-0.4,0.5c-0.1,0-0.3,0.2-0.3,0.4c0,1-0.7,1.6-1,2.5c-0.2,0.7-0.6,1.4-1,2
		c-0.4,0.5-0.6,1.1-0.8,1.7c-0.5,1.1-0.9,2.3-1.7,3.2c-0.1,0.1-0.1,0.3-0.1,0.4c-0.6,0-1.1,0.1-1.8,0.1c0.1-0.4,0.2-0.7,0.3-0.9
		c0.5-1,0.9-1.9,1.4-2.9c0.2-0.3,0.4-0.6,0.5-0.9c0.3-0.9,0.6-1.8,1.3-2.5c0.1-0.1,0.2-0.3,0.2-0.5c0.4-1,0.8-2,1.3-3
		c0.5-0.9,1.1-1.8,1.2-2.9c0-0.1,0-0.3,0.1-0.4c0.6-0.5,0.6-1.2,0.9-1.8c0.7-1.5,1.5-3,2.2-4.5c0.2-0.4,0.3-0.9,0.5-1.3
		c0.2-0.4,0.7-0.6,0.5-1.2c0.3-0.3,0.5-0.6,0.8-1c0.3,0.1,0.8-0.4,1,0.3c0,0,0.4,0.1,0.6,0c0.2-0.1,0.4-0.3,0.5-0.5
		c0.1-0.9,0.8-1.2,1.5-1.6c-0.8-2.6-1.7-5.3-2.5-7.9c0.1,0.6,0.4,1.2,0.5,1.9c0.2,0.7,0.2,1.4,0.3,1.9c-0.2,0.8-0.8,0.8-1.4,1.1
		c-0.6-0.4-1-0.9-0.9-1.8c0.1-1-0.4-2-0.5-3c0-0.2-0.2-0.4-0.3-0.6c-0.1-0.2-0.3-0.3-0.3-0.5c0-1.3-0.7-2.3-1.1-3.5
		c-0.3-1.1-1-2.1-0.9-3.3c0-0.3-0.2-0.4-0.3-0.6c-0.2-0.3-0.4-0.7-0.4-1.1c0-0.2-0.1-0.4-0.2-0.5c-0.2-0.4-0.6-0.7-0.6-1.1
		c0-0.7-0.4-1.1-0.7-1.6c-0.3-0.6-0.6-1.2-0.9-1.7c-0.7-1.2-1.5-2.5-3-3.1c-0.5-0.2-0.8-0.7-1.4-1.1c0.4-0.1,0.6-0.2,0.9-0.4
		c0.4-0.2,0.9,0.1,1.1,0.3c0.6,0.5,1.5,0.8,1.9,1.6c0.3,0.5,0.9,0.8,1.4,1.2c0.4,0.4,0.8,0.8,0.8,1.4c0,0.4,0.7,1.3,1.2,1.8
		c0.2,0.2,0.3,0.5,0.5,0.8c0.5,0.9,0.7,2,1.1,2.9c0.3,0.5,0.3,1.1,0.4,1.7c0.1,0.6,0,1.2,0.5,1.7c0.1,0.1,0.1,0.4,0.1,0.6
		c0,0.3,0.2,0.6,0.4,0.8c0.1,0.2,0.2,0.4,0.3,0.6c-0.3-1.1-0.7-2.1-1-3.2c-0.2-0.7-0.2-1.5-0.1-2.3c0.2-0.7,0.4-1.5,0.5-2.2
		c-0.3,0-0.6-0.1-0.9-0.1c0.1-0.7,0.2-1.4,0.4-2.1c0.2-0.7,0.3-1.4,0.3-2.1c0-0.7-0.2-1.4,0.4-2.1c0.1,0,0.3-0.1,0.6,0
		c-1.5-1.2-3.1-2.4-4.6-3.5c0,0.6,0,0.7-0.3,1.1c-1.1-0.1-1.9-0.7-2.7-1.4c-0.9-0.8-2-1.4-3-2.2c-0.1,0.1-0.2,0.3-0.3,0.4
		c-0.5,0.2-0.8,0.6-0.9,1.1c-0.1,0.6-0.5,1-0.8,1.4c-0.4,0.4-0.6,0.8-0.7,1.3c-0.2,0.6-0.3,1.2-0.9,1.6c-0.2,1.2-1.3,1.9-1.6,3
		c-0.1,0.5-0.6,0.7-0.6,1.3c0,0.5-0.5,0.9-0.7,1.3c-0.3,0.4-0.5,0.8-0.8,1.2c-0.3,0.5-0.6,1.1-0.9,1.6c-0.2,0.4-0.5,0.7-0.7,1.1
		c-0.1,0.1-0.3,0.2-0.3,0.4c-0.1,0.9-0.8,1.6-1.2,2.4c-0.4,0.9-1,1.8-1.5,2.7c-0.1,0.2-0.3,0.5-0.5,0.7c-0.1,0.2-0.4,0.4-0.4,0.6
		c-0.6,1.5-1.4,2.8-2.2,4.1c-0.3,0.6-0.7,1.1-0.9,1.8c-0.2,0.6-0.4,1.2-0.6,1.7c-0.2,0.6-0.6,1.2-0.8,1.8c-0.3,1.3-0.7,2.6-0.9,4
		c-0.2,1.6,0.2,3.1,0.1,4.6c0.6,1.6,0.4,3.3,0.6,5c0.1,0.5-0.2,1.1,0.3,1.5c0,0,0,0.2-0.1,0.3c0,0.2-0.2,0.5-0.1,0.7
		c0.6,1.2,0.3,2.6,0.5,3.9c0.1,0.7,0.3,1.4,0.4,2.1c0.1,0.7,0,1.4,0.3,2c0.1,0.2-0.2,0.7,0,0.8c0.2,0.3,0.3,0.5,0.3,0.8
		c0,0.3,0.2,0.7-0.1,0.9c0.3,0.4,0.2,1,0.3,1.5c0.1,0.4,0.4,0.8,0.3,1.1c-0.1,0.4,0.1,0.7,0.1,1c0,0.4,0,0.7,0.1,1.1
		c0,0.4,0.1,0.8,0.1,1.2c0,0.2,0,0.4,0,0.6c10.8-1.1,21.5-0.2,32.3,0.2C91.7,119.3,91.6,119.2,91.6,118.9z M71.6,107.8
		c-0.2,0.5-0.4,1-0.7,1.4c-0.3,0.5-0.7,0.8-0.6,1.5c0,0.2-0.2,0.6-0.5,0.8c-0.4,0.2-0.9,0.3-1.3,0.4c-0.2,0-0.4-0.2-0.6-0.3
		c0,0,0-0.2,0-0.2c-0.1-0.7,0.1-1.5-0.4-2.1c0.3-0.5,0-1-0.1-1.5c-0.1-0.5-0.2-0.9-0.3-1.4c-0.1-0.5,0.1-1-0.3-1.4
		c0,0,0.2-0.4,0.2-0.5c-0.1-0.5,0.1-1.1-0.3-1.7c-0.2-0.2-0.1-0.6-0.1-1c-0.1-0.4,0.4-1-0.3-1.3c0.1-0.4,0.2-0.8,0.1-1.2
		c0-0.4-0.8-0.5-0.5-1c0.2-0.6-0.2-1-0.1-1.5c0-0.6-0.1-1.2-0.1-1.7c0-0.1-0.2-0.2-0.3-0.3c0.2-0.2,0.3-0.4,0.5-0.6
		c-0.8-1.1-0.7-2.5-0.8-3.8c0.1-0.1,0.3-0.2,0.5-0.3c0.6-0.5,1.1,0,1.7,0.1c0.5,0.1,0.4,0.7,0.4,1c0.1,1.8,0.7,3.5,0.6,5.3
		c0.4,0.8,0.2,1.7,0.5,2.5c0.2,0.6,0.4,1.2,0.1,1.8c0,0.1,0,0.2,0,0.2c0.1,0.4,0.4,0.7,0.3,1.1c0,0.4-0.1,0.8,0.3,1.1
		c-0.3,0.4,0.1,0.7,0.1,1c0,0.4,0,0.8,0.1,1.2c0.1,0.5,0.2,1,0.4,1.8c0.4-0.6,0.6-0.9,0.8-1.3c0.5-1.1,1-2.1,1.7-3.1
		c0,0,0.1-0.1,0.1-0.1c0.2-1.1,1-1.9,1.4-2.9c0.7-1.6,1.4-3.1,2.5-4.5c0.5-0.7,0.9-1.5,1.2-2.3c0.7-1.7,1.7-3.2,2.6-4.8
		c0.7-1.3,1.6-2.4,2.1-3.8c0.1-0.4,0.5-0.6,0.8-1c0.2,0.1,0.3,0.2,0.5,0.2c0.2-0.2,0.4-0.4,0.5-0.5c0.5,0.1,0.7,0.4,0.6,0.8
		c-0.1,0.6-0.3,1.2-0.7,1.7c-0.5-0.1-0.4,0.4-0.4,0.6c-0.1,0.7-0.6,1.2-0.8,1.8c0,0.1-0.1,0.2-0.2,0.3c-0.3,0.4-0.9,0.7-1,1.4
		c-0.1,0.5-0.5,1.1-0.9,1.5c-0.8,1.1-1.3,2.3-2,3.5c-0.9,1.4-1.6,3-2.4,4.5c0,0,0,0.1,0,0.1c-0.7,0.4-0.7,1.2-1.1,1.8
		c-0.4,0.6-0.6,1.3-1,1.8c-0.4,0.8-1,1.5-1.5,2.3C72.3,106.3,72,107.1,71.6,107.8z"/>
	<path class="st0" d="M227.3,135.8c-0.3-0.5-0.8-0.8-1.1-1.2c-0.4-0.7-1-1.4-1.4-2.1c-0.4-0.8-0.9-1.5-1.2-2.4
		c-0.1-0.3-0.1-0.6-0.2-0.9c-0.2-0.7,0.2-1.4-0.4-2c0-0.1,0.1-0.3,0.1-0.4c0.1-0.8,0.4-1.7,0.4-2.5c0.1-0.8,0.2-1.6,0.5-2.4
		c0.2-0.6,0.4-1.2,0.4-1.8c0.1-0.6,0.4-1.2,0.7-1.8c0.2-0.4,0.4-0.8,0.3-1.4c0-0.1-0.1-0.3,0-0.4c0.7-0.6,0.3-1.4,0.3-2.1
		c-0.1-0.7,0.2-1.5-0.4-2.1c0.2-1-0.9-1.5-1-2.5c-0.4-0.4-0.2-1.1-0.8-1.4c-0.4-0.3-0.3-1.1-0.8-1.4c-0.1-0.7-0.9-1.3-0.7-2.1
		c0.1-0.3-0.1-0.5-0.4-0.7c-0.1,0-0.2-0.1-0.2-0.2c0-0.3,0.1-0.6,0-0.8c-0.1-0.2-0.4-0.3-0.4-0.7c0-1.1-0.3-2.2-0.7-3.2
		c-0.2-0.5-0.1-1.1-0.1-1.6c0-0.5-0.3-1.1,0.1-1.5c-0.2-0.6,0.1-1.3-0.3-1.9c0-0.1-0.1-0.2-0.1-0.2c0.4-0.6,0.1-1.3,0.1-1.9
		c0-0.6,0.1-1.2,0.1-1.8c0-0.4,0.6-0.4,0.3-0.9c-0.2-0.3-0.2-0.6-0.2-0.9c0-0.2,0.1-0.4,0.2-0.5c0.4-0.7,0.4-1.5,0.6-2.2
		c0.1-0.4,0.2-0.9,0.3-1.3c0.1-0.4,0-0.9,0.4-1.3c0.2-0.2,0.3-0.8,0.2-1.2c0-0.5,0.2-0.8,0.4-1.1c0.2-0.3,0.4-0.6,0.4-0.9
		c0.2-0.8,0.5-1.5,0.9-2.2c0.3-0.5,0.4-1,0.6-1.5c0.1-0.2,0.6-0.1,0.4-0.4c-0.4-0.8-0.1-1.5-0.1-2.3c-0.1-1.5-0.6-3.2-1.2-4.5
		c-0.5-1.1-1.2-2.1-2.3-2.8c-1-0.7-1.9-1.4-3.1-1.6c-0.5-0.1-1-0.4-1.5-0.6c-0.2-0.1-0.4-0.2-0.5-0.3c-0.6,0.9-1.2,1.7-1.7,2.5
		c-0.1,0.1-0.1,0.4-0.1,0.6c0.2,0,0.4,0.2,0.5,0.4c0,0.2,0,0.3,0,0.5c0,0.2,0.1,0.4,0.1,0.6c0.3,0.8,0.5,1.6,0.5,2.4
		c0,0.1,0.1,0.1,0.1,0.2c0,0.9,0.2,1.7-0.1,2.6c-0.3,0.9-0.8,1.7-1,2.7c-0.1,0.5-0.6,1-0.9,1.4c-1,1.1-1.9,2.3-2.9,3.4
		c-0.3,0.3-0.6,0.6-0.9,0.7c-0.7,0.2-1.3,0.7-2.1,0.7c-0.7,0-1.3,0.9-1.4,1.7c0,0.3,0,0.6-0.2,0.8c-0.7,0.8-0.4,1.6-0.1,2.5
		c0.2,0.9,0.2,1.8,0.3,2.7c-0.5,0.5,0.1,1.2-0.4,1.7c-0.4,0.5,0,1.1-0.2,1.6c-0.3,1-0.4,2.1-0.9,3.1c-0.3,0.6-0.7,1.3-0.7,2.1
		c0,0.1-0.1,0.3-0.2,0.4c-0.2,0.2-0.3,0.4-0.5,0.6c-0.5,1.5-1.1,3-1.6,4.5c-0.1,0.3-0.1,0.6-0.2,0.9c-0.1,0.2-0.1,0.5-0.2,0.7
		c-0.1,0.5-0.3,0.9,0,1.4c0.2,0.4-0.1,1.1-0.2,1.7c0.2,1.6,0.5,3.2,0.8,4.8c0,0.1,0,0.2,0,0.2c0.1,0.5,0.3,1,0.7,1.4
		c0.1,0.2,0.2,0.5,0.1,0.7c0,0.9,0.3,1.6,0.7,2.3c0.2,0.3,0.3,0.7,0.2,0.9c-0.3,0.5-0.1,1-0.1,1.5c0,1.5,0.1,3,0.1,4.5
		c0,0.6-0.1,1.3-0.4,1.8c-0.1,0.1-0.1,0.2-0.1,0.3c0,0.3-0.1,0.7-0.2,1c0,0.2,0,0.4,0,0.6c0.1,0.5,0.1,1.1-0.4,1.4
		c-0.1,1-1.1,1.7-1.1,2.8c-0.5,1-1.1,1.9-1.9,2.8c3.6,0.2,7.1,0.5,10.7,0.8c0-0.1,0-0.2,0-0.3c0.1-0.4,0.1-1,0-1.5
		c0-0.1-0.1-0.3,0-0.4c0.4-1,0.1-1.9-0.4-2.8c-0.1-0.1,0-0.4,0.1-0.6c0.1-0.2,0.1-0.3,0-0.5c-0.1-0.1-0.1-0.3-0.2-0.4
		c-0.2-0.4,0.6-0.8-0.1-1.2c0-0.4-0.1-0.8-0.1-1.2c0-0.6-0.3-1.2,0.6-1.5c0.2-0.1,0.2-0.5,0.5-1c0.4,0.6,1.2,0.7,0.7,1.5
		c0,0-0.1,0.1,0,0.1c0.3,0.3,0.6,0.9,0.5,1.2c-0.2,0.5-0.1,0.9,0,1.3c0,0.4,0.2,0.8,0.3,1.2c0.1,0.3,0.4,0.7,0.3,0.8
		c-0.2,0.3-0.3,0.7-0.1,0.9c0.4,0.6,0.2,1.2,0.4,1.8c0.2,0.8-0.3,1.5-0.5,2.2c-0.1,0.2-0.1,0.3-0.3,0.5c2.5,0.2,4.9,0.4,7.4,0.5
		c-0.1-0.2-0.2-0.4-0.5-0.5c-0.1,0-0.2-0.1-0.2-0.2c-0.2-1-1-1.7-1.5-2.5c-0.2-0.3-0.4-0.8-0.5-1.2c0-0.4-0.2-0.8-0.4-1.1
		c-0.5-0.7-0.1-1.6-0.7-2.2c-0.2-0.3,0.4-0.4,0-0.7c-0.2-0.2-0.3-0.5-0.4-0.8c-0.1-0.3-0.1-0.5-0.2-0.8c-0.2-0.7-0.4-1.4-0.5-2.1
		c-0.1-0.9-0.1-1.8-0.2-2.7c-0.1-0.6,0-1.3-0.3-1.9c-0.2-0.3-0.3-1-0.1-1.3c0.2-0.5,0.1-0.9,0.1-1.3c0-0.6-0.1-1.1,0.2-1.6
		c0.1-0.1,0.1-0.2,0.1-0.3c0-0.7,0.1-1.4,0.1-2.1c0-0.5,0.1-0.9,0.2-1.4c0-0.1,0.1-0.2,0.2-0.3c0.4-0.3,0.8-0.7,1.2-1
		c0.5,0.1,0.6,0.4,0.5,0.9c-0.1,0.4-0.2,0.7-0.3,1c0.5,0.3-0.1,0.6,0,1c0.2,0.7,0,1.5-0.3,2.2c0,0.1,0,0.2,0,0.2
		c0.1,2.2-0.1,4.5,0.3,6.7c0.1,0.5,0.4,1,0.3,1.5c0,0.2,0.1,0.4,0,0.5c-0.5,0.4-0.1,0.7,0.1,0.9c0.3,0.3,0.3,0.7,0.3,1
		c0.1,1.5,0.6,2.9,1.1,4.3c0.2,0.5,0.3,1.1,0.7,1.6c0.4,0.4,0.4,1.1,0.7,1.6c0.4,0.7,0.9,1.4,1.3,2c0.2,0.2,0.3,0.5,0.5,0.7
		c2.4,0,4.9,0,7.4-0.3C228,136.6,227.6,136.3,227.3,135.8z"/>
	<path class="st1" d="M124.2,68.5c-0.2-0.1-0.2-0.2-0.3-0.3c0.9-0.8,1.9-1,3-0.5c0.8,0.4,1.8,0.3,2.6,0.5c0.6,0.2,1.3,0.1,1.8,0.4
		c0.3,0.2,0.4-0.5,0.7-0.1c0.1,0.1,0.5,0.1,0.7,0c0.4-0.1,0.6,0.1,0.8,0.5c-0.7,0.7-1.3,1.4-2,2.1c-0.1,0.1-0.3,0.1-0.3,0.1
		c-0.2,0.8-1,1.2-1.4,1.9c-0.2,0.3-0.3,0.7-0.2,1c0.1,0.7-0.1,1.3-0.2,1.9c-0.1,0.4-0.2,0.8,0.1,1.1c0.4,0.3,0.8,0.2,1.3,0.1
		c0.1,0,0.3-0.1,0.4-0.2c0.7-1,1.9-1.4,2.6-2.4c0.2-0.3,0.5-0.6,0.8-0.9c0.5-0.6,1.1-1.1,1.2-1.9c0-0.3,0.3-0.5,0.6-0.8
		c0.5,0.6,1.3,0.5,1.6,1.2c-0.8,1.1-1.1,2.5-2.4,3.3c-0.7,1.3-2.1,1.8-3.1,2.7c-0.2,0.2-0.5,0.4-0.9,0.3c-0.3,0-0.6,0-0.9,0.1
		c-1.5,0.3-2.4-0.6-3.2-1.7c-0.1-0.1-0.1-0.2-0.1-0.3c0.1-0.4-0.3-0.7-0.2-1.1c0.1-0.3,0.4-0.4,0.7-0.7c0-0.1,0-0.2,0-0.4
		c-0.5-0.9,0-1.6,0.6-2.3c0.7-0.9,1.3-1.8,2.4-2.3c-0.8-0.2-1.5-0.6-2.3-0.6c-0.4,0-0.8,0.3-1.2-0.2c-0.8,0.2-1.7-0.3-2.5,0
		c-0.1,1.7-0.7,3.2-1.3,4.8c-0.7,1.5-1.2,3.1-1.6,4.7c-0.1,0.5-0.4,1-0.7,1.6c0.3,0.3,0.6,0.5,1,0.7c0.9,0.3,1.8,0.8,2.7,1.2
		c0.2,0.1,0.3,0.1,0.6,0c0.6-0.2,1.3-0.2,2.1,0.3c0,0,0.1,0.2,0,0.4c-0.2,0.6-0.2,1,0.3,1.5c0.1,0.1,0.1,0.5,0,0.6
		c-0.7,0.9-0.2,1.6,0.3,2.4c-0.3,1-1.1,1.6-2.1,2c0.5,0.7,0.8,1.3,0.5,2.1c-0.2,0.4-0.4,0.8-0.7,1c-0.6,0.4-1,0.9-1.2,1.5
		c-0.8,0.3-1.6,0.1-2.4-0.1c-1.8-0.4-3.5-1.2-5.2-2.1c-0.2,0.7-0.4,1.5-0.6,2.2c0,0.1-0.1,0.3-0.2,0.4c-0.3,0.5-0.5,1.1-0.7,1.7
		c-0.1,0.6-0.4,1.1-0.6,1.6c-0.4,0.9-0.6,1.9-1,2.8c-0.3,0.6,0,1,0.8,1.1c0.6,0.1,1.1,0.1,1.7,0.3c0.6,0.3,1.4,0.2,2.1,0.3
		c0.6,0.1,1.1,0.3,1.7,0.4c0.6,0.1,1.2,0,1.7,0.4c0.1,0.1,0.4,0,0.6,0c0.4-0.1,0.9,0,1.1,0.2c0.5,0.4,1.2-0.1,1.7,0.4
		c0.9,0,1.7,0.4,2.5,0.5c1.3,0.1,2.5,0.4,3.7,0.8c0.5,0.2,0.7-0.1,1-0.7c0.4-0.7,0.4-1.5,0.5-2.2c0.3-1.1,0.6-2.2,0.5-3.3
		c0-0.1,0-0.2,0-0.2c0.8-1,0.5-2.3,0.7-3.4c0.1-0.4,0.3-0.7,0.4-1.1c0.1-0.4,0.1-0.8,0.2-1.2c0.1-0.4,0-0.9,0.2-1.2
		c0.3-0.4,0-0.8,0.1-1.2c0.2-0.6,0-1.2,0.4-1.7c0.2-0.4,0.1-0.8,0.2-1.1c0.3-0.6,0.2-1.3,0.4-1.9c0.2-0.6,0.4-1.3,0.2-2
		c0.5-1.1,0.5-2.3,0.9-3.3c0.2-0.4,0.7-0.9,0-1.4c0.5-0.4,0-1.1,0.3-1.6c0.3-0.4,0.3-1.1,0.4-1.7c0-0.1,0.2-0.3,0.3-0.4
		c0.8-0.7,1.6-1.4,2.5-1.9c0.8-0.4,1.5-0.1,2.3,0.1c0.4,0.1,0.9,0.3,1.3,0.5c1.3-1.4,2.7-2.7,4.3-3.8c0.6-0.4,1.3-0.5,1.8-1.1
		c0.1-0.1,0.2-0.1,0.3-0.2c1.3-1.1,1.5-1.2,3.3-0.9c0.3,0.1,0.6-0.1,0.9,0.1c0.6,0.5,1.6,0.6,2,1.4c0.1,0.1,0.2,0.1,0.3,0.2
		c0.4,0.4,1,0.6,1.4,1.1c0.4,0.6,1.2,0.8,1.9,0.9c1.5,0.2,2.6,0.9,3.3,2.3c0.1,0.2,0.3,0.7,0.1,0.8c-0.4,0.3,0.2,0.6,0,0.8
		c-0.2,0.3-0.2,0.5-0.2,0.8c0,0.3,0,0.7,0.1,0.9c-0.4,0.3-0.7,0.6-0.9,0.9c-0.7,0.7-2,1.1-3,0.9c-0.5-0.1-1.1,0-1.6-0.2
		c-0.5-0.2-1-0.4-1.6-0.7c0.4,1.6,0.9,3.1,1.3,4.7c1.1-0.6,2.3-0.4,3.3-1.1c0.7-0.5,1.6-0.5,2.3-0.4c0.6,0.4,1.1,0.6,1.5,1
		c0.6,0.5,1,1.2,1.2,2c0.1,0.4,0.2,0.8,0.4,1.1c0.2,0.5,0.4,0.9,0.4,1.5c0,0.8,0.6,1.3,0.7,2.1c0,0.2,0.2,0.4,0.2,0.5
		c0.1,0.8,0.5,1.5,0.6,2.3c0.1,1.4,1,2.6,1.1,4c0,0.4,0.4,0.7,0.3,1.1c0.6,0.7,0.1,1.3,0,2c-0.1,0.4-0.3,0.6-0.7,0.9
		c-0.7,0.4-1.4,0.9-2.2,1.2c-0.6,0.2-1.3,0.4-1.9,0.5c-0.5,0.1-0.9-0.1-1.3-0.3c0.2-1.1,1.2-1.2,2-1.4c0.7-0.2,1.3-0.5,1.9-0.8
		c0.4-0.2,0.6-0.4,0.7-1c0-0.3,0.2-0.5-0.1-0.8c-0.3-0.3-0.4-0.8-0.4-1.2c0.1-0.7-0.4-1.2-0.8-1.8c0,0-0.1,0-0.3,0
		c0.2,0.4,0.4,0.8,0.6,1.3c-0.4,0.5-0.8,1-1.4,1.3c-0.1,0-0.3,0.1-0.3,0.2c-0.1,0.9-0.9,0.6-1.3,1c-0.4-0.3-0.5,0.5-0.9,0.2
		c-0.2-0.2-0.6,0-1,0c-0.7,0.8-1.4,1.6-2.1,2.4c-0.7,0.8-0.7,1.6-0.4,2.5c0.4,1.1,0.7,2.2,1.1,3.3c0.4,0.9,0.8,1.8,0.7,2.9
		c0,0.1,0.1,0.2,0.2,0.3c0.2,0.6,0.4,1.1,0.5,1.7c0.1,0.9,0.7,1.4,1.6,1.1c0.3-0.1,0.7-0.2,1-0.3c0.3-0.1,0.4-0.3,0.4-0.6
		c0.1-0.7-0.4-1.3-0.4-2c-0.6-0.4-0.1-1.1-0.6-1.5c-0.4-0.4-0.2-1-0.4-1.5c-0.5-1-0.3-2.2-0.9-3.1c-0.2-0.3-0.3-1.1,0.4-1.4
		c0.7,0.5,0.9,1.2,1,2c0.1,0.7,0.4,1.4,0.7,2c0.3,0.6,0.6,1.2,0.6,1.9c0.1,0.5,0.4,1,0.4,1.6c0,0.6,0.7,0.9,0.6,1.5
		c0.4,0.2,0.3,0.7,0.3,1c0.1,0.6,0,0.6-0.7,0.6c-0.2,0-0.4,0-0.5,0c-0.5,0.7-1.3,0.8-2,1.1c-0.5,0.2-0.2,0.6-0.5,0.7
		c0.1,0.2,0.2,0.3,0.3,0.5c0.4,0.5,0.2,1.2,0.6,1.8c0.3,0.4,0.2,1,0.4,1.3c0.3,0.4,0.1,1,0.3,1.2c0.4,0.4,0.1,1,0.5,1.3
		c0.1,0.1,0.1,0.5,0.1,0.7c0,0.5,0.3,0.8,0.5,1.2c0.3-0.4,0.6-0.7,0.7-1c0.1-0.6,0.4-1,0.8-1.4c0-0.9,1-1.3,1.2-2.2
		c0.2-0.6,0.4-1.1,0.7-1.6c0.3-0.5,0.7-0.8,1-1.4c0.3-0.7,0.7-1.5,1-2.2c0.2-0.4,0.4-0.8,0.7-1.1c0.2-0.3,0.4-0.6,0.8-0.7
		c0.2-0.1,0.1-0.6,0.2-1c0.1-0.3,0.4-0.6,0.5-0.9c0.2-0.3,0.4-0.6,0.6-0.9c0.1,0.1,0.3,0.3,0.6,0.5c0-0.3,0-0.6-0.1-0.8
		c-0.3-0.4-0.2-0.6,0-1c0.3-0.4,0.6-0.9,0.9-1.4c0.4-0.7,0.7-1.3,1.3-1.9c0.2-0.3,0.5-0.5,0.6-0.9c0.2-0.6,1-0.8,1.4-1.2
		c0.5-0.4,0.4-1.2,1.1-1.4c0.4-0.1,0.7-0.3,1.2-0.5c0-0.4,0-1,0.8-0.9c0.4,0,0.5-0.2,0.7-0.5c0.8-1.1,2-1.6,3.3-1.8
		c0.3-0.1,0.6-0.2,0.9-0.3c0.4-0.1,0.9-0.4,1.2-0.3c0.4,0.2,0.8,0.1,1.2,0.1c1,0,1.7-0.5,2.1-1.5c0.1-0.3,0.3-0.6,0.5-0.8
		c0.2-0.2,0.2-0.4,0.2-0.7c0-0.8-0.2-1.6-0.4-2.4c-0.2-0.4-0.5-0.8-0.8-1.1c-0.6-0.5-1.2-1.1-1.9-1.5c-0.5-0.3-0.8-0.8-1-1.4
		c-0.1-0.4-0.3-1,0.1-1.4c-1-0.5-1-0.6-0.3-1.6c-0.1-0.1-0.3-0.3-0.4-0.4c-0.3-0.3-0.3-0.5-0.1-0.8c0.2-0.3,0.4-0.6,0.5-0.9
		c0.1-0.6,0.5-1,0.9-1.5c0.3-0.4,0.6-0.7,0.7-1.2c0.1-0.5,0.7-0.9,1.1-1.3c0.2-0.2,0.5-0.3,0.6-0.6c0.4-0.9,1.2-1.5,1.8-2.3
		c0-0.1,0.1-0.2,0.2-0.2c1.2-0.6,1.9-1.8,2.8-2.7c0.2-0.2,0.5-0.4,0.8-0.7c-0.1-0.2-0.2-0.4-0.4-0.7c-0.3-0.5-0.6-0.9-0.8-1.4
		c-0.3-0.7-0.5-1.4-0.7-2.1c-0.2-1,0.1-1.7,0.4-2.5c-0.2-0.3-0.9-0.5-0.6-1.1c0.2-0.3,0.2-0.9,0.8-0.9c0.1-0.3,0.2-0.6,0.6-0.5
		c0.3,0,0.1-0.3,0.2-0.5c0.2-0.6,0.2-0.6,0.8-0.3c0.1-0.1,0.1-0.1,0.2-0.2c0.1-0.3,0.2-0.8,0.3-0.8c0.6-0.1,0.2-0.5,0.3-0.8
		c0.1-0.4,0.5-0.8,0.9-0.8c0.4,0,0.8-0.1,1-0.5c0.1-0.2,0.4,0.3,0.5-0.1c1-0.2,2.1-0.5,3.1-0.5c0.9,0,2,0.2,2.7,1
		c0.3,0.3,0.7,0.5,1.1,0.7c0.9,0.4,1.7,0.7,2.5,1.4c0.2,0.2,0.6,0.3,1,0.4c0.8,0.3,1.6,0.4,2,1.3c0.1,0.1,0.3,0.2,0.5,0.3
		c0.3,0.2,0.6,0.4,1,0.8c-0.3,0.2-0.5,0.3-0.8,0.4c-0.7-0.4-1.7-0.6-2.5-1.1c-0.8-0.5-1.7-0.7-2.5-1.2c-0.7-0.4-1.4-0.9-2.2-0.9
		c-0.6-0.6-1.5-0.6-2.3-0.9c-0.5-0.2-1-0.1-1.4-0.1c-0.4,0.1-0.8,0.5-1.3,0.5c-0.7,0-1.1,0.5-1.5,0.9c-0.2,0.3-0.5,0.5-0.8,0.8
		c-0.2,0.3-0.4,0.6-0.7,0.9c-0.5,0.7-0.9,1.4-0.9,2.3c0,0.1-0.1,0.3-0.1,0.5c0,0.4-0.2,0.9,0,1c0.4,0.4,0.1,1.1,0.7,1.5
		c0.6,0.3,0.8,1,1,1.7c0.1,0.4,0.6,1.2,1.1,1.7c-0.1,0.5-0.3,0.9-0.8,1.1c-0.2,0.1-0.3,0.4-0.5,0.5c-0.4,0.5-0.8,1-1.4,1.2
		c-0.3,0.2-0.6,0.6-0.9,0.9c0.9,0.4,1.7,0.8,2.6,1.2c0.6,0.3,1.2,0.2,1.8,0.4c0.1,0,0.3-0.1,0.4,0c0.2,0.2,0.3,0.4,0.4,0.6
		c0.1,0.3-0.1,0.6-0.4,0.6c-0.6,0-1.3,0.4-1.9-0.1c-1.3-0.1-2.5-0.7-3.7-1.1c-0.2-0.1-0.4-0.1-0.6-0.1c-0.7,0.8-1.4,1.6-2.1,2.5
		c-0.3,0.4-0.5,1-0.8,1.1c-0.5,0.3-0.5,0.7-0.9,1.1c-0.7,0.7-0.7,1.8-1,2.7c-0.1,0.4,0,0.9,0.3,1.4c0.3,0.6,0.5,1.2,0.8,1.8
		c0.2,0.4,0.5,0.7,0.9,1c0.4,0.3,1,0.4,1.2,1.1c0.6,0.1,0.7,0.7,1.1,1c0.7,0.6,0.9,2.2,0.6,3.1c-0.2,0.5-0.3,1-0.8,1.3
		c-0.1,0-0.1,0.3-0.2,0.4c-0.1,0.4-0.2,0.7-0.4,1.2c0.5,0.3,1.1,0.7,1.8,1.1c0,0,0,0.2,0,0.3c0,0.7-0.3,1-0.9,0.8
		c-0.8-0.3-1.6,0-2.3-0.2c-0.7-0.2-1.6,0.1-2.3,0.1c-1.1,0-2,0.4-3,0.8c-0.6,0.2-1.3,0.4-1.7,0.9c-0.8,0.7-1.8,1.1-2.5,1.9
		c-0.4,0.5-0.8,1.1-1.3,1.5c-0.8,0.7-1.3,1.6-1.8,2.4c-0.3,0.5-0.6,0.9-1,1.4c-0.1,0.1-0.2,0.2-0.2,0.3c-0.3,1.2-1,2.1-1.8,2.9
		c0.1,0.7-0.5,1-0.7,1.5c-0.2,0.4-0.4,0.9-0.7,1.4c-0.3,0.5-0.6,1.1-1,1.6c-0.4,0.4-0.1,1-0.6,1.3c-0.3,1.2-1.3,2-1.9,3
		c-0.4,0.7-0.5,1.5-1.1,2.1c-0.1,0.1-0.1,0.4-0.2,0.5c-0.4,0.5-0.7,1-1.2,1.5c-0.2,0.2-0.2,0.3-0.2,0.5c0,0.7-0.2,1.3-0.7,1.8
		c-0.2,0.2-0.3,0.5-0.5,0.8c-0.5,0.8-0.5,1.9-1.6,2.4c0,0.7-0.5,1.1-0.7,1.7c-0.2,0.7-0.6,1.3-1.2,1.9c-0.4,0.4-0.6,1-0.8,1.5
		c-0.5,1-1,2.1-1.5,3.1c-0.1,0.1-0.1,0.2-0.1,0.3c-0.2,0.5-0.8,0.6-1,1.2c-0.2,0.5-0.6,0.9-0.8,1.4c-0.2,0.5-0.5,1-0.7,1.5
		c-0.7,1.5-1.7,2.9-2.2,4.5c-0.2,0.5-0.6,0.6-1.2,0.4c-0.2-0.1-0.4-0.1-0.5-0.2c-0.2-0.1-0.4-0.3-0.6-0.4c0.2-0.5,0.4-0.9,0.6-1.4
		c0-0.1,0.1-0.3,0-0.4c-0.4-0.4,0.1-0.9-0.1-1.1c-0.3-0.4-0.3-0.8-0.3-1.1c-0.2-3.1-0.4-6.1-0.7-9.2c0-0.5,0.1-1.1-0.3-1.6
		c-0.1-0.1,0-0.4,0.1-0.6c0-0.2,0.1-0.3,0.1-0.5c0-0.2-0.3-0.6-0.2-0.7c0.2-0.3,0.1-0.6,0.1-0.9c0-0.3,0-0.6-0.1-0.9
		c-0.6-2.1-0.5-4.3-0.7-6.5c-0.1-0.5-0.3-1.1,0.1-1.6c-0.4-0.4-0.4-0.9-0.1-1.4c-0.3-0.2-0.2-0.6-0.3-0.9c-0.2-0.6,0.6-1.2-0.1-1.7
		c0-0.6-0.1-1.2-0.1-1.9c0-0.6-0.1-1.2-0.1-1.9c0-0.4-0.1-0.8-0.1-1.2c-0.5-0.5-1.1-0.9-1.8-0.8c-0.1,0-0.2-0.3-0.4-0.4
		c-0.8,0.6-1.7,0.5-2.6,0.1c-0.7-0.3-1.4-0.5-2.1-0.8c-0.6-0.2-1.1-0.5-1.5-0.9c-0.5-0.4-1.1-0.8-1.6-1.2c-0.6-0.5-1.1-1.1-1.6-1.6
		c-0.2-0.2-0.1-0.5-0.2-0.8c0.3-0.2,0.5-0.4,0.8-0.6c-0.1-0.1-0.1-0.3-0.2-0.3c-0.3-0.3-0.6-0.6-0.9-1c-0.2-0.3-0.2-0.6,0.1-0.9
		c0.3-0.3,0.6-0.2,0.9,0.1c0.5,0.5,1,1,1.6,1.4c1,0.7,2,1.6,3.2,1.9c0.7,0.2,1.4,0.5,2,0.4c0.6-0.1,1-0.2,1.6,0
		c0.3,0.1,0.8,0.6,0.8,0.8c-0.1,0.5-0.5,1-1,0.9c-0.5-0.1-0.8-0.1-1.3,0.1c-0.5,0.2-1,0.1-1.5-0.1c-0.2-0.1-0.5-0.2-0.8-0.1
		c0.3,0.6,1,0.6,1.5,0.9c0.2,0.1,0.4,0.2,0.6,0.1c0.8-0.1,1.4,0.2,2,0.6c0.2,0.1,0.7,0.1,0.9,0c0.7-0.5,1.4,0.1,2,0.1
		c0.6,0,0.8,0.7,1.2,1c0,0,0,0.2,0,0.3c-0.1,0.6-0.2,1.3,0.2,1.8c0.1,0.2,0.1,0.5,0.1,0.7c0.1,1,0.2,1.9,0.2,2.9
		c0,0.4,0.5,0.7,0.1,1.2c0.3,0.4,0.3,0.9,0.3,1.4c0,0.5,0.1,0.9,0.1,1.4c0,0.5,0.1,0.9,0.1,1.4c0,0.5,0.1,1,0.1,1.5
		c0,0.5,0,0.9,0.1,1.4c0.5,1.4,0.4,2.8,0.5,4.2c0.1,1.4,0.2,2.9,0.3,4.3c0,0.3-0.1,0.7,0.3,1c0.1,0.1,0.1,0.3,0.1,0.5
		c-0.3,0.5-0.3,1,0.1,1.5c0.2,0.3-0.5,0.6,0,1c0.2,0.1,0.1,0.6,0.1,0.9c0.1,1.4,0.2,2.9,0.3,4.6c0.8-1.5,1.5-2.8,2.2-4.1
		c0.5-0.8,1-1.7,1.3-2.6c0-0.1,0.1-0.2,0.2-0.3c0.8-0.9,1.1-1.9,1.7-3c0.7-1.3,1.4-2.6,2.2-3.9c0.4-0.6,0.6-1.4,1-2
		c0.1-0.2,0-0.6-0.1-0.9c-0.2-0.6-0.4-1.2-0.5-1.8c-0.1-0.6-0.3-1.3-0.6-1.7c-0.4-0.5-0.1-1-0.4-1.5c-0.3-0.4-0.4-0.9-0.5-1.4
		c-0.2-0.7-0.3-1.5-0.7-2.2c-0.3-0.4-0.4-1-0.5-1.5c-0.1-0.6-0.3-1.1-0.6-1.6c-0.4-0.7-0.6-1.4-0.8-2.2c-0.2-1.1-0.4-2.3-1.1-3.3
		c-0.3-0.4,0-1-0.4-1.4c-0.3-0.3-0.5-0.7-0.4-1.2c0-0.1,0-0.3-0.1-0.3c-0.6-0.6-0.5-1.4-0.6-2.2c0.4-0.4,0.9-0.8,1.4-1.3
		c0.2-0.2,0.3-0.6,0.6-0.9c0.4-0.5,0.9-1,1.3-1.5c0.6-0.7,0.9-1.5,0.8-2.4c0-0.4-0.2-0.8,0.1-1.2c0.1-0.1,0-0.3,0-0.4
		c-0.4-0.8-0.3-1.8-0.5-2.7c-0.1,0.6-0.4,1.2-0.3,1.8c0.1,0.8-0.2,1.5-0.7,2.2c-0.7,1.1-1.5,2-2.4,3c-0.7,0.8-1.5,1.5-2.3,2.1
		c-0.5,0.4-1.2,0.7-1.9,0.1c-0.1-0.1-0.3-0.1-0.4-0.1c-0.8,0.1-1.5-0.1-2.2-0.3c-0.3-0.1-0.6,0-0.9,0c-0.3,0-0.7-0.2-0.9-0.1
		c-0.3,0.1-0.5-0.5-0.7-0.1c0,0-0.2-0.1-0.3-0.1c-0.2-0.1-0.4-0.2-0.6-0.2c-0.5,0-1.1,0.2-1.6,0.1c-0.5-0.1-0.8-0.5-1.4-0.6
		c-0.4-0.1-0.7-0.3-1.1-0.4c-0.7-0.2-1.2-0.5-1.7-1c-0.2,0.1-0.5,0.2-0.6,0.2c-0.6-0.4-1.1-0.8-1.6-1.1c0.2-0.3,0.3-0.6,0.5-0.9
		c0.1-0.1,0.1-0.3,0.1-0.3c-0.5-0.6-0.1-1.4-0.4-1.8c-0.3-0.5-0.1-1.2-0.5-1.7c-0.3-0.3-0.2-0.9-0.3-1.4c-0.2-0.6-0.3-1.1-0.7-1.6
		c-0.1-0.1,0.1-0.3,0.1-0.5c-0.1-0.1-0.3-0.2-0.5-0.3c0-0.6-0.1-1.2-0.1-1.7c0,0-0.1,0-0.1,0c-0.1,0.2-0.3,0.5-0.3,0.7
		c0.1,0.6-0.2,1.1-0.2,1.6c-0.1,0.8-0.6,1.5-0.5,2.4c0,0.5-0.2,1-0.4,1.4c-0.3,1-0.7,1.9-0.6,3c0,0.3-0.3,0.6-0.3,0.8
		c-0.1,0.4,0.1,0.9-0.1,1c-0.4,0.3,0.3,0.6-0.1,0.8c-0.1,0.9-0.4,1.6-0.7,2.4c-0.2,0.6-0.3,1.1-0.4,1.7c-0.1,0.6-0.4,1.2-0.5,1.9
		c-0.1,0.5-0.1,1.1-0.2,1.7c-0.3,0.1-0.6,0.2-0.6,0.7c0,0.1,0.1,0.2,0,0.2c-0.2,0.3-0.5,0.8-0.8,0.7c-0.3-0.2-0.7,0.3-0.9-0.2
		c0-0.1-1.5-0.4-1.7-0.3c-0.5,0.1-0.9,0-1.3-0.2c-0.8-0.3-1.7-0.4-2.5-0.5c-0.3-0.1-0.4-0.1-0.6-0.3c-0.2-0.1-0.4-0.1-0.5-0.2
		c-1.3-0.1-2.6-0.3-3.9-0.6c-1.1-0.3-2.3-0.4-3.4-0.6c-0.3,0-0.5-0.1-0.8-0.2c-1-0.3-2.1-0.4-3.1-0.5c-0.5-0.1-1-0.3-1.5-0.6
		c-0.4-0.2-0.3-0.7-0.2-1c0.3-0.8,0.5-1.6,0.9-2.4c0.3-0.7,0.3-1.6,1-2.2c0.1-1.4,0.7-2.7,1-4c0.2-0.9,0.5-1.8,1-2.6
		c-0.6-1.1-1.5-2.1-2-3.4c-0.8,1.2-1.9,1.8-2.7,2.7c-0.3,0.3-0.6,0.6-0.9,0.9c-0.6,0.7-1.4,1.3-2.2,1.9c-0.4,0.3-0.9,0.5-1.1,0.9
		c-0.2,0.6-0.7,0.7-1.1,0.9c-0.2,0.1-0.4,0.3-0.5,0.5c-0.3,0.6-0.8,1.1-1.4,1.5c-0.2,0.1-0.4,0.2-0.6,0.4c-0.8,1.1-2.1,1.8-2.9,2.9
		c-0.6,0-0.3,0.7-0.7,0.8c-0.5,0.1-0.6,0.5-0.9,0.8c-0.4,0.4-0.7,0.9-1.3,1.1c-0.4,0.1-0.3,0.6-0.7,0.9c-0.7,0.4-1.2,1.1-1.9,1.5
		c-0.4,0.3-0.6,0.9-1.2,0.9c-0.1,0-0.2,0.1-0.2,0.2c-0.4,0.9-1.2,1.4-2,2c-0.4,0.3-0.8,0.3-1.1,0.8c-0.2,0.4-0.6,0.7-1,1
		c-0.7,0.7-1.2,1.5-2,2c-1.4,0.8-2.2,2.3-3.6,3.1c-0.3,0.2-0.5,0.6-0.8,0.9c-0.4,0.4-0.7,0.7-1,1c-0.8-0.4-1.5-0.7-2.3-1.1
		c-0.1-1.2,0.1-2.3,0.7-3.3c0.2-0.4,0.3-0.7,0.2-1c-0.1-0.8,0.1-1.5,0.3-2.2c0.2-0.5,0.6-0.9,0.4-1.6c-0.1-0.2,0.4-0.5,0.4-0.8
		c0-0.7,0.5-1.3,0.5-2c0-0.3,0.4-0.7,0.4-1c0-0.4,0.1-0.7,0.2-1c0.2-0.4,0.4-0.9,0.3-1.4c0-0.1-0.1-0.2,0-0.2
		c0.7-0.6,0.6-1.5,0.7-2.3c0.2-0.9,0.7-1.7,0.6-2.6c0.5-0.5,0.4-1.2,0.4-1.8c0-0.3,0.2-0.7,0.4-0.9c0.6-0.6,0.5-1.4,0.6-2.1
		c0,0-0.1-0.1-0.2-0.1c-0.1,0.8-1.1,1.1-0.9,2c-0.6,0.5-0.8,1.2-0.9,2c0,0.4-0.6,0.6-0.9,1c-0.3,0.3-0.8,0.4-0.3,0.9
		c0,0,0,0.1-0.1,0.2c-0.6,1-1.2,2-1.4,3.2c-0.5,0.5-0.6,1.2-0.8,1.8c-0.1,0.2,0,0.5-0.4,0.5c-0.1,0-0.3,0.2-0.3,0.4
		c0,1-0.7,1.6-1,2.5c-0.2,0.7-0.6,1.4-1,2c-0.4,0.5-0.6,1.1-0.8,1.7c-0.5,1.1-0.9,2.3-1.7,3.2c-0.1,0.1-0.1,0.3-0.1,0.4
		c-0.6,0-1.1,0.1-1.8,0.1c0.1-0.4,0.2-0.7,0.3-0.9c0.5-1,0.9-1.9,1.4-2.9c0.2-0.3,0.4-0.6,0.5-0.9c0.3-0.9,0.6-1.8,1.3-2.5
		c0.1-0.1,0.2-0.3,0.2-0.5c0.4-1,0.8-2,1.3-3c0.5-0.9,1.1-1.8,1.2-2.9c0-0.1,0-0.3,0.1-0.4c0.6-0.5,0.6-1.2,0.9-1.8
		c0.7-1.5,1.5-3,2.2-4.5c0.2-0.4,0.3-0.9,0.5-1.3c0.2-0.4,0.7-0.6,0.5-1.2c0.3-0.3,0.5-0.6,0.8-1c0.3,0.1,0.8-0.4,1,0.3
		c0,0,0.4,0.1,0.6,0c0.2-0.1,0.4-0.3,0.5-0.5c0.1-0.9,0.8-1.2,1.5-1.6c0.6,0.2,1.2,0.3,1.1,1.2c0.2,0,0.3,0,0.4,0
		c0.8-0.4,1.6-0.8,2.4-1.2c0.2-0.6,0.8-0.5,1.2-0.7c0.4-0.2,0.8-0.3,1.2-0.6c0.2-0.2,0.6-0.3,0.9-0.3c0.4,0,0.6-0.2,1-0.4
		c0.3-0.2,0.9-0.1,1.2-0.4c0.3-0.3,0.5-0.5,0.9-0.6c0.2,0,0.3,0,0.4,0c0.3-0.3,0.5-0.8,0.7-0.8c1.1,0,1.8-0.7,2.7-1.1
		c0.3-0.1,0.5-0.5,0.9-0.2c0,0,0.2,0,0.2,0c0.3-1,1.3-1.1,2.1-1.5c1-0.5,2-0.9,3.1-1.3c0.4-0.1,0.1-0.7,0.6-0.6c0.3,0.1,0.7,0,1-0.1
		c0.4-0.1,0.7-0.3,1-0.6c0.7-0.8,1.6-1,2.5-1.4c0.2-0.1,0.4-0.2,0.6-0.4c0.1-0.1,0.2-0.2,0.3-0.2c0.2-0.1,0.6,0,0.7-0.1
		c0.3-0.4,0.7-0.4,1-0.6c0.3-0.2,0.6-0.6,0.9-1c0.7,0.2,1.3-0.3,1.9-0.6c0.7-0.4,1.3-0.5,1.9-0.1c0.3,0.1,0.4,0.4,0.7,0.6
		c0.2-0.3,0.7-0.5,0.5-1.1c-0.2,0-0.5-0.1-0.7-0.2c-0.3-0.1-0.6-0.2-0.9-0.3c-0.2-0.1-0.6-0.3-0.6-0.5c-0.1-0.5-0.5-0.3-0.7-0.5
		c-0.2-0.2-0.5-0.3-0.6-0.6c-0.2-0.5-0.7-0.9-0.5-1.6c0.1-0.6-0.2-1.2,0.1-1.8c0.1-0.2,0.1-0.5,0.3-0.7c0.2-0.3,0.4-0.7,0.7-1
		c0.7-0.9,1.6-1.7,3-1.5c0.2-0.4,0.4-0.9,0.8-1.2c0.3-0.3,0.3-0.8,0.8-1c0.4-0.2,0.6-0.7,0.9-1c0.1-0.1,0.2-0.3,0.2-0.3
		c1-0.2,1.7-0.9,2.5-1.5c0.4-0.3,1-0.1,1.4-0.6c0,0,0.2-0.1,0.2,0c0.6,0.6,1.4,0.2,2,0.6c0.6,0.3,1.2,0.6,1.8,0.9
		c0.6-0.5,1.2-1.1,1.8-1.6c0.4-0.3,0.9,0.1,1.4-0.1c0.4-0.2,1-0.1,1.5-0.2c0.2,0,0.5,0,0.7,0.1c1.2,0.6,2.3,1.2,3.5,1.9
		c0,0.6,0.8,0.9,0.7,1.6c0,0.2,0,0.5,0,0.7c-0.3,0.2-0.4,0.8-0.9,0.7c-0.5,0-0.6-0.5-0.7-0.7c-0.2-0.7-0.7-1-1.2-1.5
		c-1-0.9-2.3-1.2-3.6-0.9c-0.6,0.1-1.1,0.7-1.6,1.1c-0.4,0.4-0.7,0.8-1.1,1.2c-0.7,0.3-1.1,0-1.5-0.6c-0.4-0.6-1-1.1-1.9-1.1
		c-0.3,0-0.8-0.3-1-0.1c-0.6,0.4-1.3,0.3-1.8,0.8c-0.5,0.5-1.2,0.7-1.7,1.3c-0.6,0.6-0.9,1.4-1.4,2.1c-0.4,0.6-0.8,1-1.5,1
		c-1.1,0.1-2,0.7-2.6,1.7c-0.2,0.3-0.4,0.7-0.3,1.2c0.1,0.4,0.1,0.9,0.1,1.4c0.6,0.6,1.4,1.1,2.3,1.4c0.5,0.2,0.7-0.1,0.7-0.3
		c0.1-0.3,0.1-0.5,0.2-0.8C123.3,68.9,123.7,68.7,124.2,68.5z M142.2,94.1c0.8,0.8,1.7,1.4,2.7,1.6c0.5,0.1,1,0.3,1.4,0.5
		c0.9,0.5,2,0.6,3,0.8c0.4,0.1,0.8,0.1,1.2,0.2c0.4,0.1,0.8,0.3,1.2,0.4c0.4,0.1,0.7-0.1,1.2,0.1c0.5,0.2,1.2,0.1,1.8,0.3
		c0.8,0.2,1.1-0.5,1.7-0.7c0.2-0.1,0.4-0.3,0.5-0.5c0.7-0.8,1.4-1.6,2.1-2.4c0.5-0.7,0.9-1.4,0.8-2.3c0-0.3-0.1-0.6,0.1-0.9
		c0.1-0.1,0-0.5-0.2-0.6c-1.1-0.8-1.1-2.1-1.3-3.2c-0.1-0.4,0.1-0.7,0.2-1.1c0.7-0.2,1.2-1,2.1-0.9c1,0.1,1.9-0.5,2.9-0.5
		c0.2-0.4,0.4-0.1,0.5,0c0.2,0.1,0.4,0.1,0.5,0.3c0.4,0.8,0.7,1.7,1,2.6c0.1,0.3,0,0.7,0.1,1c0.1,0.3,0.4,0.6,0.5,0.9
		c0.1,0.2-0.1,0.6,0.2,0.8c0.2-0.8-0.1-1.6-0.4-2.3c-0.1-0.2-0.2-0.4-0.2-0.6c0-0.5-0.2-0.9-0.4-1.2c-0.4-0.7-0.4-1.5-0.9-2.3
		c-0.4-0.7-1-1-1.8-0.9c-0.9,0.1-1.7,0.5-2.5,0.8c-0.9,0.3-1.8,0.9-2.8,0.8c-0.7-0.5-0.8-1.4-1-2.2c-0.2-1.1-0.6-2.1-0.8-3.2
		c-0.2,0.1-0.4,0.1-0.4,0.2c-0.1,0.5-0.5,0.9-0.6,1.3c-0.3,1.4-1.3,2-2.4,2.5c-0.5,0.2-1,0.4-1.6,0.5c-1.2,0.1-2.3-0.2-3.4-0.6
		c-1.1-0.4-1.6-1.4-2.4-2.1c-0.4-0.3-0.1-0.8-0.3-1c-0.4-0.3,0-0.5,0.1-0.5c0.5-0.3,1.1-0.1,1.4,0.5c0.2,0.4,0.5,0.8,0.8,1.1
		c0.9,0.8,1.9,1.2,3.1,1.4c1,0.2,2.3-0.7,2.9-1.5c0.5-0.6,0.5-1.4,0.8-2c0.3-0.6,0.5-1.3,0.3-1.9c0-0.2,0-0.5-0.1-0.7
		c0.4-0.1,0.7-0.4,0.9-0.4c0.9,0.2,1.7,0.3,2.5,0.8c0.8,0.6,1.7,1,2.6,1.2c0.8,0.2,2.1-0.3,2.6-1.1c0-0.1,0.1-0.2,0.1-0.2
		c-0.3-0.7,0.3-1.3-0.1-2.1c-0.2-0.4-0.2-1-0.6-1.2c-0.4-0.2-0.9-0.3-1.3-0.4c-0.7-0.1-1.6-0.4-2.1-0.8c-1.2-1-2.5-2-3.7-3
		c-0.6,0-1.2,0.1-1.7,0.1c-0.8,0.9-0.8,0.8-1.9,1.4c-1.9,1.2-3.9,2.3-4.7,4.6c-0.9,0.1-1.8,0.2-2.6-0.3c-0.3-0.2-0.7-0.1-1-0.3
		c-0.6-0.2-1.1-0.3-1.5,0.3c-0.1,0.2-0.4,0.3-0.5,0.4c-0.4,0.3-0.6,0.7-0.6,1.1c0,0.8,0,1.7,0.4,2.5c0.4,0.7,0.5,1.6,1.1,2.2
		c-0.4,0.7-1,0.3-1.6,0.5c-0.1,0.2-0.3,0.7-0.2,0.8c0.3,0.4,0.2,0.8,0.3,1.1c0.1,0.4,0.2,0.8,0.3,1.2c0.1,0.3,0.2,0.6,0.3,0.9
		c0.2,0.9,0.3,1.7,0.4,2.6c0,0.1,0,0.2,0.1,0.4c0.3,0.8,0.6,1.6,0.6,2.5c0,0.7,0.3,1.3,0.5,1.9C142.9,93.6,143,93.6,142.2,94.1z
		 M93,88.3c-0.3,0.7-1,0.8-1.6,1.1c-0.6,0.3-1.1,0.5-1.6,0.9c-0.3,0.2-0.6,0.6-0.8,1c-0.2,0.3-0.2,0.6-0.3,1
		c-0.1,0.3-0.1,0.6-0.2,0.9c-0.4,0.7-0.6,1.5-0.8,2.3c-0.3,0.8-0.6,1.5-0.7,2.3c-0.1,0.6-0.3,1.3-0.4,1.9c-0.2,0.9-0.4,1.8-1.1,2.6
		c0.2,0.6,0.1,1.2-0.1,1.7c-0.1,0.4-0.3,0.8-0.5,1.2c-0.2,0.4-0.1,0.8-0.2,1.3c0,0.1-0.1,0.3-0.1,0.4c-0.1,0.4-0.4,0.7-0.4,1.1
		c0,0.4-0.3,0.8-0.4,1.2c-0.2,0.8-0.3,1.7-0.6,2.5c-0.2,0.4-0.1,0.7-0.1,1.2c0.8-0.7,1.5-1.3,2.2-2c0-0.6,0.6-0.7,1-1.1
		c0.3-0.4,0.7-0.6,1.1-1c0.6-0.6,1.1-1.1,1.7-1.7c0.6-0.5,1.2-1,1.8-1.6c0.9-0.8,1.7-2,2.9-2.5c0.2-0.1,0.2-0.3,0.4-0.5
		c0.2-0.2,0.3-0.5,0.5-0.7c0.5-0.4,1-0.8,1.5-1.2c0.6-0.5,1.3-0.9,1.6-1.6c1.2-0.5,1.7-1.6,2.5-2.4c0.2-0.2,0.4-0.3,0.6-0.5
		c0.3-0.2,0.6-0.5,0.9-0.8c0.9-1,1.9-1.9,2.8-2.8c0.7-0.6,1.4-1.1,2.1-1.8c1.1-1.1,2.3-2.1,3.5-3c0.4-0.3,0.9-0.6,1-1
		c0.2-0.7,1-0.8,1.2-1.5c0-0.1,0.3-0.2,0.4-0.2c0.4,0.2,0.7-0.1,1-0.1c0,0.1,0.1,0.2,0.1,0.3c0,0.1-0.1,0.2-0.2,0.3
		c-0.1,0.4-0.1,0.4,0.4,0.3c0-0.4,0-0.8,0-1.4c0.3,0.3,0.5,0.5,0.7,0.7c0.3,0.3,0.5,0.7,0.8,1c0.2,0.3,0.4,0.8,0.7,1.1
		c0.8,0.7,1.4,1.5,1.3,2.6c0.8,1,2.1,1,3,1.6c0.3,0.2,0.9,0.2,1.3,0.2c-2.6-1.8-4.2-4.4-5.6-7.1c0.1-0.1,0.2-0.3,0.4-0.3
		c0.4,0,0.8-0.2,1.2,0.1c0.3-0.3,0.7-0.2,1.1-0.3c0,0,0.1,0,0.1,0c1.3,0.5,2.6,0.8,3.6,1.8c0.7,0.6,1.5,0.9,2.3,1
		c0.4,0.1,0.9,0.4,1.3,0.1c0-0.3,0-0.6-0.1-0.9c-0.7,0.2-1.3-0.1-1.7-0.7c-0.2-0.2-0.6-0.4-0.8-0.4c-0.6,0.1-1.1-0.3-1.6-0.4
		c-0.5-0.1-1-0.2-1.5-0.5c-0.4-0.3-1.1,0-1.5-0.4c-0.2-0.2-0.5-0.3-0.7-0.4c-0.3-0.2-0.4-0.5-0.2-0.8c0.2-0.3,0.5-0.4,0.7-0.3
		c1,0.5,2.1,0.5,3.1,1c0.5,0.2,1.2,0.4,1.8,0.4c0.5,0,1.1,0.1,1.5,0.6c0.4,0.4,0.8,0.3,1.2,0.1c-0.1-0.2-0.1-0.3-0.2-0.4
		c-1-0.3-1.9-0.8-2.9-1.2c-1.7-0.6-3.4-1.4-4.9-2.5c-0.4-0.3-1-0.5-1.4-0.8c0-0.2,0-0.4,0-0.5c0.5-0.2,1-0.3,1.5-0.5
		c0.4,0.4,1.1,0,1.5,0.5c0.4-0.5,0.5-0.9,0.6-1.5c0.1-0.4,0.2-0.9,0.4-1.3c0.4-0.9,0.9-1.8,0.5-2.8c-0.1,0-0.2,0-0.4,0
		c0,0.2,0,0.3,0,0.5c0.2,0.7-0.2,1.1-0.7,1.2c-0.7,0.1-1.2,0.6-1.8,0.8c-0.3,0.1-0.9,0.2-1.1,0.6c-0.7,0.1-1.1,0.8-1.7,1
		c-0.7,0.2-1.2,0.7-2,0.7c-0.3,0-0.7,0.2-0.8,0.4c-0.4,0.6-1.1,0.7-1.6,1c-0.3,0.2-0.7,0.2-0.9,0.5c-0.1,0.1-0.4,0-0.5,0
		c-0.4,0.2-0.8,0.3-1.1,0.6c-0.5,0.4-1.1,0.6-1.5,1c-0.5,0.5-1.2,0.5-1.8,0.8c-0.1,0.1-0.2,0.1-0.3,0.2c-0.8,0.7-2,0.8-2.8,1.6
		c-1,0-1.7,0.9-2.7,1c-0.2,0-0.4,0.2-0.5,0.3c-0.2,0.2-0.4,0.4-0.8,0.5c-0.4,0.1-0.8,0.4-1.3,0.5c-0.5,0.2-0.9,0.5-1.3,0.8
		C94.9,87.7,94.1,88.2,93,88.3z M125.3,91.1c0.1-0.8-0.5-1.4-1.1-1.7c-0.4-0.2-0.6-0.7-1-0.9c-0.4-0.3-0.9-0.6-1.3-0.9
		c-0.3-0.2-0.6-0.4-0.9-0.5c-0.6-0.3-1.2-0.6-1.7-1c-0.1-0.1-0.3-0.1-0.5-0.2c0.3,0.6,0.6,1.2,1,1.7c0.4,0.4,1,0.8,1.2,1.3
		c0.5,0.8,1.2,1.2,1.9,1.5C123.7,90.6,124.3,91.3,125.3,91.1z M165.9,94.7c-0.2-0.6-0.4-1-0.5-1.4c-0.2-0.7-0.2-1.3-0.4-2
		c-0.2-0.6-0.4-1.2-0.6-1.9c0-0.1-0.3-0.1-0.5-0.2c0.2,0.6,0.4,1.1,0.6,1.6c-0.5,0.7,0,1.4-0.1,2.1c0,0.3,0.2,0.7,0,0.8
		c-0.4,0.6,0,1.2-0.2,2C164.9,95.5,165.5,95.1,165.9,94.7z M160.8,88.4c0.2,0,0.4,0,0.6,0c0.4-0.1,0.8-0.5,1.2-0.3
		c0.4,0.2,0.8,0.5,1.2,0.8c0,0,0.1,0,0.3,0.1c-0.1-0.2-0.1-0.3-0.2-0.5c-0.1-0.3-0.4-0.6-0.4-0.9c-0.2-1-0.2-1-1.2-1
		c-0.2,0-0.3,0-0.5,0c-0.4,0.2-0.8,0.3-1.1,0.6c-0.3,0.3,0.3,0.6,0.1,0.9C160.7,88.1,160.8,88.2,160.8,88.4z"/>
	<path class="st1" d="M77.9,47.1c0.3,0.1,0.5,0.2,0.6,0.3c-0.4,0.7-0.5,1.5-1.4,1.6c0.2,1.1-0.7,1.9-1.1,2.9
		c-0.1,0.2-0.4,0.2-0.7,0.3c0,0.7,0,1.3,0.9,1.6c0.7,0.3,1.2,0.8,1.8,1.2c0.9,0.6,1.8,1.3,2.6,1.9c0.1,0.8,0.1,0.8-0.3,1.2
		c-1.1-0.1-1.9-0.7-2.7-1.4c-0.9-0.8-2-1.4-3-2.2c-0.1,0.1-0.2,0.3-0.3,0.4c-0.5,0.2-0.8,0.6-0.9,1.1c-0.1,0.6-0.5,1-0.8,1.4
		c-0.4,0.4-0.6,0.8-0.7,1.3c-0.2,0.6-0.3,1.2-0.9,1.6c-0.2,1.2-1.3,1.9-1.6,3c-0.1,0.5-0.6,0.7-0.6,1.3c0,0.5-0.5,0.9-0.7,1.3
		c-0.3,0.4-0.5,0.8-0.8,1.2c-0.3,0.5-0.6,1.1-0.9,1.6c-0.2,0.4-0.5,0.7-0.7,1.1c-0.1,0.1-0.3,0.2-0.3,0.4c-0.1,0.9-0.8,1.6-1.2,2.4
		c-0.4,0.9-1,1.8-1.5,2.7c-0.1,0.2-0.3,0.5-0.5,0.7c-0.1,0.2-0.4,0.4-0.4,0.6c-0.6,1.5-1.4,2.8-2.2,4.1c-0.3,0.6-0.7,1.1-0.9,1.8
		c-0.2,0.6-0.4,1.2-0.6,1.7c-0.2,0.6-0.6,1.2-0.8,1.8c-0.3,1.3-0.7,2.6-0.9,4c-0.2,1.6,0.2,3.1,0.1,4.6c0.6,1.6,0.4,3.3,0.6,5
		c0.1,0.5-0.2,1.1,0.3,1.5c0,0,0,0.2-0.1,0.3c0,0.2-0.2,0.5-0.1,0.7c0.6,1.2,0.3,2.6,0.5,3.9c0.1,0.7,0.3,1.4,0.4,2.1
		c0.1,0.7,0,1.4,0.3,2c0.1,0.2-0.2,0.7,0,0.8c0.2,0.3,0.3,0.5,0.3,0.8c0,0.3,0.2,0.7-0.1,0.9c0.3,0.4,0.2,1,0.3,1.5
		c0.1,0.4,0.4,0.8,0.3,1.1c-0.1,0.4,0.1,0.7,0.1,1c0,0.4,0,0.7,0.1,1.1c0,0.4,0.1,0.8,0.1,1.2c0,0.4,0.1,0.8,0.1,1.2
		c-0.5,0.6-1,1.1-1.9,1c0-1-0.3-2-0.6-3c-0.1-0.1,0.1-0.3,0.1-0.5c-0.1-0.6,0-1.2-0.3-1.9c-0.3-0.6-0.1-1.4-0.2-2.1
		c-0.1-0.5,0.1-1.2-0.4-1.6c-0.1-0.1-0.1-0.3,0-0.4c0.4-1-0.4-1.9-0.2-2.9c0-0.2-0.2-0.4-0.2-0.5c0-0.4-0.1-0.8-0.1-1.2
		c0.2-0.6,0.1-1.2-0.1-1.8c0-0.1-0.1-0.3-0.2-0.4c-0.2-1.2-0.3-2.3-0.5-3.5c0-0.2-0.1-0.4-0.2-0.6c0-0.1-0.2-0.3-0.1-0.4
		c0.3-0.7,0.1-1.3-0.1-2c-0.2-0.6-0.1-1.4-0.2-2.1c0-0.4-0.6-0.8-0.1-1.3c0,0-0.1-0.2-0.1-0.3c-0.2-0.5-0.3-1-0.1-1.5
		c0.1-0.1,0.1-0.3,0.1-0.5c-0.3-0.5-0.5-1-0.2-1.6c0.2-0.5-0.3-1.1,0.2-1.6c-0.3-0.8,0.5-1.4,0.4-2.2c0-0.3,0.4-0.7,0.7-1.2
		c-0.2-0.1-0.4-0.3-0.7-0.4c0.3-0.4,0.5-0.8,0.7-1.2c0.1-0.4,0.2-0.7,0.4-1.1c0.3-0.6,0.4-1.4,0.7-2.1c0.2-0.5,0.3-1,1-1.3
		c0.5-0.2,0.6-0.8,0.8-1.3c0.3-0.7,0.5-1.6,1.3-2c0.3-0.1,0.4-0.7,0.4-1c0.1-1.1,0.6-2.1,1.3-3c0.6-0.8,0.9-1.6,1.4-2.5
		c0.3-0.5,1-1.6,1.5-2c0.1-0.1,0.3-0.3,0.3-0.4c-0.2-0.7,0.3-1,0.7-1.5c0.2-0.2,0.3-0.5,0.4-0.7c0.1-0.6,0.3-1,0.6-1.5
		c0.3-0.4,0.3-1,0.9-1.3c0.1-0.8,0.7-1.4,1-2.1c0.3-0.7,0.9-1.2,0.9-2c0.7-0.2,0.7-0.9,0.9-1.4c0.3-0.5,0.7-0.9,1-1.4
		c0.4-0.6,0.8-1.3,0.9-2c0.2-0.8,0.5-1.4,1.2-1.8c0.1-0.1,0.2-0.2,0.2-0.2c-0.2-0.7,0.7-0.8,0.9-1.3c0.1-0.3,0.6-0.4,0.7-0.7
		c0.1-0.6,0.6-1,0.9-1.3c-0.1-0.2-0.3-0.5-0.2-0.6c0.2-0.4,0.4-0.7,0.6-1c0.2-0.2,0.4-0.4,0.1-0.7c-0.1-0.1,0-0.4,0.1-0.6
		c0.2-0.3,0.5-0.6,0.8-0.9c-0.4-0.3-0.7-0.6-1.1-0.8c-0.9-0.4-1.8-0.8-2.4-1.4c-0.6-0.6-1.5-1.2-1.4-2.4c-0.4-0.6-0.3-1.5-1-2
		c-0.4-0.3,0-0.9-0.5-1.2c-0.1-0.7-0.3-1.3-0.4-2c0-0.2,0-0.4-0.1-0.5c-0.5-0.4-0.2-0.7,0-1.1c0.1-0.3,0.2-0.5-0.1-0.8
		c0.2-0.8,0-1.7,0.3-2.6c0.1-0.2,0.2-0.4,0.2-0.7c0.1-1,0.4-2,0.9-2.9c0-0.1,0.1-0.1,0.1-0.2c-0.2-1,0.7-1.6,0.8-2.4
		c0-0.2,0.2-0.4,0.3-0.5c1-0.9,1-0.9,1.5-2.2c0-0.1,0.2-0.2,0.3-0.2c0.7-0.2,1.3-0.7,1.5-1.3c0.3-0.9,1.1-1.2,1.6-1.7
		c0.3-0.3,0.7-0.6,1.1-0.8c0.7-0.5,1.3-1,2.2-1c0.7,0,1.5-0.4,2.2-0.7c0.3-0.1,0.5,0,0.8-0.1c0.1,0,0.2,0.1,0.3,0.1
		c0.3,0,0.7,0,1-0.1c0.3-0.1,0.6,0.2,0.9,0.1c0.3,0,0.5,0,0.8,0c1.6-0.1,3,0.5,4.5,0.8c0.4,0.1,0.9,0.2,1.3,0.6
		c0.7,0.7,1.7,0.8,2.7,1c0.3,0.1,0.5,0.2,0.8,0.2c0.3,0,0.7-0.1,1-0.1c1.2,0,2.4-0.1,3.6,0c0.7,0.1,1.4,0.2,1.9,0.7
		c0.5,0.5,0.9,1,1.6,1.2c0.3,0.1,0.5,0.5,0.7,0.8c0.1,0.3-0.2,0.6,0.1,0.9c0.3,0.4-0.1,1.1,0.3,1.5c0,0-0.1,0.2-0.1,0.3
		c-0.3,0.7-0.5,1-1.3,1.5c0,0-0.1,0-0.1,0.1c-0.1,0.6-0.5,0.9-1,1.1c-0.5,0.2-0.9,0.4-1.4,0.5c-0.3,0.7,0.6,0.9,0.6,1.4
		c0.8,0.2,0.9,1,1.2,1.6c0.1,0.3,0.2,0.4,0.5,0.6c0.5,0.4,0.9,1.1,1.2,1.7c0.4,1,1.1,1.8,1.7,2.6c0.4,0.6,0.9,1.1,1.1,1.8
		c0.1,0.2,0.1,0.5,0.3,0.6c0.7,0.5,0.8,1.4,1.3,2.1c0.1,0.1,0.1,0.4,0.2,0.6c0,0.4,0,0.8,0.1,1.2c0.3,1.5-0.3,2.6-1.1,3.7
		c-0.1,0.2-0.3,0.3-0.3,0.5c-0.1,0.6-0.7,0.9-1.1,1c-0.6,0.2-1.3,0.6-2.1,0.3c-0.2-0.1-0.4-0.1-0.6-0.1c-1.4,0-2.7,0-4-0.6
		c-0.5-0.2-1.1-0.2-1.7-0.3c0.1,1.5,0.2,2.9,0.3,4.4c0.1,0.9-0.3,1.8-0.1,2.6c0,0.1-0.1,0.2-0.2,0.3c-0.3,0.5-0.3,1-0.2,1.5
		c0,0.4,0.2,0.9-0.3,1.2c0,0,0.2,0.3,0.1,0.4c-0.1,0.4-0.2,0.7-0.4,1.1c-0.6,0.9-1,1.9-1.3,3c-0.2,0.6-0.8,0.9-1.1,1.3
		c-0.2,0.2-0.4,0.3-0.6,0.4c-0.6,0.4-1.2,0.7-1.8,1.1c-0.3,0.2-0.8,0.1-1.2,0.1c-1.4,0.2-2.7,0-4-0.7c-0.5-0.3-1.1-0.3-1.6-0.6
		c-0.1-0.1-0.3,0-0.5,0c0,0.8-0.1,1.6-0.1,2.4c0,0.3-0.1,0.5-0.2,0.8c-0.3,0.5-0.4,1-0.3,1.7c-0.6-0.1-1-0.2-1.6-0.3
		c0.1-0.7,0.2-1.4,0.4-2.1c0.2-0.7,0.3-1.4,0.3-2.1c0-0.7-0.2-1.4,0.4-2.1c0.1,0,0.4-0.1,0.8,0.1c0.1,0.1,0.3,0.1,0.5,0.1
		c0.9-0.2,1.5,0.2,2.2,0.6c0.8,0.4,1.7,0.8,2.6,1c1.1,0.2,2-0.3,2.8-1.1c0.7-0.7,1.4-1.4,1.6-2.5c0.1-0.5,0.5-0.9,0.8-1.3
		c0.4-0.5,0.5-1,0.5-1.6c0-0.6,0.1-1.2,0.1-1.8c-1.9-0.8-3.6-1.7-3.9-4.1c0.8-0.2,1.1,0.2,1.4,0.7c0.5,0.9,1.2,1.6,2.2,2.3
		c0.3-0.7,0.4-1.4,0.3-2c0.2-0.1,0.3-0.2,0.5-0.2c-0.2-0.4-0.6-0.8-0.2-1.3c0,0-0.3-0.3-0.3-0.5c0-0.6-0.3-1.1,0.1-1.7
		c0.1-0.1,0.1-0.4,0-0.6C96.3,46.2,97,45.6,97,45c0-0.4,0.9-0.6,1.7-0.4c1.2,0.3,2.2,0.8,3.3,1.3c1.2,0.5,2.4,0.3,3.5-0.4
		c0.5-0.9,1.5-1.6,1.3-2.9c-0.2-1.4-0.5-2.7-0.8-4c-0.1-0.2-0.2-0.4-0.3-0.6c-1.1-1.5-2.1-3.2-3.2-4.7c-1.1-1.5-1.9-3.2-2.8-4.7
		c-0.4-0.7-0.7-1.4-1.2-2c-0.1-0.2-0.1-0.4-0.2-0.8c0.8,0.1,1.5,0,2,0.2c0.9,0.4,1.4-0.1,1.9-0.5c1.2-0.8,1.6-2.9,0.8-4.1
		c-0.2-0.4-0.6-0.7-1-0.8c-0.6-0.2-1.2-0.4-1.8-0.4c-0.6,0-1.2-0.1-1.8-0.1c-0.6,0-1.3,0.2-1.9,0.1c-0.6-0.1-1.1,0-1.7-0.1
		c-0.5-0.1-0.9-0.3-1.4-0.5c-0.7-0.2-1.3-0.6-2-1c-0.4-0.2-0.8-0.5-1.3-0.4c-0.4,0-0.7-0.2-1.1-0.3c-0.6-0.1-1.1-0.3-1.7-0.3
		c-0.5,0-1-0.1-1.5-0.1c-0.5-0.1-1,0.3-1.4-0.1c0,0-0.2,0-0.2,0c-0.8,0.6-1.9,0.5-2.7,1c-0.9,0.5-1.7,1.2-2.6,1.7
		c-1,0.5-1.6,1.4-2.4,2.1c-0.5,0.4-0.8,1.1-1.2,1.6c-0.6,0.9-1.1,1.8-1.6,2.7c-0.3,0.5-0.5,1.1-0.7,1.7c-0.1,0.4-0.7,0.6-0.4,1.1
		c-0.3,0.6-0.1,1.3-0.3,1.9c-0.3,0.8-0.1,1.7-0.1,2.5c0,0.4,0.2,0.8-0.1,1.2c-0.1,0.2-0.1,0.7,0.3,1c-0.2,1.1,0.5,2,0.8,3
		c0.3,1.1,0.8,2.2,1.4,3.1c0.2,0.2,0.4,0.4,0.7,0.6c0.9,0.6,1.8,1.1,2.7,1.7c0.1,0,0.1,0.1,0.2,0.1c1-0.2,1.4,0.5,1.9,1.1
		C79,46.5,78.7,46.8,77.9,47.1z"/>
	<path class="st1" d="M215.7,63.1c1-0.6,1.8-1,3-0.7c1.7,0.5,3.3,1.2,4.7,2.1c0.3,0.2,0.8,0.4,0.8,0.9c0.7,0.5,0.9,1.3,1.5,1.8
		c0.4,0.3,0.5,1,0.7,1.5c0.2,0.4,0.3,0.8,0.5,1.2c-0.3,0.7-0.4,0.8,0,1.3c0.4,0.6,0.2,1-0.1,1.5c-0.2,0.3-0.4,0.5-0.1,0.9
		c0.2,0.3,0.1,1,0.1,1.4c-0.2,0.4-0.7,0.6-0.7,1.2c0,0.3-0.3,0.7-0.5,1.1c-0.2-0.1-0.5-0.1-0.8-0.2c-0.1,0.1-0.1,0.2-0.1,0.2
		c0.4,0.9,0.5,1.8,0,3c-0.3,0.7-0.5,1.5-0.9,2.2c-0.1,0.3-0.2,0.5-0.2,0.8c0.1,0.4-0.1,0.8-0.1,1.2c0,0.6-0.5,1-0.4,1.7
		c0,0.5-0.2,1-0.4,1.6c-0.1,0.3-0.2,0.5-0.3,0.8c0,0.1-0.1,0.3-0.1,0.3c0.5,0.4,0,0.9,0.1,1.3c0,0.4-0.2,0.8-0.4,1.3
		c0.2,0.2,0.4,0.4,0.6,0.6c0,0.1-0.1,0.2-0.1,0.3c-0.1,0.4-0.4,0.8-0.1,1.2c0.1,0.1,0.1,0.5,0,0.6c-0.4,0.5,0,1-0.1,1.5
		c-0.1,0.4,0.7,0.4,0.2,0.8c-0.4,0.4,0.2,0.5,0.2,0.8c-0.1,1.1,0.5,2.1,0.5,3.2c0,0.3,0.2,0.6,0.3,0.9c0.4,0.9,0.5,2,1.2,2.8
		c0.1,0.1,0.1,0.4,0.1,0.6c-0.1,0.8,0.3,1.5,0.7,2.1c0.4,0.6,0.6,1.3,0.9,2c0.2,0.6,0.4,1.3,0.9,1.7c0.1,0.1,0.2,0.3,0.2,0.5
		c0,0.3-0.2,0.5-0.2,0.8c0,0.2,0.2,0.4,0.3,0.6c-0.3,0.1-0.5,0.1-0.8,0.2c0.3,0.2,0.6,0.3,0.7,0.5c0.2,0.2,0.1,0.5-0.2,0.8
		c0,0,0,0.2,0,0.2c0,0.4,0.6,0.6,0.1,1.1c-0.2,0.2-0.1,0.7-0.1,1c0,0.4,0,0.8-0.1,1.2c0,0.1-0.1,0.3-0.2,0.4
		c-0.1,0.1-0.2,0.2-0.2,0.3c-0.1,0.3,0.2,0.7-0.2,1c-0.3,0.2-0.5,0.5-0.7,0.8c0.5,0.9,0.5,0.9-0.4,1.5c0,0.4,0.2,1-0.4,1.2
		c0.2,0.3,0.3,0.5,0.5,0.8c-0.2,0.3-0.5,0.7-0.6,1c-0.1,0.4-0.3,0.7-0.2,1.1c0.1,0.3,0.3,0.6,0.3,0.9c0,0.3-0.1,0.5,0.1,0.8
		c0.2,0.3,0.1,0.7,0.1,1.1c0,0.3,0,0.7,0.1,1c0,0.3,0,0.7,0.1,1.1c0.8-0.1,0.8,0.8,1.3,1.1c0,0.1-0.1,0.1-0.1,0.2
		c-0.3,0.5,0,0.7,0.4,1c0.3,0.1,0.5,0.3,0.8,0.5c0.2,0.1,0.4,0.3,0.3,0.6c0,0.4,0.2,0.6,0.5,0.8c0.9,0.5,1.1,1,0.8,2
		c0,0.1-0.1,0.3-0.1,0.5c-1-0.2-1.8-0.6-2.3-1.5c-0.3-0.5-0.8-0.8-1.1-1.2c-0.4-0.7-1-1.4-1.4-2.1c-0.4-0.8-0.9-1.5-1.2-2.4
		c-0.1-0.3-0.1-0.6-0.2-0.9c-0.2-0.7,0.2-1.4-0.4-2c0-0.1,0.1-0.3,0.1-0.4c0.1-0.8,0.4-1.7,0.4-2.5c0.1-0.8,0.2-1.6,0.5-2.4
		c0.2-0.6,0.4-1.2,0.4-1.8c0.1-0.6,0.4-1.2,0.7-1.8c0.2-0.4,0.4-0.8,0.3-1.4c0-0.1-0.1-0.3,0-0.4c0.7-0.6,0.3-1.4,0.3-2.1
		c-0.1-0.7,0.2-1.5-0.4-2.1c0.2-1-0.9-1.5-1-2.5c-0.4-0.4-0.2-1.1-0.8-1.4c-0.4-0.3-0.3-1.1-0.8-1.4c-0.1-0.7-0.9-1.3-0.7-2.1
		c0.1-0.3-0.1-0.5-0.4-0.7c-0.1,0-0.2-0.1-0.2-0.2c0-0.3,0.1-0.6,0-0.8c-0.1-0.2-0.4-0.3-0.4-0.7c0-1.1-0.3-2.2-0.7-3.2
		c-0.2-0.5-0.1-1.1-0.1-1.6c0-0.5-0.3-1.1,0.1-1.5c-0.2-0.6,0.1-1.3-0.3-1.9c0-0.1-0.1-0.2-0.1-0.2c0.4-0.6,0.1-1.3,0.1-1.9
		c0-0.6,0.1-1.2,0.1-1.8c0-0.4,0.6-0.4,0.3-0.9c-0.2-0.3-0.2-0.6-0.2-0.9c0-0.2,0.1-0.4,0.2-0.5c0.4-0.7,0.4-1.5,0.6-2.2
		c0.1-0.4,0.2-0.9,0.3-1.3c0.1-0.4,0-0.9,0.4-1.3c0.2-0.2,0.3-0.8,0.2-1.2c0-0.5,0.2-0.8,0.4-1.1c0.2-0.3,0.4-0.6,0.4-0.9
		c0.2-0.8,0.5-1.5,0.9-2.2c0.3-0.5,0.4-1,0.6-1.5c0.1-0.2,0.6-0.1,0.4-0.4c-0.4-0.8-0.1-1.5-0.1-2.3c-0.1-1.5-0.6-3.2-1.2-4.5
		c-0.5-1.1-1.2-2.1-2.3-2.8c-1-0.7-1.9-1.4-3.1-1.6c-0.5-0.1-1-0.4-1.5-0.6C216.3,63.8,216.1,63.5,215.7,63.1z"/>
	<path class="st1" d="M65.1,94.8c0.2-0.2,0.3-0.4,0.5-0.6c-0.8-1.1-0.7-2.5-0.8-3.8c0.1-0.1,0.3-0.2,0.5-0.3c0.6-0.5,1.1,0,1.7,0.1
		c0.5,0.1,0.4,0.7,0.4,1c0.1,1.8,0.7,3.5,0.6,5.3c0.4,0.8,0.2,1.7,0.5,2.5c0.2,0.6,0.4,1.2,0.1,1.8c0,0.1,0,0.2,0,0.2
		c0.1,0.4,0.4,0.7,0.3,1.1c0,0.4-0.1,0.8,0.3,1.1c-0.3,0.4,0.1,0.7,0.1,1c0,0.4,0,0.8,0.1,1.2c0.1,0.5,0.2,1,0.4,1.8
		c0.4-0.6,0.6-0.9,0.8-1.3c0.5-1.1,1-2.1,1.7-3.1c0,0,0.1-0.1,0.1-0.1c0.2-1.1,1-1.9,1.4-2.9c0.7-1.6,1.4-3.1,2.5-4.5
		c0.5-0.7,0.9-1.5,1.2-2.3c0.7-1.7,1.7-3.2,2.6-4.8c0.7-1.3,1.6-2.4,2.1-3.8c0.1-0.4,0.5-0.6,0.8-1c0.2,0.1,0.3,0.2,0.5,0.2
		c0.2-0.2,0.4-0.4,0.5-0.5c0.5,0.1,0.7,0.4,0.6,0.8c-0.1,0.6-0.3,1.2-0.7,1.7c-0.5-0.1-0.4,0.4-0.4,0.6c-0.1,0.7-0.6,1.2-0.8,1.8
		c0,0.1-0.1,0.2-0.2,0.3c-0.3,0.4-0.9,0.7-1,1.4c-0.1,0.5-0.5,1.1-0.9,1.5c-0.8,1.1-1.3,2.3-2,3.5c-0.9,1.4-1.6,3-2.4,4.5
		c0,0,0,0.1,0,0.1c-0.7,0.4-0.7,1.2-1.1,1.8c-0.4,0.6-0.6,1.3-1,1.8c-0.4,0.8-1,1.5-1.5,2.3c-0.4,0.7-0.8,1.5-1.1,2.3
		c-0.2,0.5-0.4,1-0.7,1.4c-0.3,0.5-0.7,0.8-0.6,1.5c0,0.2-0.2,0.6-0.5,0.8c-0.4,0.2-0.9,0.3-1.3,0.4c-0.2,0-0.4-0.2-0.6-0.3
		c0,0,0-0.2,0-0.2c-0.1-0.7,0.1-1.5-0.4-2.1c0.3-0.5,0-1-0.1-1.5c-0.1-0.5-0.2-0.9-0.3-1.4c-0.1-0.5,0.1-1-0.3-1.4
		c0,0,0.2-0.4,0.2-0.5c-0.1-0.5,0.1-1.1-0.3-1.7c-0.2-0.2-0.1-0.6-0.1-1c-0.1-0.4,0.4-1-0.3-1.3c0.1-0.4,0.2-0.8,0.1-1.2
		c0-0.4-0.8-0.5-0.5-1c0.2-0.6-0.2-1-0.1-1.5c0-0.6-0.1-1.2-0.1-1.7C65.4,95.1,65.3,95,65.1,94.8z"/>
	<path class="st1" d="M189.6,131.6c0,0,0.2,0.2,0.2,0.2c-0.4,0.8-0.7,1.8-1.4,2.5c-0.4,0.4-0.8,0.9-1,1.5c-0.3,0.7-0.9,1.2-1.5,1.7
		c-0.2,0.1-0.5,0.2-0.6,0.4c-0.3,1.1-1.3,1.5-2.1,2c-1.3,0.8-2.6,1.5-3.8,2.5c-0.4,0.4-1.1,0.5-1.6,0.9c-0.2,0.1-0.5,0.3-0.7,0.4
		c-0.3,0.2-0.7,0.6-1.2,0.5c-0.4,0-0.7,0.3-1.1,0.4c-0.5,0.2-1,0.6-1.6,0.7c-0.5,0.1-1,0.5-1.6,0.4c-0.4,0-0.9,0.2-1.4,0.3
		c-0.4,0.1-0.9,0.1-1.4,0.1c-0.7,0-1.4,0.2-2.2,0c-0.6-0.2-1.3,0.2-2-0.1c-0.1-0.1-0.3,0-0.5,0c-0.5,0-1.1,0.2-1.6,0
		c-0.4-0.2-0.9,0-1.4-0.2c-0.6-0.3-1.4-0.1-2.1-0.2c-0.4,0-0.8-0.1-1.1-0.6c0.2,0,0.4-0.1,0.5-0.1c0.4,0,0.8,0.1,1.2,0.2
		c0.3,0,0.7-0.2,1,0.2c0,0,0.2,0,0.2,0c1.3,0,2.7,0,4,0c1.4-0.1,2.7-0.2,4.1-0.3c0.4,0,0.7-0.3,1.1-0.3c0.4,0,0.9-0.1,1.1-0.4
		c0.4-0.6,1.1-0.7,1.6-0.8c1-0.2,1.8-0.8,2.6-1.3c1.3-0.9,2.7-1.8,4.1-2.7c1-0.6,1.8-1.4,2.7-2.1c0.5-0.4,0.8-0.9,1.3-1.2
		c0.4-0.3,0.7-0.7,0.9-1.1c0.6-0.9,1.3-1.7,1.8-2.7c0.6-1.1,1.1-2.2,1.7-3.3c0.5-0.9,0.7-1.9,1.3-2.7c0.4-0.5,0.4-1.2,0.7-1.8
		c0.2-0.6,0.5-0.8,0.9-0.6c0.5,0.3,1.1-0.1,1.6,0.5c0.3,0.4,0.4,0.6,0.1,0.9c-0.1,0.2-0.3,0.4-0.4,0.6c0.5,0.2-0.3,0.5,0,0.7
		c-0.3,0.9-0.6,1.9-1.2,2.7C190.7,130.1,190.2,130.9,189.6,131.6z"/>
	<path class="st1" d="M87,82.1c-0.2,0.8-0.8,0.8-1.4,1.1c-0.6-0.4-1-0.9-0.9-1.8c0.1-1-0.4-2-0.5-3c0-0.2-0.2-0.4-0.3-0.6
		c-0.1-0.2-0.3-0.3-0.3-0.5c0-1.3-0.7-2.3-1.1-3.5c-0.3-1.1-1-2.1-0.9-3.3c0-0.3-0.2-0.4-0.3-0.6c-0.2-0.3-0.4-0.7-0.4-1.1
		c0-0.2-0.1-0.4-0.2-0.5c-0.2-0.4-0.6-0.7-0.6-1.1c0-0.7-0.4-1.1-0.7-1.6c-0.3-0.6-0.6-1.2-0.9-1.7c-0.7-1.2-1.5-2.5-3-3.1
		c-0.5-0.2-0.8-0.7-1.4-1.1c0.4-0.1,0.6-0.2,0.9-0.4c0.4-0.2,0.9,0.1,1.1,0.3c0.6,0.5,1.5,0.8,1.9,1.6c0.3,0.5,0.9,0.8,1.4,1.2
		c0.4,0.4,0.8,0.8,0.8,1.4c0,0.4,0.7,1.3,1.2,1.8c0.2,0.2,0.3,0.5,0.5,0.8c0.5,0.9,0.7,2,1.1,2.9c0.3,0.5,0.3,1.1,0.4,1.7
		c0.1,0.6,0,1.2,0.5,1.7c0.1,0.1,0.1,0.4,0.1,0.6c0,0.3,0.2,0.6,0.4,0.8c0.4,0.5,0.6,1.2,0.8,1.8c0.2,0.4,0.1,0.9,0.4,1.2
		c0.2,0.3,0.3,0.6,0.3,0.9c0,0.8,0.4,1.5,0.6,2.3C86.9,81,86.9,81.7,87,82.1z"/>
	<path class="st1" d="M160.5,57.3c0,0.3,0,0.7,0.1,1c0.1,0.4,0,0.7-0.4,0.9c-0.1,0-0.3,0.1-0.3,0.2c0.1,0.4-0.1,0.8-0.3,0.8
		c-0.5,0-0.2,0.6-0.6,0.6c-0.3,0-0.5,0.4-0.7,0.6c-0.1,0.1-0.1,0.1-0.2,0.1c-0.4,0-0.7,0.2-1.1,0.5c-0.3,0.3-0.7,0.4-1,0.6
		c-0.6,0.3-1.2,0.6-1.7,1c-0.3,0.2-0.7,0-0.9-0.3c-0.1-0.2-0.2-0.4-0.3-0.6c-0.2-0.3-0.3,0.1-0.4,0.1c-0.7-0.3-0.8-0.8-0.3-1.4
		c0.2-0.3,0.4-0.7,0.5-1c0.3-0.9,0.9-1.7,1.3-2.5c0.5-0.9,1.5-1.1,2.3-1.5c0.2-0.1,0.5-0.3,0.7-0.3c0.8-0.2,1.5-0.1,2.1,0.5
		C159.8,56.7,160.1,57,160.5,57.3z M159.1,57.9c-0.6-0.3-0.7-0.3-1.6-0.3c-0.4,0-0.3,0.3-0.5,0.5c-0.4,0.4-0.9,0.7-1.3,1
		c-0.1,0.1-0.3,0.3-0.2,0.4c0.1,0.4-0.2,0.6-0.4,0.9c-0.1,0.2,0,0.4-0.1,0.8c0.7-0.3,1.2-0.6,1.8-0.9
		C158.3,59.5,158.5,59.5,159.1,57.9z"/>
	<path class="st1" d="M167.1,62.8c0,0.7,0.1,1.3,0.1,2.1c-0.6,0.4-1.2,0.8-1.8,1.2c0,0-0.1,0.1-0.1,0.1c-0.8,0.2-1.6,0.4-2.4,0.5
		c-0.6,0.1-1.2-0.2-1.8-0.3c-0.1,0-0.3-0.1-0.4-0.1c-0.3-0.3-0.6-0.3-1-0.4c-0.8,0-1.6-0.8-1.7-1.6c-0.1-0.5,0.1-0.8,0.6-0.8
		c1.1,0,1.9-0.7,2.8-1.4c0.6-0.5,1.3-0.8,2-1.2c0.4,0.6,0.7-0.3,1.1,0c0.2,0.2,0.7-0.1,0.9,0.2c0.3,0.3,0.7,0.5,0.9,0.9
		C166.5,62.4,166.9,62.6,167.1,62.8z M163.7,63c-0.4,0.3-0.8,0.6-1.1,0.9c-0.3,0.3-0.9,0.3-0.7,0.9c0.6,0,1.3,0,1.9,0
		c0.2,0,1.2-0.3,1.8-0.6c0-0.1,0-0.3,0-0.5c-0.1-0.8-0.2-0.9-1-0.8C164.2,62.9,163.9,62.9,163.7,63z"/>
	<path class="st1" d="M117.6,61.1c-0.5-0.4-0.9-0.8-1.1-1.4c0-0.2-0.2-0.4-0.3-0.5c-0.5-0.3-0.5-1-1.2-1.1c-0.6-0.1-1.1-0.6-1.4-1.2
		c-0.1-0.2-0.2-0.4-0.4-0.6c-0.5-0.4-0.8-1-0.8-1.7c0-0.7,0.2-1.3,0.5-1.9c0.2-0.3,0.6-0.4,0.9-0.5c0.7-0.4,1.3-0.3,2,0.1
		c0.6,0.3,1.1,0.7,1.2,1.4c0,0.1,0.2,0.2,0.2,0.3c0,0.5,0.7,0.5,0.7,1.1c-0.1,0.4,0.3,0.7,0.5,1c0.1,0.1,0.1,0.3,0.1,0.5
		c0,1,0.3,2.1,0,3.1c-0.1,0.5-0.2,0.8-0.7,1C117.8,60.9,117.7,61,117.6,61.1z M114.8,53.5c-0.8,0.2-0.5,0.8-0.7,1.2
		c-0.1,0.1,0.1,0.4,0.2,0.6c0.4,0.8,1.1,1.3,1.8,1.8c0.2,0.1,0.5,0.1,0.8,0.2C116.1,55.8,115.6,54.5,114.8,53.5z"/>
	<path class="st1" d="M158.7,45.8c0,0.2,0,0.4,0,0.5c0.2,0.4,0.4,0.7,0.5,1c0.1,0.4,0,0.8-0.1,1.2c0,0.4-0.1,0.8-0.2,1.2
		c-0.2,0.8-0.6,1.4-1.5,1.7c-0.3,0.1-0.6,0.1-0.7,0.3c-0.5,0.8-1.4,1-2.1,1.5c-0.5,0.4-1.3,0.4-2,0.1c-1.4-0.5-1.4-0.5-0.9-1.9
		c0.7-1.9,1.8-3.5,3.4-4.7c0.5-0.4,1.1-0.7,1.8-0.7C157.6,45.9,158.1,45.9,158.7,45.8z M157.6,47.1c-0.6,0.3-1.1,0.4-1.3,0.7
		c-0.9,1-1.8,2.1-2.6,3.2c-0.2,0.2-0.2,0.6-0.3,1c0.4-0.1,0.8,0,1-0.2c0.7-0.7,1.7-1,2.4-1.6c0.2-0.1,0.4-0.3,0.5-0.5
		C157.4,48.9,157.4,48.1,157.6,47.1z"/>
	<path class="st1" d="M144.4,107.5c0.3,0,0.5,0,0.7,0c0.9,0,1.1,0.2,1.4,1.1c0.3,1,0.5,2,0.7,3c0.1,0.5,0.2,1,0.5,1.4
		c0.2,0.3,0.2,0.5,0.2,0.8c0,0.8,0.1,1.5,0.5,2.1c0.7-0.3,1.4,0.2,2.2-0.1c0.2-0.3,0.4-0.7,0.7-1.2c0.4,0.2,0.9,0.1,1.3,0.5
		c0.3,0.3,0.3,0.5,0.1,0.9c-0.1,0.2-0.2,0.4-0.3,0.6c-0.1,0.2-0.4,0.3-0.6,0.4c-0.3,0.1-0.8-0.1-1,0.3c-1.2-0.2-1.8,0.8-2.7,1.2
		c-1-0.1-1-1-1.4-1.6c-0.2-0.3-0.3-0.7-0.2-1c0.1-0.4-0.3-0.6-0.4-0.8c-0.1-0.2-0.1-0.4-0.1-0.6c0.1-0.8-0.3-1.4-0.5-2.1
		c-0.1-0.3-0.2-0.7-0.3-1c-0.1-0.5,0.1-1-0.2-1.4c-0.3-0.4,0-1-0.4-1.3C144.4,108.4,144.5,108,144.4,107.5z"/>
	<path class="st1" d="M136.8,67.8c0.7,0.1,1.2,0.1,1.7,0.3c0.3,0.1,0.5,0.2,0.8,0.1c0.6-0.1,0.9,0.3,1.2,0.9
		c-0.9,0.1-1.6,0.1-2.4,0.2c-0.2,0-0.5-0.1-0.7-0.2c-0.5-0.3-1.1-0.1-1.6-0.1c-0.6,0.7-1,0-1.4-0.3c0.4-0.4,0.5-0.9,0.4-1.5
		c0-0.1-0.1-0.3,0-0.4c0.7-1.3-0.7-1.8-1-2.6c-0.6-0.1-1.1-0.7-1.8-0.2c-0.5,0.3-1.2,0.5-1.5,1c-0.4,0.6-1.2,0.6-1.7,1
		c-0.2,0.1-0.4,0-0.9-0.5c0.6-0.5,1.1-0.9,1.7-1.4c0.5-0.5,1.1-0.8,1.7-1.1c0.3-0.2,0.8-0.2,1.2-0.2c0.9-0.2,1.8,0,2.6,0.5
		c0.6,0.4,0.9,0.9,1.3,1.4c0.7,0.9,0.7,1.1,0.5,2.3C136.8,67.2,136.8,67.5,136.8,67.8z"/>
	<path class="st1" d="M83.3,38.1c-1-0.3-1-1.3-1.6-1.7c0,0,0-0.1,0-0.1c0.1-0.7-0.3-1.3-0.4-2c-0.1-0.5-0.4-1-0.3-1.5
		c0.1-0.5,0.1-0.9,0.1-1.5c0.4-0.3,0.8-0.6,1.1-1c0.3-0.4,0.5-0.9,1-1c0.1,0,0.2-0.2,0.3-0.3c0.7-0.9,1.7-0.9,2.7-0.7
		c0.5,0.1,1,0.3,1.6,0.3c0.3,0,0.6,0.3,0.9,0.4c-0.2,0.6-0.7,0.7-1,0.5c-1.4-0.6-2.4,0.3-3.5,0.8c-0.3,0.1-0.5,0.4-0.7,0.6
		c-0.3,0.3-0.7,0.6-0.5,1.2c0.1,0.2-0.1,0.4-0.1,0.7c0,0.2,0,0.4,0,0.6c0.3,0.7,0.5,1.3,0.6,2c0.1,0.3,0.5,1.3,0.8,1.5
		c0.3,0.2,0.5,0.5,0.3,0.8C84.6,37.9,84.3,38,84,38C83.7,38,83.4,38.1,83.3,38.1z"/>
	<path class="st1" d="M147.4,66.4c-2.2,0.2-2.9-0.9-3.6-2.4c-0.2-0.4,0-0.9,0.2-1.4c0.4-0.8,0.8-1.4,1.4-2.1
		c0.7-0.8,0.9-0.8,1.9-0.6c0.9,0.2,1.9,0.4,2.7,1.1c0.3,0.3,0.5,0.9,0.4,1.5c0,0.2,0.1,0.6,0,0.7c-0.2,0.3-0.1,0.4,0,0.6
		c0.1,0.1,0,0.4-0.1,0.6c-0.6,1-1.3,1.9-2.6,1.9C147.7,66.4,147.5,66.4,147.4,66.4z M146.7,61.2c-0.5,0.6-0.9,1-1.3,1.6
		c-0.3,0.4-0.5,0.9-0.3,1.3c0.2,0.4,0.5,0.8,0.8,0.9c1.6,0.6,2.9-0.1,3.3-1.8c0.1-0.5,0-0.9-0.3-1.4c-0.2-0.4-0.5-0.4-0.8-0.5
		C147.6,61.1,147.2,61.2,146.7,61.2z"/>
	<path class="st1" d="M151.8,102.5c-2.2,0-4.2-0.3-6-1.4c-0.3-0.2-0.5-0.1-0.8-0.1c-0.8,0.1-1.4-0.1-2-0.6c-0.4-0.4-1-0.7-1.5-1
		c-0.5-0.3-0.8-0.9-1.5-1.1c-0.3-0.1-0.4-0.4-0.3-0.7c0.1-0.3,0.3-0.5,0.6-0.5c0.2,0,0.4,0,0.7,0c0.8,0.6,1.6,1.2,2.4,1.9
		c0.5,0.4,1.2,0.4,1.7,0.6c1.1,0.3,2.1,0.6,3.2,0.9c0.9,0.3,1.8,0.5,2.7,0.6c0.8,0.1,0.8,0.1,0.7,1
		C151.7,102.1,151.8,102.2,151.8,102.5z"/>
	<path class="st1" d="M112.3,67c-0.6,0.6-1.2,1.2-1.5,2c-0.1,0.3-0.2,0.5-0.3,0.9c-0.1,0.5-0.2,1-0.5,1.4c-0.6,0.9-1.2,1.7-2.3,2.2
		c-0.4-0.5-1-0.8-1.4-1.4c-0.1-0.3-0.3-0.6,0-0.8c0.4-0.3,0.4-0.9,0.5-1.3c0.4-1.3,0.4-1.3,1.2-2c0.6-0.5,1.2-1,2.1-1
		c0.2,0,0.4-0.1,0.6-0.3c0.6-0.4,0.8-0.4,1.4,0C112.1,66.9,112.2,66.9,112.3,67z M109.1,68.9c-0.6-0.1-0.9,0.3-1,0.6
		c-0.3,0.8-0.6,1.6-0.7,2.6c0.4-0.2,0.8-0.3,0.9-0.6C108.9,70.8,109,69.9,109.1,68.9z"/>
	<path class="st1" d="M111.4,63.5c-0.4,0-0.6,0-0.8-0.1c-1.5-0.8-3.2-1.2-4.6-2.3c-0.8-0.6-1-1.5-0.3-2.1c0.4-0.3,0.9-0.4,1.4-0.5
		c0.5-0.1,1,0,1.5,0.3c0.6,0.3,1,0.8,1.6,0.9c0.5,0.1,0.5,0.6,0.6,0.8C111.1,61.5,111.2,62.4,111.4,63.5z M109.4,61.9
		c0.1-1.2-0.6-1.8-1.4-2.2c-0.9-0.4-1.2-0.2-1.2,0.8c0,0.1,0.1,0.1,0.1,0.2C107.7,61.1,108.5,61.5,109.4,61.9z"/>
	<path class="st1" d="M138.9,66.1c0-0.2,0-0.3,0-0.5c0.1,0,0.1-0.1,0.2-0.1c0.5-0.1,1-0.2,1.5-0.3c0.6-0.2,1.3,0,2,0.2
		c0.9,0.2,1.8,0.4,2.2,1.4c0.1,0.2,0.4,0.3,0.5,0.5c0.3,0.4,0.6,0.8,0.5,1.3c0,0.5-0.4,1-0.8,1.1c-0.3,0-0.9-0.3-0.9-0.8
		c-0.1-1.1-1-1.6-1.5-2.5c-0.1-0.2-0.5-0.3-0.7-0.3c-0.5,0.1-1-0.1-1.5,0.3C140,66.6,139.8,66.5,138.9,66.1z"/>
	<path class="st1" d="M203.8,65.3c-0.2-1.2,0.4-2,1.1-2.8c0.3-0.4,0.6-0.4,1-0.4c0.2,0,0.3,0.2,0.5,0.3
		C205.9,63.8,205.3,64.9,203.8,65.3z"/>
	<path class="st1" d="M99.7,36.6c-0.1,0.3-0.3,0.5-0.3,0.8c-0.1,0.3-0.3,0.5-0.5,0.6c-0.3,0.2-0.4-0.2-0.7-0.1
		c-0.2-0.7,0-1.3,0.5-1.7C98.8,36,99.4,36,99.7,36.6z"/>
	<path class="st1" d="M148.1,77.7c-0.2-0.1-0.5-0.2-0.8-0.4c0-0.1,0-0.2,0-0.2c0.3-0.4,0.7-0.7,1-1.1c0.9-1.2,2-2,3.1-3
		c0.3-0.2,0.7-0.4,1-0.5c0.4-0.1,0.8-0.2,1.2-0.3c0.3-0.1,0.8,0.1,1.1,0.1c0.2,0,0.3,0,0.5,0c0.1,0.9,0.1,0.9-0.6,1
		c-0.5,0.1-1,0.4-1.6,0.4c-0.1,0-0.3,0-0.3,0.1c-0.6,0.6-1.4,1-2,1.7C150,76.3,149.3,77.3,148.1,77.7z"/>
</g>
</svg>
